%TF.GenerationSoftware,KiCad,Pcbnew,6.0.2-378541a8eb~116~ubuntu20.04.1*%
%TF.CreationDate,2022-02-25T21:41:06-08:00*%
%TF.ProjectId,epaper_clock,65706170-6572-45f6-936c-6f636b2e6b69,rev?*%
%TF.SameCoordinates,PX3c8eee0PY52f7038*%
%TF.FileFunction,Copper,L1,Top*%
%TF.FilePolarity,Positive*%
%FSLAX46Y46*%
G04 Gerber Fmt 4.6, Leading zero omitted, Abs format (unit mm)*
G04 Created by KiCad (PCBNEW 6.0.2-378541a8eb~116~ubuntu20.04.1) date 2022-02-25 21:41:06*
%MOMM*%
%LPD*%
G01*
G04 APERTURE LIST*
%TA.AperFunction,ComponentPad*%
%ADD10C,1.900000*%
%TD*%
%TA.AperFunction,ComponentPad*%
%ADD11R,1.900000X1.900000*%
%TD*%
%TA.AperFunction,ComponentPad*%
%ADD12C,1.800000*%
%TD*%
%TA.AperFunction,ComponentPad*%
%ADD13R,1.700000X1.700000*%
%TD*%
%TA.AperFunction,ComponentPad*%
%ADD14O,1.700000X1.700000*%
%TD*%
%TA.AperFunction,ComponentPad*%
%ADD15R,1.800000X1.800000*%
%TD*%
%TA.AperFunction,ComponentPad*%
%ADD16C,2.400000*%
%TD*%
%TA.AperFunction,ComponentPad*%
%ADD17O,2.400000X2.400000*%
%TD*%
%TA.AperFunction,ComponentPad*%
%ADD18C,1.600000*%
%TD*%
%TA.AperFunction,ViaPad*%
%ADD19C,0.800000*%
%TD*%
%TA.AperFunction,Conductor*%
%ADD20C,0.400000*%
%TD*%
%TA.AperFunction,Conductor*%
%ADD21C,1.000000*%
%TD*%
G04 APERTURE END LIST*
D10*
%TO.P,SW2,1,1*%
%TO.N,/BUT_B*%
X52220000Y-5025000D03*
%TO.P,SW2,2,2*%
%TO.N,GND*%
X45720000Y-5025000D03*
%TO.P,SW2,3,3*%
%TO.N,/BUT_B*%
X52220000Y-9525000D03*
%TO.P,SW2,4,4*%
%TO.N,GND*%
X45720000Y-9525000D03*
%TD*%
D11*
%TO.P,J2,1,Pin_1*%
%TO.N,/MISO*%
X72390000Y-4460000D03*
D10*
%TO.P,J2,2,Pin_2*%
%TO.N,/VBAT*%
X69850000Y-4460000D03*
%TO.P,J2,3,Pin_3*%
%TO.N,/SCK*%
X72390000Y-7000000D03*
%TO.P,J2,4,Pin_4*%
%TO.N,/MOSI*%
X69850000Y-7000000D03*
%TO.P,J2,5,Pin_5*%
%TO.N,/M_RST*%
X72390000Y-9540000D03*
%TO.P,J2,6,Pin_6*%
%TO.N,GND*%
X69850000Y-9540000D03*
%TD*%
D12*
%TO.P,U5,2,EN*%
%TO.N,/EN*%
X5080000Y-12065000D03*
%TO.P,U5,3,VBAT*%
%TO.N,/3.3V*%
X7620000Y-12065000D03*
%TO.P,U5,5,TX*%
%TO.N,/RXI*%
X12700000Y-12065000D03*
%TO.P,U5,7,GND*%
%TO.N,GND*%
X17780000Y-12065000D03*
%TO.P,U5,8,VIN*%
%TO.N,/VBAT*%
X20320000Y-12065000D03*
%TD*%
D13*
%TO.P,J3,1,Pin_1*%
%TO.N,/TXD*%
X39370000Y-40005000D03*
D14*
%TO.P,J3,2,Pin_2*%
%TO.N,GND*%
X39370000Y-37465000D03*
%TD*%
D12*
%TO.P,U3,1,VIN*%
%TO.N,/VBAT*%
X58420000Y-29845000D03*
%TO.P,U3,2,3Vo*%
%TO.N,/3.3V*%
X58420000Y-32385000D03*
%TO.P,U3,3,GND*%
%TO.N,GND*%
X58420000Y-34925000D03*
%TO.P,U3,4,SCL*%
%TO.N,/SCL*%
X58420000Y-37465000D03*
%TO.P,U3,5,SDA*%
%TO.N,/SDA*%
X58420000Y-40005000D03*
%TD*%
D15*
%TO.P,D1,1,K*%
%TO.N,Net-(D1-Pad1)*%
X27940000Y-6985000D03*
D12*
%TO.P,D1,2,A*%
%TO.N,Net-(D1-Pad2)*%
X25400000Y-6985000D03*
%TD*%
D16*
%TO.P,R1,1*%
%TO.N,Net-(D1-Pad1)*%
X33020000Y-6985000D03*
D17*
%TO.P,R1,2*%
%TO.N,GND*%
X40640000Y-6985000D03*
%TD*%
D10*
%TO.P,SW1,1,1*%
%TO.N,/BUT_A*%
X64210000Y-4735000D03*
%TO.P,SW1,2,2*%
%TO.N,GND*%
X57710000Y-4735000D03*
%TO.P,SW1,3,3*%
%TO.N,/BUT_A*%
X64210000Y-9235000D03*
%TO.P,SW1,4,4*%
%TO.N,GND*%
X57710000Y-9235000D03*
%TD*%
D18*
%TO.P,C1,1*%
%TO.N,/3.3V*%
X23495000Y-27305000D03*
%TO.P,C1,2*%
%TO.N,GND*%
X23495000Y-24805000D03*
%TD*%
D11*
%TO.P,U4,1,VCC*%
%TO.N,/3.3V*%
X68580000Y-24765000D03*
D10*
%TO.P,U4,2,GND*%
%TO.N,GND*%
X68580000Y-27305000D03*
%TO.P,U4,3,DIN*%
%TO.N,/MOSI*%
X68580000Y-29845000D03*
%TO.P,U4,4,CLK*%
%TO.N,/SCK*%
X68580000Y-32385000D03*
%TO.P,U4,5,CS*%
%TO.N,/CS*%
X68580000Y-34925000D03*
%TO.P,U4,6,DC*%
%TO.N,/DC*%
X68580000Y-37465000D03*
%TO.P,U4,7,RST*%
%TO.N,/E_RST*%
X68580000Y-40005000D03*
%TO.P,U4,8,BUSY*%
%TO.N,/BUSY*%
X68580000Y-42545000D03*
%TD*%
D11*
%TO.P,C3,1*%
%TO.N,/VBAT*%
X44450000Y-29845000D03*
D10*
%TO.P,C3,2*%
%TO.N,GND*%
X41950000Y-29845000D03*
%TD*%
D11*
%TO.P,C2,1*%
%TO.N,/3.3V*%
X52705000Y-35647621D03*
D10*
%TO.P,C2,2*%
%TO.N,GND*%
X52705000Y-38147621D03*
%TD*%
D11*
%TO.P,U1,1,~{RESET}/PC6*%
%TO.N,/M_RST*%
X27940000Y-45085000D03*
D10*
%TO.P,U1,2,PD0*%
%TO.N,/RXI*%
X27940000Y-42545000D03*
%TO.P,U1,3,PD1*%
%TO.N,/TXD*%
X27940000Y-40005000D03*
%TO.P,U1,5,PD3*%
%TO.N,/BUT_A*%
X27940000Y-34925000D03*
%TO.P,U1,6,PD4*%
%TO.N,/BUT_B*%
X27940000Y-32385000D03*
%TO.P,U1,7,VCC*%
%TO.N,/3.3V*%
X27940000Y-29845000D03*
%TO.P,U1,8,GND*%
%TO.N,GND*%
X27940000Y-27305000D03*
%TO.P,U1,11,PD5*%
%TO.N,Net-(D1-Pad2)*%
X27940000Y-19685000D03*
%TO.P,U1,12,PD6*%
%TO.N,/EN*%
X27940000Y-17145000D03*
%TO.P,U1,13,PD7*%
%TO.N,/BUSY*%
X27940000Y-14605000D03*
%TO.P,U1,14,PB0*%
%TO.N,/E_RST*%
X27940000Y-12065000D03*
%TO.P,U1,15,PB1*%
%TO.N,/DC*%
X35560000Y-12065000D03*
%TO.P,U1,16,PB2*%
%TO.N,/CS*%
X35560000Y-14605000D03*
%TO.P,U1,17,PB3*%
%TO.N,/MOSI*%
X35560000Y-17145000D03*
%TO.P,U1,18,PB4*%
%TO.N,/MISO*%
X35560000Y-19685000D03*
%TO.P,U1,19,PB5*%
%TO.N,/SCK*%
X35560000Y-22225000D03*
%TO.P,U1,22,GND*%
%TO.N,GND*%
X35560000Y-29845000D03*
%TO.P,U1,27,PC4*%
%TO.N,/SDA*%
X35560000Y-42545000D03*
%TO.P,U1,28,PC5*%
%TO.N,/SCL*%
X35560000Y-45085000D03*
%TD*%
D13*
%TO.P,J1,1,Pin_1*%
%TO.N,/VBAT*%
X68580000Y-17145000D03*
D14*
%TO.P,J1,2,Pin_2*%
%TO.N,GND*%
X68580000Y-19685000D03*
%TD*%
D19*
%TO.N,/RXI*%
X12700000Y-30480000D03*
X12700000Y-19685000D03*
%TO.N,GND*%
X39370000Y-34925000D03*
X39370000Y-30480000D03*
%TO.N,/EN*%
X21590000Y-7620000D03*
X15240000Y-7620000D03*
%TO.N,/MISO*%
X43180000Y-19685000D03*
X55245000Y-1876469D03*
%TO.N,/SCK*%
X74295000Y-19685000D03*
X58420000Y-22225000D03*
%TO.N,/VBAT*%
X67310000Y-12700000D03*
X48260000Y-15240000D03*
X48260000Y-29845000D03*
X67310000Y-4445000D03*
%TD*%
D20*
%TO.N,/M_RST*%
X72554520Y-43371864D02*
X72554520Y-9699520D01*
X33020000Y-45085000D02*
X34569511Y-46634511D01*
X34569511Y-46634511D02*
X69431181Y-46634511D01*
X27940000Y-45085000D02*
X33020000Y-45085000D01*
X72554520Y-9699520D02*
X72395000Y-9540000D01*
X69431181Y-46634511D02*
X72554520Y-43511172D01*
%TO.N,/RXI*%
X12700000Y-38100000D02*
X12700000Y-30480000D01*
X27940000Y-42545000D02*
X17145000Y-42545000D01*
X17145000Y-42545000D02*
X12700000Y-38100000D01*
X12700000Y-19685000D02*
X12700000Y-12065000D01*
%TO.N,Net-(D1-Pad2)*%
X25400000Y-17145000D02*
X25400000Y-6985000D01*
X27940000Y-19685000D02*
X25400000Y-17145000D01*
%TO.N,/BUT_A*%
X62650000Y-3175000D02*
X64210000Y-4735000D01*
X2375480Y-13031172D02*
X2375480Y-10959520D01*
X54495008Y-2540000D02*
X55130008Y-3175000D01*
X24269308Y-34925000D02*
X2375480Y-13031172D01*
X27940000Y-34925000D02*
X24269308Y-34925000D01*
X55130008Y-3175000D02*
X62650000Y-3175000D01*
X64210000Y-4735000D02*
X64210000Y-9235000D01*
X10795000Y-2540000D02*
X54495008Y-2540000D01*
X2375480Y-10959520D02*
X10795000Y-2540000D01*
%TO.N,/BUT_B*%
X4445000Y-13970000D02*
X3175000Y-12700000D01*
X3175000Y-11430000D02*
X11129511Y-3475489D01*
X5080000Y-13970000D02*
X4445000Y-13970000D01*
X23495000Y-32385000D02*
X5080000Y-13970000D01*
X3175000Y-12700000D02*
X3175000Y-11430000D01*
X11129511Y-3475489D02*
X50670489Y-3475489D01*
X50670489Y-3475489D02*
X52220000Y-5025000D01*
X52220000Y-5025000D02*
X52220000Y-9525000D01*
X27940000Y-32385000D02*
X23495000Y-32385000D01*
%TO.N,/3.3V*%
X52705000Y-35647621D02*
X42632621Y-35647621D01*
X67938170Y-44094511D02*
X69570489Y-44094511D01*
X39370000Y-32385000D02*
X30480000Y-32385000D01*
X58420000Y-32385000D02*
X55157379Y-35647621D01*
X25360000Y-27265000D02*
X27940000Y-29845000D01*
X58420000Y-32385000D02*
X63170960Y-37135960D01*
X63170960Y-37135960D02*
X63170960Y-39327301D01*
X14199511Y-21819511D02*
X14199511Y-11443881D01*
X70485000Y-26670000D02*
X68580000Y-24765000D01*
X24130000Y-27265000D02*
X25360000Y-27265000D01*
X14199511Y-11443881D02*
X13321119Y-10565489D01*
X42632621Y-35647621D02*
X39370000Y-32385000D01*
X19645000Y-27265000D02*
X14199511Y-21819511D01*
X13321119Y-10565489D02*
X9119511Y-10565489D01*
X69570489Y-44094511D02*
X70485000Y-43180000D01*
X70485000Y-43180000D02*
X70485000Y-26670000D01*
X63170960Y-39327301D02*
X67938170Y-44094511D01*
X30480000Y-32385000D02*
X27940000Y-29845000D01*
X55157379Y-35647621D02*
X52705000Y-35647621D01*
X9119511Y-10565489D02*
X7620000Y-12065000D01*
X24130000Y-27265000D02*
X19645000Y-27265000D01*
%TO.N,GND*%
X47625000Y-11430000D02*
X55515000Y-11430000D01*
X66675000Y-21590000D02*
X66675000Y-26670000D01*
X57710000Y-4735000D02*
X57710000Y-9235000D01*
X69728533Y-23014511D02*
X69728533Y-20833533D01*
X17780000Y-8255000D02*
X21590000Y-4445000D01*
X67606998Y-44894031D02*
X70040969Y-44894031D01*
X24130000Y-24765000D02*
X25400000Y-24765000D01*
X62371440Y-38876440D02*
X62371440Y-39658473D01*
X69855000Y-9540000D02*
X70705000Y-10390000D01*
X67310000Y-27305000D02*
X68580000Y-27305000D01*
X39370000Y-29845000D02*
X41950000Y-29845000D01*
X35560000Y-29845000D02*
X38735000Y-29845000D01*
X58420000Y-34925000D02*
X55197379Y-38147621D01*
X68580000Y-19685000D02*
X66675000Y-21590000D01*
X70705000Y-10390000D02*
X70705000Y-18195000D01*
X40052621Y-38147621D02*
X39370000Y-37465000D01*
X40640000Y-6985000D02*
X42600000Y-5025000D01*
X39370000Y-34925000D02*
X39370000Y-37465000D01*
X71755000Y-25040978D02*
X69728533Y-23014511D01*
X45720000Y-9525000D02*
X47625000Y-11430000D01*
X55197379Y-38147621D02*
X52705000Y-38147621D01*
X19050000Y-24765000D02*
X17780000Y-23495000D01*
X30480000Y-29845000D02*
X35560000Y-29845000D01*
X58420000Y-34925000D02*
X62371440Y-38876440D01*
X17780000Y-19685000D02*
X17780000Y-12065000D01*
X17780000Y-12065000D02*
X17780000Y-8255000D01*
X39370000Y-30480000D02*
X39370000Y-29845000D01*
X38735000Y-29845000D02*
X39370000Y-29845000D01*
X71755000Y-43180000D02*
X71755000Y-25040978D01*
X70040969Y-44894031D02*
X71755000Y-43180000D01*
X69215000Y-19685000D02*
X68580000Y-19685000D01*
X24130000Y-24765000D02*
X19050000Y-24765000D01*
X42600000Y-5025000D02*
X45720000Y-5025000D01*
X22860000Y-4445000D02*
X38100000Y-4445000D01*
X52705000Y-38147621D02*
X40052621Y-38147621D01*
X69728533Y-20833533D02*
X68580000Y-19685000D01*
X38100000Y-4445000D02*
X40640000Y-6985000D01*
X17780000Y-23495000D02*
X17780000Y-19685000D01*
X25400000Y-24765000D02*
X27940000Y-27305000D01*
X21744989Y-4445000D02*
X22860000Y-4445000D01*
X62371440Y-39658473D02*
X67606998Y-44894031D01*
X45720000Y-5025000D02*
X45720000Y-9525000D01*
X55515000Y-11430000D02*
X57710000Y-9235000D01*
X70705000Y-18195000D02*
X69215000Y-19685000D01*
X66675000Y-26670000D02*
X67310000Y-27305000D01*
X27940000Y-27305000D02*
X30480000Y-29845000D01*
%TO.N,/EN*%
X9525000Y-7620000D02*
X5080000Y-12065000D01*
X22225000Y-16510000D02*
X22225000Y-10795000D01*
X22225000Y-8255000D02*
X21590000Y-7620000D01*
X29845000Y-19050000D02*
X29845000Y-19971341D01*
X15240000Y-7620000D02*
X9525000Y-7620000D01*
X29845000Y-19971341D02*
X28581830Y-21234511D01*
X27940000Y-17145000D02*
X29845000Y-19050000D01*
X22225000Y-10795000D02*
X22225000Y-8255000D01*
X28581830Y-21234511D02*
X26949511Y-21234511D01*
X26949511Y-21234511D02*
X22225000Y-16510000D01*
%TO.N,Net-(D1-Pad1)*%
X27940000Y-6985000D02*
X33020000Y-6985000D01*
%TO.N,/BUSY*%
X34460480Y-26840480D02*
X57536110Y-26840480D01*
X68580000Y-42545000D02*
X63970480Y-37935480D01*
X31115000Y-23495000D02*
X31115000Y-16510000D01*
X63970480Y-37935480D02*
X63970480Y-33274850D01*
X27940000Y-14605000D02*
X29210000Y-14605000D01*
X57536110Y-26840480D02*
X63970480Y-33274850D01*
X29210000Y-14605000D02*
X31115000Y-16510000D01*
X34460480Y-26840480D02*
X31115000Y-23495000D01*
%TO.N,/E_RST*%
X68580000Y-40005000D02*
X64770000Y-36195000D01*
X34785692Y-26035000D02*
X31914520Y-23163828D01*
X31914520Y-16039520D02*
X31750000Y-15875000D01*
X57861322Y-26035000D02*
X34785692Y-26035000D01*
X31914520Y-23163828D02*
X31914520Y-16039520D01*
X64770000Y-32943678D02*
X57861322Y-26035000D01*
X64770000Y-36195000D02*
X64770000Y-32943678D01*
X27940000Y-12065000D02*
X31750000Y-15875000D01*
%TO.N,/DC*%
X65569520Y-32549520D02*
X58255480Y-25235480D01*
X65569520Y-32549520D02*
X65569520Y-34454520D01*
X35116864Y-25235480D02*
X32714040Y-22832656D01*
X58255480Y-25235480D02*
X35116864Y-25235480D01*
X65569520Y-34454520D02*
X68580000Y-37465000D01*
X32714040Y-14910960D02*
X35560000Y-12065000D01*
X32714040Y-22832656D02*
X32714040Y-14910960D01*
%TO.N,/CS*%
X59196440Y-24435960D02*
X35448036Y-24435960D01*
X35448036Y-24435960D02*
X33655000Y-22642924D01*
X66369040Y-31608560D02*
X59196440Y-24435960D01*
X33655000Y-22642924D02*
X33655000Y-16510000D01*
X33655000Y-16510000D02*
X35560000Y-14605000D01*
X68580000Y-34925000D02*
X66369040Y-32714040D01*
X66369040Y-32714040D02*
X66369040Y-31608560D01*
%TO.N,/MOSI*%
X40005000Y-12700000D02*
X35560000Y-17145000D01*
X64155000Y-12700000D02*
X40005000Y-12700000D01*
X35560000Y-17145000D02*
X55880000Y-17145000D01*
X55880000Y-17145000D02*
X68580000Y-29845000D01*
X69855000Y-7000000D02*
X64155000Y-12700000D01*
%TO.N,/MISO*%
X55245000Y-1876469D02*
X69811469Y-1876469D01*
X69811469Y-1876469D02*
X72395000Y-4460000D01*
X35560000Y-19685000D02*
X43180000Y-19685000D01*
%TO.N,/SCK*%
X58490710Y-22225000D02*
X68580000Y-32314290D01*
X41910000Y-22225000D02*
X58420000Y-22225000D01*
X35560000Y-22225000D02*
X41910000Y-22225000D01*
X58420000Y-22225000D02*
X58490710Y-22225000D01*
X74295000Y-8900000D02*
X72395000Y-7000000D01*
X68580000Y-32314290D02*
X68580000Y-32385000D01*
X74295000Y-19685000D02*
X74295000Y-8900000D01*
%TO.N,/SDA*%
X35560000Y-42545000D02*
X55880000Y-42545000D01*
X55880000Y-42545000D02*
X58420000Y-40005000D01*
%TO.N,/SCL*%
X59919511Y-38964511D02*
X58420000Y-37465000D01*
X59919511Y-40626119D02*
X59919511Y-38964511D01*
X55460630Y-45085000D02*
X59919511Y-40626119D01*
X35560000Y-45085000D02*
X55460630Y-45085000D01*
D21*
%TO.N,/VBAT*%
X66675000Y-15240000D02*
X68580000Y-17145000D01*
X20320000Y-12065000D02*
X20320000Y-19685000D01*
X48260000Y-29845000D02*
X44450000Y-29845000D01*
X48260000Y-29845000D02*
X58420000Y-29845000D01*
X65405000Y-15240000D02*
X66675000Y-15240000D01*
D20*
X64770000Y-15240000D02*
X65405000Y-15240000D01*
D21*
X43815000Y-27940000D02*
X44450000Y-28575000D01*
X20320000Y-19685000D02*
X23495000Y-22860000D01*
X69855000Y-4460000D02*
X67325000Y-4460000D01*
X23495000Y-22860000D02*
X26110605Y-22860000D01*
D20*
X67325000Y-4460000D02*
X67310000Y-4445000D01*
D21*
X26110605Y-22860000D02*
X31190605Y-27940000D01*
X48260000Y-15240000D02*
X64770000Y-15240000D01*
X31190605Y-27940000D02*
X43815000Y-27940000D01*
X67310000Y-12700000D02*
X64770000Y-15240000D01*
X44450000Y-28575000D02*
X44450000Y-29845000D01*
D20*
%TO.N,/TXD*%
X27940000Y-40005000D02*
X39370000Y-40005000D01*
%TD*%
%TA.AperFunction,Conductor*%
%TO.N,GND*%
G36*
X75634121Y-528002D02*
G01*
X75680614Y-581658D01*
X75692000Y-634000D01*
X75692000Y-48261000D01*
X75671998Y-48329121D01*
X75618342Y-48375614D01*
X75566000Y-48387000D01*
X634000Y-48387000D01*
X565879Y-48366998D01*
X519386Y-48313342D01*
X508000Y-48261000D01*
X508000Y-13068524D01*
X1662755Y-13068524D01*
X1664060Y-13076001D01*
X1664060Y-13076002D01*
X1673741Y-13131471D01*
X1674703Y-13137993D01*
X1682378Y-13201414D01*
X1685061Y-13208515D01*
X1685702Y-13211124D01*
X1690165Y-13227434D01*
X1690930Y-13229970D01*
X1692237Y-13237456D01*
X1707200Y-13271541D01*
X1717922Y-13295967D01*
X1720413Y-13302071D01*
X1742993Y-13361828D01*
X1747297Y-13368091D01*
X1748534Y-13370457D01*
X1756779Y-13385269D01*
X1758112Y-13387523D01*
X1761165Y-13394477D01*
X1795802Y-13439615D01*
X1800059Y-13445163D01*
X1803939Y-13450504D01*
X1835819Y-13496892D01*
X1835824Y-13496897D01*
X1840123Y-13503153D01*
X1845793Y-13508204D01*
X1845794Y-13508206D01*
X1886650Y-13544607D01*
X1891926Y-13549588D01*
X23747865Y-35405528D01*
X23753719Y-35411793D01*
X23778450Y-35440142D01*
X23791747Y-35455385D01*
X23844037Y-35492136D01*
X23849279Y-35496028D01*
X23899590Y-35535476D01*
X23906509Y-35538600D01*
X23908801Y-35539988D01*
X23923473Y-35548357D01*
X23925833Y-35549622D01*
X23932047Y-35553990D01*
X23939126Y-35556750D01*
X23939128Y-35556751D01*
X23991583Y-35577202D01*
X23997652Y-35579753D01*
X24055881Y-35606045D01*
X24063354Y-35607430D01*
X24065920Y-35608234D01*
X24082143Y-35612855D01*
X24084735Y-35613520D01*
X24091817Y-35616282D01*
X24099352Y-35617274D01*
X24155169Y-35624622D01*
X24161685Y-35625654D01*
X24200078Y-35632770D01*
X24224494Y-35637295D01*
X24232074Y-35636858D01*
X24232075Y-35636858D01*
X24286688Y-35633709D01*
X24293941Y-35633500D01*
X26592945Y-35633500D01*
X26661066Y-35653502D01*
X26700378Y-35693666D01*
X26756312Y-35784943D01*
X26756317Y-35784950D01*
X26759014Y-35789351D01*
X26916043Y-35970630D01*
X27100571Y-36123828D01*
X27307643Y-36244831D01*
X27312468Y-36246673D01*
X27312469Y-36246674D01*
X27354186Y-36262604D01*
X27531697Y-36330389D01*
X27536763Y-36331420D01*
X27536764Y-36331420D01*
X27582490Y-36340723D01*
X27766716Y-36378204D01*
X27902264Y-36383174D01*
X28001225Y-36386803D01*
X28001229Y-36386803D01*
X28006389Y-36386992D01*
X28011509Y-36386336D01*
X28011511Y-36386336D01*
X28239151Y-36357175D01*
X28239152Y-36357175D01*
X28244279Y-36356518D01*
X28273761Y-36347673D01*
X28469042Y-36289086D01*
X28469047Y-36289084D01*
X28473997Y-36287599D01*
X28689374Y-36182087D01*
X28693579Y-36179087D01*
X28693585Y-36179084D01*
X28806472Y-36098562D01*
X28884627Y-36042815D01*
X29054511Y-35873523D01*
X29194463Y-35678758D01*
X29206946Y-35653502D01*
X29298433Y-35468392D01*
X29298434Y-35468390D01*
X29300727Y-35463750D01*
X29370447Y-35234274D01*
X29401752Y-34996492D01*
X29401834Y-34993142D01*
X29403417Y-34928365D01*
X29403417Y-34928361D01*
X29403499Y-34925000D01*
X29392631Y-34792808D01*
X29384271Y-34691124D01*
X29384270Y-34691118D01*
X29383847Y-34685973D01*
X29345871Y-34534783D01*
X29326679Y-34458375D01*
X29326678Y-34458371D01*
X29325420Y-34453364D01*
X29323364Y-34448634D01*
X29323361Y-34448627D01*
X29231847Y-34238159D01*
X29231845Y-34238156D01*
X29229787Y-34233422D01*
X29206843Y-34197955D01*
X29102325Y-34036396D01*
X29102323Y-34036393D01*
X29099515Y-34032053D01*
X29070580Y-34000253D01*
X28941582Y-33858487D01*
X28941580Y-33858486D01*
X28938104Y-33854665D01*
X28934053Y-33851466D01*
X28934049Y-33851462D01*
X28810333Y-33753757D01*
X28769270Y-33695840D01*
X28766038Y-33624917D01*
X28801664Y-33563505D01*
X28815257Y-33552296D01*
X28880423Y-33505814D01*
X28880425Y-33505812D01*
X28884627Y-33502815D01*
X29054511Y-33333523D01*
X29072424Y-33308595D01*
X29191445Y-33142958D01*
X29194463Y-33138758D01*
X29198592Y-33130405D01*
X29298433Y-32928392D01*
X29298434Y-32928390D01*
X29300727Y-32923750D01*
X29370447Y-32694274D01*
X29385593Y-32579230D01*
X29414315Y-32514302D01*
X29473581Y-32475211D01*
X29544572Y-32474366D01*
X29599610Y-32506581D01*
X29958557Y-32865528D01*
X29964411Y-32871793D01*
X30002439Y-32915385D01*
X30054729Y-32952136D01*
X30059971Y-32956028D01*
X30110282Y-32995476D01*
X30117201Y-32998600D01*
X30119493Y-32999988D01*
X30134165Y-33008357D01*
X30136525Y-33009622D01*
X30142739Y-33013990D01*
X30149818Y-33016750D01*
X30149820Y-33016751D01*
X30202275Y-33037202D01*
X30208344Y-33039753D01*
X30266573Y-33066045D01*
X30274046Y-33067430D01*
X30276612Y-33068234D01*
X30292835Y-33072855D01*
X30295427Y-33073520D01*
X30302509Y-33076282D01*
X30310044Y-33077274D01*
X30365861Y-33084622D01*
X30372377Y-33085654D01*
X30410770Y-33092770D01*
X30435186Y-33097295D01*
X30442766Y-33096858D01*
X30442767Y-33096858D01*
X30497380Y-33093709D01*
X30504633Y-33093500D01*
X39024340Y-33093500D01*
X39092461Y-33113502D01*
X39113435Y-33130405D01*
X42111171Y-36128141D01*
X42117025Y-36134406D01*
X42155060Y-36178006D01*
X42196616Y-36207212D01*
X42207340Y-36214749D01*
X42212635Y-36218682D01*
X42262903Y-36258097D01*
X42269819Y-36261220D01*
X42272105Y-36262604D01*
X42286786Y-36270978D01*
X42289146Y-36272243D01*
X42295360Y-36276611D01*
X42302439Y-36279371D01*
X42302441Y-36279372D01*
X42317697Y-36285320D01*
X42346935Y-36296719D01*
X42354896Y-36299823D01*
X42360965Y-36302374D01*
X42419194Y-36328666D01*
X42426661Y-36330050D01*
X42429216Y-36330851D01*
X42445469Y-36335480D01*
X42448049Y-36336143D01*
X42455130Y-36338903D01*
X42462661Y-36339894D01*
X42462663Y-36339895D01*
X42492282Y-36343794D01*
X42518482Y-36347243D01*
X42524980Y-36348273D01*
X42587807Y-36359917D01*
X42595387Y-36359480D01*
X42595388Y-36359480D01*
X42650013Y-36356330D01*
X42657267Y-36356121D01*
X51120500Y-36356121D01*
X51188621Y-36376123D01*
X51235114Y-36429779D01*
X51246500Y-36482121D01*
X51246500Y-36645755D01*
X51253255Y-36707937D01*
X51304385Y-36844326D01*
X51391739Y-36960882D01*
X51508295Y-37048236D01*
X51516700Y-37051387D01*
X51519376Y-37052852D01*
X51569522Y-37103111D01*
X51584536Y-37172502D01*
X51562956Y-37234376D01*
X51435845Y-37420715D01*
X51430756Y-37429674D01*
X51334163Y-37637766D01*
X51330606Y-37647434D01*
X51269299Y-37868500D01*
X51267368Y-37878620D01*
X51242989Y-38106744D01*
X51242737Y-38117033D01*
X51255944Y-38346072D01*
X51257377Y-38356274D01*
X51307810Y-38580063D01*
X51310898Y-38589916D01*
X51397204Y-38802461D01*
X51401852Y-38811662D01*
X51498736Y-38969764D01*
X51509192Y-38979225D01*
X51517970Y-38975441D01*
X52615905Y-37877506D01*
X52678217Y-37843480D01*
X52749032Y-37848545D01*
X52794095Y-37877506D01*
X53887130Y-38970541D01*
X53899141Y-38977100D01*
X53910880Y-38968132D01*
X53956012Y-38905323D01*
X53961327Y-38896478D01*
X54062966Y-38690827D01*
X54066765Y-38681232D01*
X54133453Y-38461741D01*
X54135632Y-38451660D01*
X54165813Y-38222410D01*
X54166332Y-38215735D01*
X54167915Y-38150985D01*
X54167721Y-38144268D01*
X54148776Y-37913827D01*
X54147093Y-37903665D01*
X54091204Y-37681160D01*
X54087883Y-37671405D01*
X53996409Y-37461031D01*
X53991531Y-37451933D01*
X53866926Y-37259323D01*
X53860641Y-37251161D01*
X53857931Y-37248183D01*
X53826876Y-37184338D01*
X53835268Y-37113839D01*
X53880443Y-37059069D01*
X53890610Y-37052860D01*
X53893302Y-37051386D01*
X53901705Y-37048236D01*
X54018261Y-36960882D01*
X54105615Y-36844326D01*
X54156745Y-36707937D01*
X54163500Y-36645755D01*
X54163500Y-36482121D01*
X54183502Y-36414000D01*
X54237158Y-36367507D01*
X54289500Y-36356121D01*
X55128467Y-36356121D01*
X55137037Y-36356413D01*
X55187155Y-36359830D01*
X55187159Y-36359830D01*
X55194731Y-36360346D01*
X55202208Y-36359041D01*
X55202209Y-36359041D01*
X55228687Y-36354420D01*
X55257682Y-36349359D01*
X55264200Y-36348398D01*
X55327621Y-36340723D01*
X55334722Y-36338040D01*
X55337331Y-36337399D01*
X55353641Y-36332936D01*
X55356177Y-36332171D01*
X55363663Y-36330864D01*
X55422179Y-36305177D01*
X55428283Y-36302686D01*
X55480927Y-36282794D01*
X55480928Y-36282793D01*
X55488035Y-36280108D01*
X55494298Y-36275804D01*
X55496664Y-36274567D01*
X55511476Y-36266322D01*
X55513730Y-36264989D01*
X55520684Y-36261936D01*
X55571381Y-36223034D01*
X55576711Y-36219162D01*
X55623099Y-36187282D01*
X55623104Y-36187277D01*
X55629360Y-36182978D01*
X55670815Y-36136450D01*
X55675795Y-36131175D01*
X56803920Y-35003050D01*
X56866232Y-34969024D01*
X56937047Y-34974089D01*
X56993883Y-35016636D01*
X57018806Y-35084892D01*
X57020627Y-35116469D01*
X57022061Y-35126670D01*
X57070685Y-35342439D01*
X57073773Y-35352292D01*
X57156986Y-35557220D01*
X57161634Y-35566421D01*
X57250097Y-35710781D01*
X57260553Y-35720242D01*
X57269331Y-35716458D01*
X58330905Y-34654885D01*
X58393217Y-34620859D01*
X58464033Y-34625924D01*
X58509095Y-34654885D01*
X59566303Y-35712092D01*
X59578314Y-35718651D01*
X59590052Y-35709684D01*
X59628010Y-35656859D01*
X59633321Y-35648020D01*
X59731318Y-35449737D01*
X59735117Y-35440142D01*
X59799415Y-35228517D01*
X59801594Y-35218436D01*
X59820581Y-35074217D01*
X59849303Y-35009290D01*
X59908569Y-34970198D01*
X59979560Y-34969353D01*
X60034598Y-35001568D01*
X62425555Y-37392525D01*
X62459581Y-37454837D01*
X62462460Y-37481620D01*
X62462460Y-39298389D01*
X62462168Y-39306959D01*
X62459027Y-39353042D01*
X62458235Y-39364653D01*
X62459540Y-39372130D01*
X62459540Y-39372131D01*
X62469221Y-39427600D01*
X62470183Y-39434122D01*
X62477858Y-39497543D01*
X62480541Y-39504644D01*
X62481182Y-39507253D01*
X62485645Y-39523563D01*
X62486410Y-39526099D01*
X62487717Y-39533585D01*
X62496008Y-39552471D01*
X62513402Y-39592096D01*
X62515893Y-39598200D01*
X62538473Y-39657957D01*
X62542777Y-39664220D01*
X62544014Y-39666586D01*
X62552259Y-39681398D01*
X62553592Y-39683652D01*
X62556645Y-39690606D01*
X62591404Y-39735903D01*
X62595539Y-39741292D01*
X62599419Y-39746633D01*
X62631299Y-39793021D01*
X62631304Y-39793026D01*
X62635603Y-39799282D01*
X62641273Y-39804333D01*
X62641274Y-39804335D01*
X62682130Y-39840736D01*
X62687406Y-39845717D01*
X67416720Y-44575031D01*
X67422574Y-44581296D01*
X67460609Y-44624896D01*
X67512889Y-44661639D01*
X67518184Y-44665572D01*
X67568452Y-44704987D01*
X67575368Y-44708110D01*
X67577654Y-44709494D01*
X67592335Y-44717868D01*
X67594695Y-44719133D01*
X67600909Y-44723501D01*
X67607988Y-44726261D01*
X67607990Y-44726262D01*
X67660445Y-44746713D01*
X67666514Y-44749264D01*
X67724743Y-44775556D01*
X67732210Y-44776940D01*
X67734765Y-44777741D01*
X67751018Y-44782370D01*
X67753598Y-44783033D01*
X67760679Y-44785793D01*
X67768210Y-44786784D01*
X67768212Y-44786785D01*
X67797831Y-44790684D01*
X67824031Y-44794133D01*
X67830529Y-44795163D01*
X67893356Y-44806807D01*
X67900936Y-44806370D01*
X67900937Y-44806370D01*
X67955562Y-44803220D01*
X67962816Y-44803011D01*
X69541577Y-44803011D01*
X69550147Y-44803303D01*
X69600265Y-44806720D01*
X69600269Y-44806720D01*
X69607841Y-44807236D01*
X69615318Y-44805931D01*
X69615319Y-44805931D01*
X69641797Y-44801310D01*
X69670792Y-44796249D01*
X69677310Y-44795288D01*
X69740731Y-44787613D01*
X69747832Y-44784930D01*
X69750441Y-44784289D01*
X69766751Y-44779826D01*
X69769287Y-44779061D01*
X69776773Y-44777754D01*
X69835289Y-44752067D01*
X69841393Y-44749576D01*
X69894037Y-44729684D01*
X69894038Y-44729683D01*
X69901145Y-44726998D01*
X69907408Y-44722694D01*
X69909774Y-44721457D01*
X69924586Y-44713212D01*
X69926840Y-44711879D01*
X69933794Y-44708826D01*
X69984491Y-44669924D01*
X69989821Y-44666052D01*
X70036209Y-44634172D01*
X70036214Y-44634167D01*
X70042470Y-44629868D01*
X70083925Y-44583340D01*
X70088905Y-44578065D01*
X70965520Y-43701450D01*
X70971785Y-43695596D01*
X71009362Y-43662815D01*
X71015385Y-43657561D01*
X71052129Y-43605280D01*
X71056061Y-43599986D01*
X71090791Y-43555693D01*
X71095476Y-43549718D01*
X71098599Y-43542802D01*
X71099983Y-43540516D01*
X71108357Y-43525835D01*
X71109622Y-43523475D01*
X71113990Y-43517261D01*
X71137203Y-43457723D01*
X71139759Y-43451642D01*
X71146222Y-43437330D01*
X71166045Y-43393427D01*
X71167429Y-43385960D01*
X71168230Y-43383405D01*
X71172859Y-43367152D01*
X71173521Y-43364572D01*
X71176282Y-43357491D01*
X71184625Y-43294119D01*
X71185653Y-43287629D01*
X71197296Y-43224813D01*
X71193877Y-43165512D01*
X71193709Y-43162607D01*
X71193500Y-43155353D01*
X71193500Y-26698927D01*
X71193792Y-26690358D01*
X71197210Y-26640225D01*
X71197210Y-26640221D01*
X71197726Y-26632648D01*
X71186736Y-26569681D01*
X71185775Y-26563165D01*
X71178102Y-26499758D01*
X71175419Y-26492657D01*
X71174778Y-26490048D01*
X71170309Y-26473715D01*
X71169548Y-26471195D01*
X71168243Y-26463717D01*
X71165191Y-26456764D01*
X71142559Y-26405204D01*
X71140068Y-26399099D01*
X71120175Y-26346456D01*
X71120173Y-26346452D01*
X71117487Y-26339344D01*
X71113184Y-26333083D01*
X71111947Y-26330717D01*
X71103720Y-26315937D01*
X71102369Y-26313652D01*
X71099315Y-26306695D01*
X71094695Y-26300675D01*
X71094692Y-26300669D01*
X71060421Y-26256009D01*
X71056541Y-26250668D01*
X71024661Y-26204280D01*
X71024656Y-26204275D01*
X71020357Y-26198019D01*
X70992021Y-26172772D01*
X70973830Y-26156565D01*
X70968554Y-26151584D01*
X70075405Y-25258435D01*
X70041379Y-25196123D01*
X70038500Y-25169340D01*
X70038500Y-23766866D01*
X70031745Y-23704684D01*
X69980615Y-23568295D01*
X69893261Y-23451739D01*
X69776705Y-23364385D01*
X69640316Y-23313255D01*
X69578134Y-23306500D01*
X67581866Y-23306500D01*
X67519684Y-23313255D01*
X67383295Y-23364385D01*
X67266739Y-23451739D01*
X67179385Y-23568295D01*
X67128255Y-23704684D01*
X67121500Y-23766866D01*
X67121500Y-25763134D01*
X67128255Y-25825316D01*
X67179385Y-25961705D01*
X67266739Y-26078261D01*
X67383295Y-26165615D01*
X67391703Y-26168767D01*
X67402386Y-26172772D01*
X67459150Y-26215414D01*
X67483850Y-26281976D01*
X67468642Y-26351324D01*
X67449253Y-26377802D01*
X67446610Y-26380568D01*
X67440126Y-26388575D01*
X67310845Y-26578094D01*
X67305756Y-26587053D01*
X67209163Y-26795145D01*
X67205606Y-26804813D01*
X67144299Y-27025879D01*
X67142366Y-27036010D01*
X67134709Y-27107653D01*
X67107581Y-27173262D01*
X67049289Y-27213790D01*
X66978339Y-27216369D01*
X66920328Y-27183358D01*
X59689936Y-19952966D01*
X67248257Y-19952966D01*
X67278565Y-20087446D01*
X67281645Y-20097275D01*
X67361770Y-20294603D01*
X67366413Y-20303794D01*
X67477694Y-20485388D01*
X67483777Y-20493699D01*
X67623213Y-20654667D01*
X67630580Y-20661883D01*
X67794434Y-20797916D01*
X67802881Y-20803831D01*
X67986756Y-20911279D01*
X67996042Y-20915729D01*
X68195001Y-20991703D01*
X68204899Y-20994579D01*
X68308250Y-21015606D01*
X68322299Y-21014410D01*
X68326000Y-21004065D01*
X68326000Y-21003517D01*
X68834000Y-21003517D01*
X68838064Y-21017359D01*
X68851478Y-21019393D01*
X68858184Y-21018534D01*
X68868262Y-21016392D01*
X69072255Y-20955191D01*
X69081842Y-20951433D01*
X69273095Y-20857739D01*
X69281945Y-20852464D01*
X69455328Y-20728792D01*
X69463200Y-20722139D01*
X69614052Y-20571812D01*
X69620730Y-20563965D01*
X69745003Y-20391020D01*
X69750313Y-20382183D01*
X69844670Y-20191267D01*
X69848469Y-20181672D01*
X69910377Y-19977910D01*
X69912555Y-19967837D01*
X69913986Y-19956962D01*
X69911775Y-19942778D01*
X69898617Y-19939000D01*
X68852115Y-19939000D01*
X68836876Y-19943475D01*
X68835671Y-19944865D01*
X68834000Y-19952548D01*
X68834000Y-21003517D01*
X68326000Y-21003517D01*
X68326000Y-19957115D01*
X68321525Y-19941876D01*
X68320135Y-19940671D01*
X68312452Y-19939000D01*
X67263225Y-19939000D01*
X67249694Y-19942973D01*
X67248257Y-19952966D01*
X59689936Y-19952966D01*
X56401450Y-16664480D01*
X56395596Y-16658215D01*
X56375318Y-16634970D01*
X56357561Y-16614615D01*
X56305280Y-16577871D01*
X56299986Y-16573939D01*
X56255693Y-16539209D01*
X56249718Y-16534524D01*
X56242802Y-16531401D01*
X56240516Y-16530017D01*
X56225835Y-16521643D01*
X56223475Y-16520378D01*
X56217261Y-16516010D01*
X56210182Y-16513250D01*
X56210180Y-16513249D01*
X56157725Y-16492798D01*
X56151649Y-16490244D01*
X56149610Y-16489323D01*
X56095768Y-16443047D01*
X56075492Y-16375008D01*
X56095219Y-16306807D01*
X56148687Y-16260098D01*
X56201491Y-16248500D01*
X64708157Y-16248500D01*
X64721764Y-16249237D01*
X64753262Y-16252659D01*
X64753267Y-16252659D01*
X64759388Y-16253324D01*
X64785638Y-16251027D01*
X64809388Y-16248950D01*
X64814214Y-16248621D01*
X64816686Y-16248500D01*
X64819769Y-16248500D01*
X64831738Y-16247326D01*
X64862506Y-16244310D01*
X64863819Y-16244188D01*
X64908084Y-16240315D01*
X64956413Y-16236087D01*
X64961532Y-16234600D01*
X64966833Y-16234080D01*
X65050639Y-16208778D01*
X65125151Y-16209298D01*
X65194306Y-16231235D01*
X65200423Y-16231921D01*
X65200427Y-16231922D01*
X65273258Y-16240091D01*
X65348227Y-16248500D01*
X66205074Y-16248500D01*
X66273195Y-16268502D01*
X66294169Y-16285404D01*
X67184595Y-17175829D01*
X67218620Y-17238142D01*
X67221500Y-17264925D01*
X67221500Y-18043134D01*
X67228255Y-18105316D01*
X67279385Y-18241705D01*
X67366739Y-18358261D01*
X67483295Y-18445615D01*
X67491704Y-18448767D01*
X67491705Y-18448768D01*
X67600960Y-18489726D01*
X67657725Y-18532367D01*
X67682425Y-18598929D01*
X67667218Y-18668278D01*
X67647825Y-18694759D01*
X67524590Y-18823717D01*
X67518104Y-18831727D01*
X67398098Y-19007649D01*
X67393000Y-19016623D01*
X67303338Y-19209783D01*
X67299775Y-19219470D01*
X67244389Y-19419183D01*
X67245912Y-19427607D01*
X67258292Y-19431000D01*
X69898344Y-19431000D01*
X69911875Y-19427027D01*
X69913180Y-19417947D01*
X69871214Y-19250875D01*
X69867894Y-19241124D01*
X69782972Y-19045814D01*
X69778105Y-19036739D01*
X69662426Y-18857926D01*
X69656136Y-18849757D01*
X69512293Y-18691677D01*
X69481241Y-18627831D01*
X69489635Y-18557333D01*
X69534812Y-18502564D01*
X69561256Y-18488895D01*
X69668297Y-18448767D01*
X69676705Y-18445615D01*
X69793261Y-18358261D01*
X69880615Y-18241705D01*
X69931745Y-18105316D01*
X69938500Y-18043134D01*
X69938500Y-16246866D01*
X69931745Y-16184684D01*
X69880615Y-16048295D01*
X69793261Y-15931739D01*
X69676705Y-15844385D01*
X69540316Y-15793255D01*
X69478134Y-15786500D01*
X68699924Y-15786500D01*
X68631803Y-15766498D01*
X68610829Y-15749595D01*
X67431855Y-14570621D01*
X67422753Y-14560478D01*
X67402897Y-14535782D01*
X67399032Y-14530975D01*
X67360578Y-14498708D01*
X67356931Y-14495528D01*
X67355119Y-14493885D01*
X67352925Y-14491691D01*
X67319651Y-14464358D01*
X67318853Y-14463696D01*
X67247526Y-14403846D01*
X67244092Y-14401958D01*
X67239331Y-14398383D01*
X67238738Y-14397896D01*
X67239974Y-14396391D01*
X67200261Y-14348803D01*
X67191464Y-14278354D01*
X67226732Y-14209503D01*
X68058309Y-13377926D01*
X68152102Y-13263739D01*
X68232431Y-13113927D01*
X68242649Y-13094870D01*
X68242650Y-13094869D01*
X68245562Y-13089437D01*
X68303387Y-12900302D01*
X68309808Y-12837092D01*
X68322752Y-12709666D01*
X68322752Y-12709661D01*
X68323374Y-12703538D01*
X68305942Y-12519128D01*
X68305341Y-12512771D01*
X68305341Y-12512769D01*
X68304761Y-12506638D01*
X68271004Y-12393401D01*
X68250019Y-12323007D01*
X68250018Y-12323005D01*
X68248259Y-12317104D01*
X68156018Y-12142154D01*
X68146736Y-12130691D01*
X68035432Y-11993243D01*
X68035431Y-11993242D01*
X68031553Y-11988453D01*
X67990915Y-11954595D01*
X67884335Y-11865795D01*
X67884330Y-11865792D01*
X67879604Y-11861854D01*
X67858061Y-11850108D01*
X67775879Y-11805301D01*
X67705959Y-11767179D01*
X67517231Y-11708036D01*
X67511108Y-11707371D01*
X67511104Y-11707370D01*
X67326736Y-11687341D01*
X67326732Y-11687341D01*
X67320611Y-11686676D01*
X67123587Y-11703913D01*
X67117670Y-11705632D01*
X67117665Y-11705633D01*
X66989433Y-11742889D01*
X66933663Y-11759092D01*
X66758074Y-11850108D01*
X66637027Y-11946739D01*
X64389171Y-14194595D01*
X64326859Y-14228621D01*
X64300076Y-14231500D01*
X48210231Y-14231500D01*
X48207175Y-14231800D01*
X48207168Y-14231800D01*
X48148660Y-14237537D01*
X48063167Y-14245920D01*
X48057266Y-14247702D01*
X48057264Y-14247702D01*
X47983947Y-14269838D01*
X47873831Y-14303084D01*
X47699204Y-14395934D01*
X47616174Y-14463652D01*
X47550713Y-14517040D01*
X47550710Y-14517043D01*
X47545938Y-14520935D01*
X47542011Y-14525682D01*
X47542009Y-14525684D01*
X47423799Y-14668575D01*
X47423797Y-14668579D01*
X47419870Y-14673325D01*
X47325802Y-14847299D01*
X47267318Y-15036232D01*
X47246645Y-15232925D01*
X47264570Y-15429888D01*
X47266308Y-15435794D01*
X47266309Y-15435798D01*
X47283482Y-15494147D01*
X47320410Y-15619619D01*
X47412040Y-15794890D01*
X47535968Y-15949025D01*
X47687474Y-16076154D01*
X47692872Y-16079121D01*
X47692877Y-16079125D01*
X47836180Y-16157905D01*
X47860787Y-16171433D01*
X47866654Y-16173294D01*
X47866656Y-16173295D01*
X47920572Y-16190398D01*
X47979456Y-16230062D01*
X48007548Y-16295264D01*
X47995930Y-16365303D01*
X47948291Y-16417943D01*
X47882473Y-16436500D01*
X37574660Y-16436500D01*
X37506539Y-16416498D01*
X37460046Y-16362842D01*
X37449942Y-16292568D01*
X37479436Y-16227988D01*
X37485565Y-16221405D01*
X38791979Y-14914992D01*
X40261566Y-13445405D01*
X40323878Y-13411379D01*
X40350661Y-13408500D01*
X64126088Y-13408500D01*
X64134658Y-13408792D01*
X64184776Y-13412209D01*
X64184780Y-13412209D01*
X64192352Y-13412725D01*
X64199829Y-13411420D01*
X64199830Y-13411420D01*
X64229458Y-13406249D01*
X64255303Y-13401738D01*
X64261821Y-13400777D01*
X64325242Y-13393102D01*
X64332343Y-13390419D01*
X64334952Y-13389778D01*
X64351262Y-13385315D01*
X64353798Y-13384550D01*
X64361284Y-13383243D01*
X64419800Y-13357556D01*
X64425904Y-13355065D01*
X64426794Y-13354729D01*
X64473371Y-13337129D01*
X64478548Y-13335173D01*
X64478549Y-13335172D01*
X64485656Y-13332487D01*
X64491919Y-13328183D01*
X64494285Y-13326946D01*
X64509097Y-13318701D01*
X64511351Y-13317368D01*
X64518305Y-13314315D01*
X64569002Y-13275413D01*
X64574332Y-13271541D01*
X64620720Y-13239661D01*
X64620725Y-13239656D01*
X64626981Y-13235357D01*
X64638232Y-13222730D01*
X64668435Y-13188830D01*
X64673416Y-13183554D01*
X67118071Y-10738900D01*
X69016358Y-10738900D01*
X69019661Y-10743560D01*
X69213399Y-10856771D01*
X69222686Y-10861221D01*
X69437006Y-10943062D01*
X69446908Y-10945939D01*
X69671699Y-10991673D01*
X69681951Y-10992896D01*
X69911202Y-11001302D01*
X69921488Y-11000835D01*
X70149043Y-10971684D01*
X70159129Y-10969541D01*
X70378864Y-10903617D01*
X70388459Y-10899856D01*
X70594466Y-10798935D01*
X70603332Y-10793650D01*
X70670945Y-10745421D01*
X70679346Y-10734721D01*
X70672358Y-10721568D01*
X69862812Y-9912022D01*
X69848868Y-9904408D01*
X69847035Y-9904539D01*
X69840420Y-9908790D01*
X69023635Y-10725575D01*
X69016358Y-10738900D01*
X67118071Y-10738900D01*
X68187445Y-9669526D01*
X68249757Y-9635500D01*
X68320573Y-9640565D01*
X68377408Y-9683112D01*
X68401313Y-9741079D01*
X68402378Y-9748658D01*
X68452810Y-9972442D01*
X68455898Y-9982295D01*
X68542204Y-10194840D01*
X68546852Y-10204041D01*
X68643736Y-10362143D01*
X68654192Y-10371604D01*
X68662970Y-10367820D01*
X70674590Y-8356200D01*
X70682204Y-8342256D01*
X70681756Y-8335990D01*
X70663134Y-8284018D01*
X70679122Y-8214845D01*
X70715750Y-8174078D01*
X70790421Y-8120816D01*
X70790428Y-8120810D01*
X70794627Y-8117815D01*
X70964511Y-7948523D01*
X70976780Y-7931449D01*
X71015332Y-7877798D01*
X71071327Y-7834150D01*
X71142030Y-7827704D01*
X71204995Y-7860507D01*
X71212873Y-7868806D01*
X71366043Y-8045630D01*
X71521109Y-8174368D01*
X71560742Y-8233268D01*
X71562240Y-8304249D01*
X71525126Y-8364772D01*
X71516276Y-8372069D01*
X71514308Y-8373547D01*
X71426190Y-8439708D01*
X71418345Y-8445598D01*
X71414773Y-8449336D01*
X71264930Y-8606138D01*
X71252648Y-8618990D01*
X71216188Y-8672439D01*
X71161277Y-8717441D01*
X71090752Y-8725612D01*
X71059222Y-8710745D01*
X71046317Y-8708929D01*
X71035132Y-8714078D01*
X70222022Y-9527188D01*
X70214408Y-9541132D01*
X70214539Y-9542965D01*
X70218790Y-9549580D01*
X71032130Y-10362920D01*
X71046074Y-10370534D01*
X71055495Y-10369861D01*
X71097927Y-10353562D01*
X71167445Y-10367976D01*
X71208597Y-10403670D01*
X71209014Y-10404351D01*
X71212397Y-10408256D01*
X71212401Y-10408262D01*
X71271916Y-10476967D01*
X71366043Y-10585630D01*
X71488812Y-10687555D01*
X71537994Y-10728386D01*
X71550571Y-10738828D01*
X71757643Y-10859831D01*
X71762466Y-10861673D01*
X71762475Y-10861677D01*
X71764976Y-10862632D01*
X71765839Y-10863289D01*
X71767138Y-10863911D01*
X71767009Y-10864179D01*
X71821476Y-10905622D01*
X71845766Y-10972335D01*
X71846020Y-10980339D01*
X71846020Y-43165512D01*
X71826018Y-43233633D01*
X71809115Y-43254607D01*
X69174616Y-45889106D01*
X69112304Y-45923132D01*
X69085521Y-45926011D01*
X55899399Y-45926011D01*
X55831278Y-45906009D01*
X55784785Y-45852353D01*
X55774681Y-45782079D01*
X55804175Y-45717499D01*
X55824726Y-45700348D01*
X55823934Y-45699316D01*
X55841482Y-45685850D01*
X55874632Y-45660413D01*
X55879962Y-45656541D01*
X55926350Y-45624661D01*
X55926355Y-45624656D01*
X55932611Y-45620357D01*
X55974066Y-45573829D01*
X55979046Y-45568554D01*
X60400031Y-41147569D01*
X60406296Y-41141715D01*
X60420703Y-41129147D01*
X60449896Y-41103680D01*
X60486640Y-41051399D01*
X60490572Y-41046105D01*
X60525302Y-41001812D01*
X60529987Y-40995837D01*
X60533110Y-40988921D01*
X60534494Y-40986635D01*
X60542868Y-40971954D01*
X60544133Y-40969594D01*
X60548501Y-40963380D01*
X60553981Y-40949326D01*
X60571713Y-40903844D01*
X60574270Y-40897761D01*
X60585334Y-40873259D01*
X60600556Y-40839546D01*
X60601940Y-40832079D01*
X60602741Y-40829524D01*
X60607370Y-40813271D01*
X60608033Y-40810691D01*
X60610793Y-40803610D01*
X60619133Y-40740258D01*
X60620164Y-40733751D01*
X60623918Y-40713500D01*
X60631807Y-40670933D01*
X60631181Y-40660067D01*
X60628220Y-40608727D01*
X60628011Y-40601473D01*
X60628011Y-38993438D01*
X60628303Y-38984869D01*
X60631721Y-38934736D01*
X60631721Y-38934732D01*
X60632237Y-38927159D01*
X60621247Y-38864192D01*
X60620286Y-38857676D01*
X60617092Y-38831285D01*
X60612613Y-38794269D01*
X60609930Y-38787168D01*
X60609289Y-38784559D01*
X60604820Y-38768226D01*
X60604059Y-38765706D01*
X60602754Y-38758228D01*
X60593482Y-38737105D01*
X60577070Y-38699715D01*
X60574579Y-38693610D01*
X60554686Y-38640967D01*
X60554684Y-38640963D01*
X60551998Y-38633855D01*
X60547695Y-38627594D01*
X60546458Y-38625228D01*
X60538231Y-38610448D01*
X60536880Y-38608163D01*
X60533826Y-38601206D01*
X60529206Y-38595186D01*
X60529203Y-38595180D01*
X60494932Y-38550520D01*
X60491052Y-38545179D01*
X60459172Y-38498791D01*
X60459167Y-38498786D01*
X60454868Y-38492530D01*
X60442169Y-38481215D01*
X60409979Y-38452535D01*
X60408340Y-38451075D01*
X60403065Y-38446095D01*
X59835270Y-37878300D01*
X59801244Y-37815988D01*
X59801212Y-37764316D01*
X59801408Y-37763671D01*
X59802167Y-37757910D01*
X59831203Y-37537359D01*
X59831640Y-37534041D01*
X59833327Y-37465000D01*
X59817065Y-37267198D01*
X59814773Y-37239318D01*
X59814772Y-37239312D01*
X59814349Y-37234167D01*
X59768806Y-37052852D01*
X59759184Y-37014544D01*
X59759183Y-37014540D01*
X59757925Y-37009533D01*
X59755866Y-37004797D01*
X59667630Y-36801868D01*
X59667628Y-36801865D01*
X59665570Y-36797131D01*
X59539764Y-36602665D01*
X59383887Y-36431358D01*
X59379836Y-36428159D01*
X59379832Y-36428155D01*
X59206669Y-36291400D01*
X59165606Y-36233483D01*
X59162374Y-36162560D01*
X59197999Y-36101148D01*
X59203487Y-36096623D01*
X59213497Y-36083874D01*
X59206510Y-36070721D01*
X58432811Y-35297021D01*
X58418868Y-35289408D01*
X58417034Y-35289539D01*
X58410420Y-35293790D01*
X57630180Y-36074031D01*
X57623423Y-36086406D01*
X57642730Y-36112197D01*
X57642040Y-36112713D01*
X57666627Y-36138737D01*
X57679743Y-36208511D01*
X57653055Y-36274300D01*
X57630023Y-36296719D01*
X57509791Y-36386992D01*
X57481655Y-36408117D01*
X57321639Y-36575564D01*
X57318725Y-36579836D01*
X57318724Y-36579837D01*
X57303152Y-36602665D01*
X57191119Y-36766899D01*
X57093602Y-36976981D01*
X57031707Y-37200169D01*
X57007095Y-37430469D01*
X57007392Y-37435622D01*
X57007392Y-37435625D01*
X57013067Y-37534041D01*
X57020427Y-37661697D01*
X57021564Y-37666743D01*
X57021565Y-37666749D01*
X57043408Y-37763671D01*
X57071346Y-37887642D01*
X57073288Y-37892424D01*
X57073289Y-37892428D01*
X57150995Y-38083794D01*
X57158484Y-38102237D01*
X57279501Y-38299719D01*
X57431147Y-38474784D01*
X57609349Y-38622730D01*
X57613819Y-38625342D01*
X57617511Y-38627500D01*
X57666232Y-38679140D01*
X57679301Y-38748924D01*
X57652566Y-38814694D01*
X57629589Y-38837045D01*
X57499477Y-38934736D01*
X57481655Y-38948117D01*
X57478083Y-38951855D01*
X57326686Y-39110283D01*
X57321639Y-39115564D01*
X57191119Y-39306899D01*
X57093602Y-39516981D01*
X57031707Y-39740169D01*
X57007095Y-39970469D01*
X57020427Y-40201697D01*
X57033955Y-40261726D01*
X57042116Y-40297941D01*
X57037580Y-40368793D01*
X57008294Y-40414736D01*
X55623435Y-41799595D01*
X55561123Y-41833621D01*
X55534340Y-41836500D01*
X36907394Y-41836500D01*
X36839273Y-41816498D01*
X36801602Y-41778940D01*
X36722325Y-41656396D01*
X36722323Y-41656393D01*
X36719515Y-41652053D01*
X36690580Y-41620253D01*
X36561582Y-41478487D01*
X36561580Y-41478486D01*
X36558104Y-41474665D01*
X36554053Y-41471466D01*
X36554049Y-41471462D01*
X36373946Y-41329226D01*
X36369888Y-41326021D01*
X36159922Y-41210113D01*
X36036743Y-41166493D01*
X35938720Y-41131781D01*
X35938716Y-41131780D01*
X35933845Y-41130055D01*
X35928752Y-41129148D01*
X35928749Y-41129147D01*
X35702816Y-41088902D01*
X35702810Y-41088901D01*
X35697727Y-41087996D01*
X35610460Y-41086930D01*
X35463081Y-41085129D01*
X35463079Y-41085129D01*
X35457911Y-41085066D01*
X35220837Y-41121343D01*
X34992871Y-41195854D01*
X34780136Y-41306597D01*
X34776003Y-41309700D01*
X34776000Y-41309702D01*
X34670997Y-41388541D01*
X34588345Y-41450598D01*
X34422648Y-41623990D01*
X34287495Y-41822117D01*
X34186516Y-42039656D01*
X34122424Y-42270768D01*
X34096938Y-42509244D01*
X34110744Y-42748680D01*
X34163470Y-42982646D01*
X34165419Y-42987445D01*
X34235074Y-43158983D01*
X34253702Y-43204859D01*
X34379014Y-43409351D01*
X34536043Y-43590630D01*
X34691109Y-43719368D01*
X34730742Y-43778268D01*
X34732240Y-43849249D01*
X34695126Y-43909772D01*
X34686275Y-43917070D01*
X34596551Y-43984437D01*
X34588345Y-43990598D01*
X34422648Y-44163990D01*
X34287495Y-44362117D01*
X34186516Y-44579656D01*
X34148187Y-44717868D01*
X34130685Y-44780981D01*
X34122424Y-44810768D01*
X34121876Y-44815900D01*
X34114256Y-44887198D01*
X34087128Y-44952808D01*
X34028836Y-44993336D01*
X33957886Y-44995915D01*
X33899874Y-44962904D01*
X33541450Y-44604480D01*
X33535596Y-44598215D01*
X33515318Y-44574970D01*
X33497561Y-44554615D01*
X33445280Y-44517871D01*
X33439986Y-44513939D01*
X33395693Y-44479209D01*
X33389718Y-44474524D01*
X33382802Y-44471401D01*
X33380516Y-44470017D01*
X33365835Y-44461643D01*
X33363475Y-44460378D01*
X33357261Y-44456010D01*
X33350182Y-44453250D01*
X33350180Y-44453249D01*
X33297725Y-44432798D01*
X33291656Y-44430247D01*
X33233427Y-44403955D01*
X33225960Y-44402571D01*
X33223405Y-44401770D01*
X33207152Y-44397141D01*
X33204572Y-44396478D01*
X33197491Y-44393718D01*
X33189960Y-44392727D01*
X33189958Y-44392726D01*
X33160339Y-44388827D01*
X33134139Y-44385378D01*
X33127641Y-44384348D01*
X33064814Y-44372704D01*
X33057234Y-44373141D01*
X33057233Y-44373141D01*
X33002608Y-44376291D01*
X32995354Y-44376500D01*
X29524500Y-44376500D01*
X29456379Y-44356498D01*
X29409886Y-44302842D01*
X29398500Y-44250500D01*
X29398500Y-44086866D01*
X29391745Y-44024684D01*
X29340615Y-43888295D01*
X29253261Y-43771739D01*
X29136705Y-43684385D01*
X29128296Y-43681233D01*
X29128293Y-43681231D01*
X29118083Y-43677403D01*
X29061319Y-43634761D01*
X29036620Y-43568199D01*
X29051828Y-43498851D01*
X29059987Y-43485902D01*
X29194463Y-43298758D01*
X29199964Y-43287629D01*
X29298433Y-43088392D01*
X29298434Y-43088390D01*
X29300727Y-43083750D01*
X29370447Y-42854274D01*
X29401752Y-42616492D01*
X29403499Y-42545000D01*
X29397001Y-42465970D01*
X29384271Y-42311124D01*
X29384270Y-42311118D01*
X29383847Y-42305973D01*
X29354634Y-42189669D01*
X29326679Y-42078375D01*
X29326678Y-42078371D01*
X29325420Y-42073364D01*
X29323364Y-42068634D01*
X29323361Y-42068627D01*
X29231847Y-41858159D01*
X29231845Y-41858156D01*
X29229787Y-41853422D01*
X29212574Y-41826814D01*
X29102325Y-41656396D01*
X29102323Y-41656393D01*
X29099515Y-41652053D01*
X29070580Y-41620253D01*
X28941582Y-41478487D01*
X28941580Y-41478486D01*
X28938104Y-41474665D01*
X28934053Y-41471466D01*
X28934049Y-41471462D01*
X28810333Y-41373757D01*
X28769270Y-41315840D01*
X28766038Y-41244917D01*
X28801664Y-41183505D01*
X28815257Y-41172296D01*
X28880423Y-41125814D01*
X28880425Y-41125812D01*
X28884627Y-41122815D01*
X29054511Y-40953523D01*
X29112186Y-40873259D01*
X29189278Y-40765974D01*
X29245273Y-40722326D01*
X29291601Y-40713500D01*
X37885500Y-40713500D01*
X37953621Y-40733502D01*
X38000114Y-40787158D01*
X38011500Y-40839500D01*
X38011500Y-40903134D01*
X38018255Y-40965316D01*
X38069385Y-41101705D01*
X38156739Y-41218261D01*
X38273295Y-41305615D01*
X38409684Y-41356745D01*
X38471866Y-41363500D01*
X40268134Y-41363500D01*
X40330316Y-41356745D01*
X40466705Y-41305615D01*
X40583261Y-41218261D01*
X40670615Y-41101705D01*
X40721745Y-40965316D01*
X40728500Y-40903134D01*
X40728500Y-39346521D01*
X51871358Y-39346521D01*
X51874661Y-39351181D01*
X52068399Y-39464392D01*
X52077686Y-39468842D01*
X52292006Y-39550683D01*
X52301908Y-39553560D01*
X52526699Y-39599294D01*
X52536951Y-39600517D01*
X52766202Y-39608923D01*
X52776488Y-39608456D01*
X53004043Y-39579305D01*
X53014129Y-39577162D01*
X53233864Y-39511238D01*
X53243459Y-39507477D01*
X53449466Y-39406556D01*
X53458332Y-39401271D01*
X53525945Y-39353042D01*
X53534346Y-39342342D01*
X53527358Y-39329189D01*
X52717812Y-38519643D01*
X52703868Y-38512029D01*
X52702035Y-38512160D01*
X52695420Y-38516411D01*
X51878635Y-39333196D01*
X51871358Y-39346521D01*
X40728500Y-39346521D01*
X40728500Y-39106866D01*
X40721745Y-39044684D01*
X40670615Y-38908295D01*
X40583261Y-38791739D01*
X40466705Y-38704385D01*
X40430539Y-38690827D01*
X40347687Y-38659767D01*
X40290923Y-38617125D01*
X40266223Y-38550564D01*
X40281430Y-38481215D01*
X40302977Y-38452535D01*
X40404052Y-38351812D01*
X40410730Y-38343965D01*
X40535003Y-38171020D01*
X40540313Y-38162183D01*
X40634670Y-37971267D01*
X40638469Y-37961672D01*
X40700377Y-37757910D01*
X40702555Y-37747837D01*
X40703986Y-37736962D01*
X40701775Y-37722778D01*
X40688617Y-37719000D01*
X38053225Y-37719000D01*
X38039694Y-37722973D01*
X38038257Y-37732966D01*
X38068565Y-37867446D01*
X38071645Y-37877275D01*
X38151770Y-38074603D01*
X38156413Y-38083794D01*
X38267694Y-38265388D01*
X38273777Y-38273699D01*
X38413213Y-38434667D01*
X38420577Y-38441879D01*
X38425522Y-38445985D01*
X38465156Y-38504889D01*
X38466653Y-38575870D01*
X38429537Y-38636392D01*
X38389264Y-38660910D01*
X38281705Y-38701232D01*
X38281704Y-38701233D01*
X38273295Y-38704385D01*
X38156739Y-38791739D01*
X38069385Y-38908295D01*
X38018255Y-39044684D01*
X38011500Y-39106866D01*
X38011500Y-39170500D01*
X37991498Y-39238621D01*
X37937842Y-39285114D01*
X37885500Y-39296500D01*
X29287394Y-39296500D01*
X29219273Y-39276498D01*
X29181602Y-39238940D01*
X29102325Y-39116396D01*
X29102323Y-39116393D01*
X29099515Y-39112053D01*
X29094796Y-39106866D01*
X28941582Y-38938487D01*
X28941580Y-38938486D01*
X28938104Y-38934665D01*
X28934053Y-38931466D01*
X28934049Y-38931462D01*
X28753946Y-38789226D01*
X28749888Y-38786021D01*
X28539922Y-38670113D01*
X28416743Y-38626493D01*
X28318720Y-38591781D01*
X28318716Y-38591780D01*
X28313845Y-38590055D01*
X28308752Y-38589148D01*
X28308749Y-38589147D01*
X28082816Y-38548902D01*
X28082810Y-38548901D01*
X28077727Y-38547996D01*
X27990460Y-38546930D01*
X27843081Y-38545129D01*
X27843079Y-38545129D01*
X27837911Y-38545066D01*
X27600837Y-38581343D01*
X27372871Y-38655854D01*
X27368279Y-38658244D01*
X27368280Y-38658244D01*
X27176213Y-38758228D01*
X27160136Y-38766597D01*
X27156003Y-38769700D01*
X27156000Y-38769702D01*
X26972480Y-38907493D01*
X26968345Y-38910598D01*
X26802648Y-39083990D01*
X26667495Y-39282117D01*
X26566516Y-39499656D01*
X26502424Y-39730768D01*
X26476938Y-39969244D01*
X26490744Y-40208680D01*
X26491879Y-40213717D01*
X26491880Y-40213723D01*
X26537180Y-40414736D01*
X26543470Y-40442646D01*
X26633702Y-40664859D01*
X26759014Y-40869351D01*
X26762398Y-40873257D01*
X26762399Y-40873259D01*
X26785318Y-40899717D01*
X26916043Y-41050630D01*
X27071109Y-41179368D01*
X27110742Y-41238268D01*
X27112240Y-41309249D01*
X27075126Y-41369772D01*
X27066276Y-41377069D01*
X26968345Y-41450598D01*
X26802648Y-41623990D01*
X26799734Y-41628262D01*
X26799733Y-41628263D01*
X26695199Y-41781504D01*
X26640288Y-41826507D01*
X26591111Y-41836500D01*
X17490660Y-41836500D01*
X17422539Y-41816498D01*
X17401565Y-41799595D01*
X13445405Y-37843435D01*
X13411379Y-37781123D01*
X13408500Y-37754340D01*
X13408500Y-37199183D01*
X38034389Y-37199183D01*
X38035912Y-37207607D01*
X38048292Y-37211000D01*
X39097885Y-37211000D01*
X39113124Y-37206525D01*
X39114329Y-37205135D01*
X39116000Y-37197452D01*
X39116000Y-37192885D01*
X39624000Y-37192885D01*
X39628475Y-37208124D01*
X39629865Y-37209329D01*
X39637548Y-37211000D01*
X40688344Y-37211000D01*
X40701875Y-37207027D01*
X40703180Y-37197947D01*
X40661214Y-37030875D01*
X40657894Y-37021124D01*
X40572972Y-36825814D01*
X40568105Y-36816739D01*
X40452426Y-36637926D01*
X40446136Y-36629757D01*
X40302806Y-36472240D01*
X40295273Y-36465215D01*
X40128139Y-36333222D01*
X40119552Y-36327517D01*
X39933117Y-36224599D01*
X39923705Y-36220369D01*
X39722959Y-36149280D01*
X39712988Y-36146646D01*
X39641837Y-36133972D01*
X39628540Y-36135432D01*
X39624000Y-36149989D01*
X39624000Y-37192885D01*
X39116000Y-37192885D01*
X39116000Y-36148102D01*
X39112082Y-36134758D01*
X39097806Y-36132771D01*
X39059324Y-36138660D01*
X39049288Y-36141051D01*
X38846868Y-36207212D01*
X38837359Y-36211209D01*
X38648463Y-36309542D01*
X38639738Y-36315036D01*
X38469433Y-36442905D01*
X38461726Y-36449748D01*
X38314590Y-36603717D01*
X38308104Y-36611727D01*
X38188098Y-36787649D01*
X38183000Y-36796623D01*
X38093338Y-36989783D01*
X38089775Y-36999470D01*
X38034389Y-37199183D01*
X13408500Y-37199183D01*
X13408500Y-31098744D01*
X13428502Y-31030623D01*
X13432564Y-31024683D01*
X13434621Y-31021852D01*
X13439040Y-31016944D01*
X13442342Y-31011225D01*
X13531223Y-30857279D01*
X13531224Y-30857278D01*
X13534527Y-30851556D01*
X13593542Y-30669928D01*
X13613504Y-30480000D01*
X13602848Y-30378611D01*
X13594232Y-30296635D01*
X13594232Y-30296633D01*
X13593542Y-30290072D01*
X13534527Y-30108444D01*
X13439040Y-29943056D01*
X13430972Y-29934095D01*
X13315675Y-29806045D01*
X13315674Y-29806044D01*
X13311253Y-29801134D01*
X13156752Y-29688882D01*
X13150724Y-29686198D01*
X13150722Y-29686197D01*
X12988319Y-29613891D01*
X12988318Y-29613891D01*
X12982288Y-29611206D01*
X12888888Y-29591353D01*
X12801944Y-29572872D01*
X12801939Y-29572872D01*
X12795487Y-29571500D01*
X12604513Y-29571500D01*
X12598061Y-29572872D01*
X12598056Y-29572872D01*
X12511112Y-29591353D01*
X12417712Y-29611206D01*
X12411682Y-29613891D01*
X12411681Y-29613891D01*
X12249278Y-29686197D01*
X12249276Y-29686198D01*
X12243248Y-29688882D01*
X12088747Y-29801134D01*
X12084326Y-29806044D01*
X12084325Y-29806045D01*
X11969029Y-29934095D01*
X11960960Y-29943056D01*
X11865473Y-30108444D01*
X11806458Y-30290072D01*
X11805768Y-30296633D01*
X11805768Y-30296635D01*
X11797152Y-30378611D01*
X11786496Y-30480000D01*
X11806458Y-30669928D01*
X11865473Y-30851556D01*
X11868776Y-30857278D01*
X11868777Y-30857279D01*
X11957658Y-31011225D01*
X11960960Y-31016944D01*
X11965379Y-31021852D01*
X11967436Y-31024683D01*
X11991295Y-31091551D01*
X11991500Y-31098744D01*
X11991500Y-38071088D01*
X11991208Y-38079658D01*
X11989362Y-38106744D01*
X11987275Y-38137352D01*
X11988580Y-38144829D01*
X11988580Y-38144830D01*
X11998261Y-38200299D01*
X11999223Y-38206821D01*
X12006898Y-38270242D01*
X12009581Y-38277343D01*
X12010222Y-38279952D01*
X12014685Y-38296262D01*
X12015450Y-38298798D01*
X12016757Y-38306284D01*
X12019811Y-38313241D01*
X12042442Y-38364795D01*
X12044933Y-38370899D01*
X12067513Y-38430656D01*
X12071817Y-38436919D01*
X12073054Y-38439285D01*
X12081299Y-38454097D01*
X12082632Y-38456351D01*
X12085685Y-38463305D01*
X12117595Y-38504889D01*
X12124579Y-38513991D01*
X12128459Y-38519332D01*
X12160339Y-38565720D01*
X12160344Y-38565725D01*
X12164643Y-38571981D01*
X12170313Y-38577032D01*
X12170314Y-38577034D01*
X12211170Y-38613435D01*
X12216446Y-38618416D01*
X16623557Y-43025528D01*
X16629411Y-43031793D01*
X16667439Y-43075385D01*
X16719729Y-43112136D01*
X16724971Y-43116028D01*
X16775282Y-43155476D01*
X16782201Y-43158600D01*
X16784493Y-43159988D01*
X16799165Y-43168357D01*
X16801525Y-43169622D01*
X16807739Y-43173990D01*
X16814818Y-43176750D01*
X16814820Y-43176751D01*
X16867275Y-43197202D01*
X16873344Y-43199753D01*
X16931573Y-43226045D01*
X16939046Y-43227430D01*
X16941612Y-43228234D01*
X16957835Y-43232855D01*
X16960427Y-43233520D01*
X16967509Y-43236282D01*
X16975044Y-43237274D01*
X17030861Y-43244622D01*
X17037377Y-43245654D01*
X17075770Y-43252770D01*
X17100186Y-43257295D01*
X17107766Y-43256858D01*
X17107767Y-43256858D01*
X17162380Y-43253709D01*
X17169633Y-43253500D01*
X26592945Y-43253500D01*
X26661066Y-43273502D01*
X26700378Y-43313666D01*
X26756312Y-43404943D01*
X26756317Y-43404950D01*
X26759014Y-43409351D01*
X26816416Y-43475618D01*
X26845898Y-43540201D01*
X26835784Y-43610473D01*
X26789282Y-43664121D01*
X26765408Y-43676095D01*
X26761919Y-43677403D01*
X26743295Y-43684385D01*
X26626739Y-43771739D01*
X26539385Y-43888295D01*
X26488255Y-44024684D01*
X26481500Y-44086866D01*
X26481500Y-46083134D01*
X26488255Y-46145316D01*
X26539385Y-46281705D01*
X26626739Y-46398261D01*
X26743295Y-46485615D01*
X26879684Y-46536745D01*
X26941866Y-46543500D01*
X28938134Y-46543500D01*
X29000316Y-46536745D01*
X29136705Y-46485615D01*
X29253261Y-46398261D01*
X29340615Y-46281705D01*
X29391745Y-46145316D01*
X29398500Y-46083134D01*
X29398500Y-45919500D01*
X29418502Y-45851379D01*
X29472158Y-45804886D01*
X29524500Y-45793500D01*
X32674340Y-45793500D01*
X32742461Y-45813502D01*
X32763435Y-45830405D01*
X34048068Y-47115039D01*
X34053922Y-47121304D01*
X34091950Y-47164896D01*
X34144240Y-47201647D01*
X34149482Y-47205539D01*
X34199793Y-47244987D01*
X34206712Y-47248111D01*
X34209004Y-47249499D01*
X34223676Y-47257868D01*
X34226036Y-47259133D01*
X34232250Y-47263501D01*
X34239329Y-47266261D01*
X34239331Y-47266262D01*
X34291786Y-47286713D01*
X34297855Y-47289264D01*
X34356084Y-47315556D01*
X34363557Y-47316941D01*
X34366123Y-47317745D01*
X34382346Y-47322366D01*
X34384938Y-47323031D01*
X34392020Y-47325793D01*
X34399555Y-47326785D01*
X34455372Y-47334133D01*
X34461888Y-47335165D01*
X34500281Y-47342281D01*
X34524697Y-47346806D01*
X34532277Y-47346369D01*
X34532278Y-47346369D01*
X34586891Y-47343220D01*
X34594144Y-47343011D01*
X69402269Y-47343011D01*
X69410839Y-47343303D01*
X69460957Y-47346720D01*
X69460961Y-47346720D01*
X69468533Y-47347236D01*
X69476010Y-47345931D01*
X69476011Y-47345931D01*
X69502489Y-47341310D01*
X69531484Y-47336249D01*
X69538002Y-47335288D01*
X69601423Y-47327613D01*
X69608524Y-47324930D01*
X69611133Y-47324289D01*
X69627443Y-47319826D01*
X69629979Y-47319061D01*
X69637465Y-47317754D01*
X69695981Y-47292067D01*
X69702085Y-47289576D01*
X69754729Y-47269684D01*
X69754730Y-47269683D01*
X69761837Y-47266998D01*
X69768100Y-47262694D01*
X69770466Y-47261457D01*
X69785278Y-47253212D01*
X69787532Y-47251879D01*
X69794486Y-47248826D01*
X69845183Y-47209924D01*
X69850513Y-47206052D01*
X69896901Y-47174172D01*
X69896906Y-47174167D01*
X69903162Y-47169868D01*
X69944617Y-47123340D01*
X69949597Y-47118065D01*
X73083226Y-43984437D01*
X73085913Y-43981750D01*
X73164996Y-43880890D01*
X73235565Y-43724599D01*
X73237846Y-43712296D01*
X73265431Y-43563453D01*
X73266815Y-43555986D01*
X73263424Y-43497171D01*
X73260835Y-43452268D01*
X73261704Y-43428572D01*
X73262481Y-43422666D01*
X73262481Y-43422662D01*
X73263020Y-43418570D01*
X73263020Y-20184795D01*
X73283022Y-20116674D01*
X73336678Y-20070181D01*
X73406952Y-20060077D01*
X73471532Y-20089571D01*
X73498138Y-20121794D01*
X73555960Y-20221944D01*
X73560378Y-20226851D01*
X73560379Y-20226852D01*
X73678441Y-20357973D01*
X73683747Y-20363866D01*
X73737598Y-20402991D01*
X73800789Y-20448902D01*
X73838248Y-20476118D01*
X73844276Y-20478802D01*
X73844278Y-20478803D01*
X74006681Y-20551109D01*
X74012712Y-20553794D01*
X74097480Y-20571812D01*
X74193056Y-20592128D01*
X74193061Y-20592128D01*
X74199513Y-20593500D01*
X74390487Y-20593500D01*
X74396939Y-20592128D01*
X74396944Y-20592128D01*
X74492520Y-20571812D01*
X74577288Y-20553794D01*
X74583319Y-20551109D01*
X74745722Y-20478803D01*
X74745724Y-20478802D01*
X74751752Y-20476118D01*
X74789212Y-20448902D01*
X74852402Y-20402991D01*
X74906253Y-20363866D01*
X74911559Y-20357973D01*
X75029621Y-20226852D01*
X75029622Y-20226851D01*
X75034040Y-20221944D01*
X75129527Y-20056556D01*
X75188542Y-19874928D01*
X75208504Y-19685000D01*
X75192873Y-19536278D01*
X75189232Y-19501635D01*
X75189232Y-19501633D01*
X75188542Y-19495072D01*
X75129527Y-19313444D01*
X75120148Y-19297198D01*
X75037342Y-19153775D01*
X75037341Y-19153774D01*
X75034040Y-19148056D01*
X75029621Y-19143148D01*
X75027564Y-19140317D01*
X75003705Y-19073449D01*
X75003500Y-19066256D01*
X75003500Y-8928927D01*
X75003792Y-8920358D01*
X75007210Y-8870225D01*
X75007210Y-8870221D01*
X75007726Y-8862648D01*
X74996736Y-8799681D01*
X74995775Y-8793165D01*
X74992775Y-8768375D01*
X74988102Y-8729758D01*
X74985419Y-8722657D01*
X74984778Y-8720048D01*
X74980309Y-8703715D01*
X74979548Y-8701195D01*
X74978243Y-8693717D01*
X74975034Y-8686407D01*
X74952559Y-8635204D01*
X74950068Y-8629099D01*
X74930175Y-8576456D01*
X74930173Y-8576452D01*
X74927487Y-8569344D01*
X74923184Y-8563083D01*
X74921947Y-8560717D01*
X74913720Y-8545937D01*
X74912369Y-8543652D01*
X74909315Y-8536695D01*
X74904695Y-8530675D01*
X74904692Y-8530669D01*
X74880806Y-8499542D01*
X74870413Y-8485998D01*
X74866541Y-8480668D01*
X74834661Y-8434280D01*
X74834656Y-8434275D01*
X74830357Y-8428019D01*
X74814484Y-8413876D01*
X74783830Y-8386565D01*
X74778554Y-8381584D01*
X73847264Y-7450294D01*
X73813238Y-7387982D01*
X73815799Y-7324575D01*
X73818943Y-7314225D01*
X73818944Y-7314223D01*
X73820447Y-7309274D01*
X73851752Y-7071492D01*
X73853499Y-7000000D01*
X73845918Y-6907791D01*
X73834271Y-6766124D01*
X73834270Y-6766118D01*
X73833847Y-6760973D01*
X73775420Y-6528364D01*
X73773364Y-6523634D01*
X73773361Y-6523627D01*
X73681847Y-6313159D01*
X73681845Y-6313156D01*
X73679787Y-6308422D01*
X73675705Y-6302111D01*
X73552325Y-6111396D01*
X73552323Y-6111393D01*
X73549515Y-6107053D01*
X73535661Y-6091827D01*
X73527304Y-6082644D01*
X73516900Y-6071209D01*
X73485848Y-6007364D01*
X73494242Y-5936866D01*
X73539419Y-5882097D01*
X73565861Y-5868429D01*
X73586705Y-5860615D01*
X73703261Y-5773261D01*
X73790615Y-5656705D01*
X73841745Y-5520316D01*
X73848500Y-5458134D01*
X73848500Y-3461866D01*
X73841745Y-3399684D01*
X73790615Y-3263295D01*
X73703261Y-3146739D01*
X73586705Y-3059385D01*
X73450316Y-3008255D01*
X73388134Y-3001500D01*
X71990661Y-3001500D01*
X71922540Y-2981498D01*
X71901566Y-2964595D01*
X70332911Y-1395941D01*
X70327057Y-1389675D01*
X70294025Y-1351809D01*
X70294022Y-1351806D01*
X70289030Y-1346084D01*
X70236749Y-1309340D01*
X70231455Y-1305408D01*
X70187162Y-1270678D01*
X70181187Y-1265993D01*
X70174271Y-1262870D01*
X70171985Y-1261486D01*
X70157304Y-1253112D01*
X70154944Y-1251847D01*
X70148730Y-1247479D01*
X70141651Y-1244719D01*
X70141649Y-1244718D01*
X70089194Y-1224267D01*
X70083125Y-1221716D01*
X70024896Y-1195424D01*
X70017429Y-1194040D01*
X70014874Y-1193239D01*
X69998621Y-1188610D01*
X69996041Y-1187947D01*
X69988960Y-1185187D01*
X69981429Y-1184196D01*
X69981427Y-1184195D01*
X69951808Y-1180296D01*
X69925608Y-1176847D01*
X69919110Y-1175817D01*
X69856283Y-1164173D01*
X69848703Y-1164610D01*
X69848702Y-1164610D01*
X69794077Y-1167760D01*
X69786823Y-1167969D01*
X55856405Y-1167969D01*
X55788284Y-1147967D01*
X55782344Y-1143905D01*
X55707094Y-1089232D01*
X55707093Y-1089231D01*
X55701752Y-1085351D01*
X55695724Y-1082667D01*
X55695722Y-1082666D01*
X55533319Y-1010360D01*
X55533318Y-1010360D01*
X55527288Y-1007675D01*
X55433887Y-987822D01*
X55346944Y-969341D01*
X55346939Y-969341D01*
X55340487Y-967969D01*
X55149513Y-967969D01*
X55143061Y-969341D01*
X55143056Y-969341D01*
X55056113Y-987822D01*
X54962712Y-1007675D01*
X54956682Y-1010360D01*
X54956681Y-1010360D01*
X54794278Y-1082666D01*
X54794276Y-1082667D01*
X54788248Y-1085351D01*
X54633747Y-1197603D01*
X54629326Y-1202513D01*
X54629325Y-1202514D01*
X54576227Y-1261486D01*
X54505960Y-1339525D01*
X54410473Y-1504913D01*
X54351458Y-1686541D01*
X54350768Y-1693104D01*
X54350768Y-1693105D01*
X54348081Y-1718671D01*
X54321068Y-1784327D01*
X54262846Y-1824957D01*
X54222771Y-1831500D01*
X10823912Y-1831500D01*
X10815342Y-1831208D01*
X10765224Y-1827791D01*
X10765220Y-1827791D01*
X10757648Y-1827275D01*
X10750171Y-1828580D01*
X10750170Y-1828580D01*
X10735113Y-1831208D01*
X10694703Y-1838261D01*
X10688186Y-1839222D01*
X10624758Y-1846898D01*
X10617650Y-1849584D01*
X10615056Y-1850221D01*
X10598750Y-1854682D01*
X10596199Y-1855452D01*
X10588716Y-1856758D01*
X10581764Y-1859810D01*
X10581763Y-1859810D01*
X10530212Y-1882439D01*
X10524105Y-1884931D01*
X10471452Y-1904827D01*
X10464344Y-1907513D01*
X10458083Y-1911816D01*
X10455717Y-1913053D01*
X10440937Y-1921280D01*
X10438652Y-1922631D01*
X10431695Y-1925685D01*
X10425675Y-1930305D01*
X10425669Y-1930308D01*
X10394542Y-1954194D01*
X10380998Y-1964587D01*
X10375668Y-1968459D01*
X10329280Y-2000339D01*
X10329275Y-2000344D01*
X10323019Y-2004643D01*
X10317968Y-2010313D01*
X10317966Y-2010314D01*
X10281565Y-2051170D01*
X10276584Y-2056446D01*
X1894960Y-10438070D01*
X1888695Y-10443924D01*
X1845095Y-10481959D01*
X1808352Y-10534239D01*
X1804419Y-10539534D01*
X1765004Y-10589802D01*
X1761881Y-10596718D01*
X1760497Y-10599004D01*
X1752123Y-10613685D01*
X1750858Y-10616045D01*
X1746490Y-10622259D01*
X1743730Y-10629338D01*
X1743729Y-10629340D01*
X1723278Y-10681795D01*
X1720727Y-10687864D01*
X1694435Y-10746093D01*
X1693051Y-10753560D01*
X1692250Y-10756115D01*
X1687621Y-10772368D01*
X1686958Y-10774948D01*
X1684198Y-10782029D01*
X1676103Y-10843521D01*
X1675859Y-10845372D01*
X1674828Y-10851879D01*
X1663184Y-10914706D01*
X1663621Y-10922286D01*
X1663621Y-10922287D01*
X1666771Y-10976912D01*
X1666980Y-10984166D01*
X1666980Y-13002260D01*
X1666688Y-13010830D01*
X1662755Y-13068524D01*
X508000Y-13068524D01*
X508000Y-634000D01*
X528002Y-565879D01*
X581658Y-519386D01*
X634000Y-508000D01*
X75566000Y-508000D01*
X75634121Y-528002D01*
G37*
%TD.AperFunction*%
%TA.AperFunction,Conductor*%
G36*
X54217469Y-3268502D02*
G01*
X54238443Y-3285405D01*
X54608558Y-3655520D01*
X54614412Y-3661785D01*
X54652447Y-3705385D01*
X54658665Y-3709755D01*
X54704705Y-3742112D01*
X54710001Y-3746045D01*
X54760290Y-3785477D01*
X54767212Y-3788602D01*
X54769460Y-3789964D01*
X54784193Y-3798368D01*
X54786532Y-3799622D01*
X54792747Y-3803990D01*
X54799823Y-3806749D01*
X54799827Y-3806751D01*
X54852282Y-3827202D01*
X54858360Y-3829757D01*
X54916582Y-3856045D01*
X54924053Y-3857429D01*
X54926607Y-3858230D01*
X54942886Y-3862867D01*
X54945441Y-3863523D01*
X54952517Y-3866282D01*
X54980970Y-3870028D01*
X55015859Y-3874621D01*
X55022375Y-3875653D01*
X55064714Y-3883500D01*
X55085195Y-3887296D01*
X55092775Y-3886859D01*
X55092776Y-3886859D01*
X55147406Y-3883709D01*
X55154659Y-3883500D01*
X56300348Y-3883500D01*
X56368469Y-3903502D01*
X56414962Y-3957158D01*
X56425066Y-4027432D01*
X56414636Y-4062550D01*
X56339164Y-4225140D01*
X56335606Y-4234813D01*
X56274299Y-4455879D01*
X56272368Y-4465999D01*
X56247989Y-4694123D01*
X56247737Y-4704412D01*
X56260944Y-4933451D01*
X56262377Y-4943653D01*
X56312810Y-5167442D01*
X56315898Y-5177295D01*
X56402204Y-5389840D01*
X56406852Y-5399041D01*
X56503736Y-5557143D01*
X56514192Y-5566604D01*
X56522970Y-5562820D01*
X57620905Y-4464885D01*
X57683217Y-4430859D01*
X57754032Y-4435924D01*
X57799095Y-4464885D01*
X58892130Y-5557920D01*
X58904141Y-5564479D01*
X58915880Y-5555511D01*
X58961012Y-5492702D01*
X58966327Y-5483857D01*
X59067966Y-5278206D01*
X59071765Y-5268611D01*
X59138453Y-5049120D01*
X59140632Y-5039039D01*
X59170813Y-4809789D01*
X59171332Y-4803114D01*
X59172915Y-4738364D01*
X59172721Y-4731647D01*
X59153776Y-4501206D01*
X59152093Y-4491044D01*
X59096204Y-4268539D01*
X59092883Y-4258784D01*
X59006337Y-4059743D01*
X58997516Y-3989296D01*
X59028183Y-3925264D01*
X59088599Y-3887976D01*
X59121886Y-3883500D01*
X62304340Y-3883500D01*
X62372461Y-3903502D01*
X62393435Y-3920405D01*
X62755501Y-4282471D01*
X62789527Y-4344783D01*
X62787823Y-4405238D01*
X62774599Y-4452925D01*
X62772424Y-4460768D01*
X62746938Y-4699244D01*
X62747235Y-4704396D01*
X62747235Y-4704400D01*
X62751650Y-4780962D01*
X62760744Y-4938680D01*
X62761879Y-4943717D01*
X62761880Y-4943723D01*
X62783385Y-5039147D01*
X62813470Y-5172646D01*
X62836223Y-5228680D01*
X62901489Y-5389408D01*
X62903702Y-5394859D01*
X63029014Y-5599351D01*
X63032398Y-5603257D01*
X63032399Y-5603259D01*
X63045655Y-5618562D01*
X63186043Y-5780630D01*
X63286181Y-5863766D01*
X63361699Y-5926462D01*
X63370571Y-5933828D01*
X63375028Y-5936432D01*
X63375033Y-5936436D01*
X63439070Y-5973856D01*
X63487794Y-6025494D01*
X63501500Y-6082644D01*
X63501500Y-7882989D01*
X63481498Y-7951110D01*
X63438439Y-7990406D01*
X63439099Y-7991454D01*
X63434729Y-7994206D01*
X63430136Y-7996597D01*
X63421988Y-8002715D01*
X63261388Y-8123297D01*
X63238345Y-8140598D01*
X63206351Y-8174078D01*
X63082650Y-8303524D01*
X63072648Y-8313990D01*
X63069734Y-8318262D01*
X63069733Y-8318263D01*
X63024910Y-8383971D01*
X62937495Y-8512117D01*
X62880358Y-8635207D01*
X62844616Y-8712207D01*
X62836516Y-8729656D01*
X62807740Y-8833422D01*
X62783631Y-8920358D01*
X62772424Y-8960768D01*
X62746938Y-9199244D01*
X62747235Y-9204396D01*
X62747235Y-9204400D01*
X62750774Y-9265768D01*
X62760744Y-9438680D01*
X62761879Y-9443717D01*
X62761880Y-9443723D01*
X62783385Y-9539147D01*
X62813470Y-9672646D01*
X62852438Y-9768611D01*
X62901489Y-9889408D01*
X62903702Y-9894859D01*
X63029014Y-10099351D01*
X63186043Y-10280630D01*
X63370571Y-10433828D01*
X63577643Y-10554831D01*
X63582468Y-10556673D01*
X63582469Y-10556674D01*
X63619016Y-10570630D01*
X63801697Y-10640389D01*
X63806763Y-10641420D01*
X63806764Y-10641420D01*
X63828357Y-10645813D01*
X64036716Y-10688204D01*
X64172264Y-10693174D01*
X64271225Y-10696803D01*
X64271229Y-10696803D01*
X64276389Y-10696992D01*
X64281509Y-10696336D01*
X64281511Y-10696336D01*
X64509151Y-10667175D01*
X64509152Y-10667175D01*
X64514279Y-10666518D01*
X64520869Y-10664541D01*
X64739042Y-10599086D01*
X64739047Y-10599084D01*
X64743997Y-10597599D01*
X64959374Y-10492087D01*
X64963579Y-10489087D01*
X64963585Y-10489084D01*
X65125507Y-10373586D01*
X65192580Y-10350312D01*
X65261589Y-10366996D01*
X65310623Y-10418340D01*
X65324114Y-10488043D01*
X65297779Y-10553975D01*
X65287770Y-10565260D01*
X63898435Y-11954595D01*
X63836123Y-11988621D01*
X63809340Y-11991500D01*
X40033912Y-11991500D01*
X40025342Y-11991208D01*
X39975224Y-11987791D01*
X39975220Y-11987791D01*
X39967648Y-11987275D01*
X39960171Y-11988580D01*
X39960170Y-11988580D01*
X39945113Y-11991208D01*
X39904703Y-11998261D01*
X39898186Y-11999222D01*
X39834758Y-12006898D01*
X39827650Y-12009584D01*
X39825056Y-12010221D01*
X39808750Y-12014682D01*
X39806199Y-12015452D01*
X39798716Y-12016758D01*
X39791764Y-12019810D01*
X39791763Y-12019810D01*
X39740212Y-12042439D01*
X39734105Y-12044931D01*
X39683990Y-12063868D01*
X39674344Y-12067513D01*
X39668083Y-12071816D01*
X39665717Y-12073053D01*
X39650937Y-12081280D01*
X39648652Y-12082631D01*
X39641695Y-12085685D01*
X39635675Y-12090305D01*
X39635669Y-12090308D01*
X39604542Y-12114194D01*
X39590998Y-12124587D01*
X39585668Y-12128459D01*
X39539280Y-12160339D01*
X39539275Y-12160344D01*
X39533019Y-12164643D01*
X39527968Y-12170313D01*
X39527966Y-12170314D01*
X39491565Y-12211170D01*
X39486584Y-12216446D01*
X37221539Y-14481491D01*
X37159227Y-14515517D01*
X37088412Y-14510452D01*
X37031576Y-14467905D01*
X37006868Y-14402720D01*
X37003847Y-14365973D01*
X36945420Y-14133364D01*
X36943364Y-14128634D01*
X36943361Y-14128627D01*
X36851847Y-13918159D01*
X36851845Y-13918156D01*
X36849787Y-13913422D01*
X36832574Y-13886814D01*
X36722325Y-13716396D01*
X36722323Y-13716393D01*
X36719515Y-13712053D01*
X36690580Y-13680253D01*
X36561582Y-13538487D01*
X36561580Y-13538486D01*
X36558104Y-13534665D01*
X36554053Y-13531466D01*
X36554049Y-13531462D01*
X36430333Y-13433757D01*
X36389270Y-13375840D01*
X36386038Y-13304917D01*
X36421664Y-13243505D01*
X36435257Y-13232296D01*
X36500423Y-13185814D01*
X36500425Y-13185812D01*
X36504627Y-13182815D01*
X36674511Y-13013523D01*
X36697878Y-12981005D01*
X36811445Y-12822958D01*
X36814463Y-12818758D01*
X36818201Y-12811196D01*
X36918433Y-12608392D01*
X36918434Y-12608390D01*
X36920727Y-12603750D01*
X36990447Y-12374274D01*
X37021752Y-12136492D01*
X37023499Y-12065000D01*
X37006148Y-11853955D01*
X37004271Y-11831124D01*
X37004270Y-11831118D01*
X37003847Y-11825973D01*
X36945420Y-11593364D01*
X36943364Y-11588634D01*
X36943361Y-11588627D01*
X36851847Y-11378159D01*
X36851845Y-11378156D01*
X36849787Y-11373422D01*
X36833113Y-11347647D01*
X36722325Y-11176396D01*
X36722323Y-11176393D01*
X36719515Y-11172053D01*
X36690580Y-11140253D01*
X36561582Y-10998487D01*
X36561580Y-10998486D01*
X36558104Y-10994665D01*
X36554053Y-10991466D01*
X36554049Y-10991462D01*
X36389712Y-10861677D01*
X36369888Y-10846021D01*
X36159922Y-10730113D01*
X36142377Y-10723900D01*
X44886358Y-10723900D01*
X44889661Y-10728560D01*
X45083399Y-10841771D01*
X45092686Y-10846221D01*
X45307006Y-10928062D01*
X45316908Y-10930939D01*
X45541699Y-10976673D01*
X45551951Y-10977896D01*
X45781202Y-10986302D01*
X45791488Y-10985835D01*
X46019043Y-10956684D01*
X46029129Y-10954541D01*
X46248864Y-10888617D01*
X46258459Y-10884856D01*
X46464466Y-10783935D01*
X46473332Y-10778650D01*
X46540945Y-10730421D01*
X46549346Y-10719721D01*
X46542358Y-10706568D01*
X45732812Y-9897022D01*
X45718868Y-9889408D01*
X45717035Y-9889539D01*
X45710420Y-9893790D01*
X44893635Y-10710575D01*
X44886358Y-10723900D01*
X36142377Y-10723900D01*
X36037127Y-10686629D01*
X35938720Y-10651781D01*
X35938716Y-10651780D01*
X35933845Y-10650055D01*
X35928752Y-10649148D01*
X35928749Y-10649147D01*
X35702816Y-10608902D01*
X35702810Y-10608901D01*
X35697727Y-10607996D01*
X35608267Y-10606903D01*
X35463081Y-10605129D01*
X35463079Y-10605129D01*
X35457911Y-10605066D01*
X35220837Y-10641343D01*
X34992871Y-10715854D01*
X34988279Y-10718244D01*
X34988280Y-10718244D01*
X34843427Y-10793650D01*
X34780136Y-10826597D01*
X34776003Y-10829700D01*
X34776000Y-10829702D01*
X34592480Y-10967493D01*
X34588345Y-10970598D01*
X34526627Y-11035182D01*
X34478042Y-11086024D01*
X34422648Y-11143990D01*
X34287495Y-11342117D01*
X34186516Y-11559656D01*
X34151291Y-11686676D01*
X34129477Y-11765337D01*
X34122424Y-11790768D01*
X34096938Y-12029244D01*
X34097235Y-12034396D01*
X34097235Y-12034400D01*
X34099171Y-12067966D01*
X34110744Y-12268680D01*
X34120429Y-12311655D01*
X34140286Y-12399771D01*
X34135750Y-12470622D01*
X34106464Y-12516566D01*
X32233520Y-14389510D01*
X32227255Y-14395364D01*
X32183655Y-14433399D01*
X32179288Y-14439613D01*
X32146912Y-14485679D01*
X32142979Y-14490974D01*
X32103564Y-14541242D01*
X32100441Y-14548158D01*
X32099057Y-14550444D01*
X32090683Y-14565125D01*
X32089418Y-14567485D01*
X32085050Y-14573699D01*
X32082290Y-14580778D01*
X32082289Y-14580780D01*
X32061838Y-14633235D01*
X32059287Y-14639304D01*
X32032995Y-14697533D01*
X32031611Y-14705000D01*
X32030810Y-14707555D01*
X32026181Y-14723808D01*
X32025518Y-14726388D01*
X32022758Y-14733469D01*
X32021767Y-14741000D01*
X32021766Y-14741002D01*
X32014419Y-14796812D01*
X32013390Y-14803313D01*
X32005237Y-14847299D01*
X32004948Y-14848860D01*
X31972866Y-14912194D01*
X31911636Y-14948130D01*
X31840698Y-14945258D01*
X31791963Y-14914992D01*
X29396098Y-12519128D01*
X29362073Y-12456816D01*
X29364635Y-12393404D01*
X29370447Y-12374274D01*
X29401752Y-12136492D01*
X29403499Y-12065000D01*
X29386148Y-11853955D01*
X29384271Y-11831124D01*
X29384270Y-11831118D01*
X29383847Y-11825973D01*
X29325420Y-11593364D01*
X29323364Y-11588634D01*
X29323361Y-11588627D01*
X29231847Y-11378159D01*
X29231845Y-11378156D01*
X29229787Y-11373422D01*
X29213113Y-11347647D01*
X29102325Y-11176396D01*
X29102323Y-11176393D01*
X29099515Y-11172053D01*
X29070580Y-11140253D01*
X28941582Y-10998487D01*
X28941580Y-10998486D01*
X28938104Y-10994665D01*
X28934053Y-10991466D01*
X28934049Y-10991462D01*
X28769712Y-10861677D01*
X28749888Y-10846021D01*
X28539922Y-10730113D01*
X28417127Y-10686629D01*
X28318720Y-10651781D01*
X28318716Y-10651780D01*
X28313845Y-10650055D01*
X28308752Y-10649148D01*
X28308749Y-10649147D01*
X28082816Y-10608902D01*
X28082810Y-10608901D01*
X28077727Y-10607996D01*
X27988267Y-10606903D01*
X27843081Y-10605129D01*
X27843079Y-10605129D01*
X27837911Y-10605066D01*
X27600837Y-10641343D01*
X27372871Y-10715854D01*
X27368279Y-10718244D01*
X27368280Y-10718244D01*
X27223427Y-10793650D01*
X27160136Y-10826597D01*
X27156003Y-10829700D01*
X27156000Y-10829702D01*
X26972480Y-10967493D01*
X26968345Y-10970598D01*
X26906627Y-11035182D01*
X26858042Y-11086024D01*
X26802648Y-11143990D01*
X26667495Y-11342117D01*
X26566516Y-11559656D01*
X26531291Y-11686676D01*
X26509477Y-11765337D01*
X26502424Y-11790768D01*
X26476938Y-12029244D01*
X26477235Y-12034396D01*
X26477235Y-12034400D01*
X26479171Y-12067966D01*
X26490744Y-12268680D01*
X26491879Y-12273717D01*
X26491880Y-12273723D01*
X26513385Y-12369147D01*
X26543470Y-12502646D01*
X26633702Y-12724859D01*
X26759014Y-12929351D01*
X26916043Y-13110630D01*
X27071109Y-13239368D01*
X27110742Y-13298268D01*
X27112240Y-13369249D01*
X27075126Y-13429772D01*
X27066275Y-13437070D01*
X26978261Y-13503153D01*
X26968345Y-13510598D01*
X26802648Y-13683990D01*
X26667495Y-13882117D01*
X26566516Y-14099656D01*
X26502424Y-14330768D01*
X26476938Y-14569244D01*
X26477235Y-14574396D01*
X26477235Y-14574400D01*
X26482353Y-14663160D01*
X26490744Y-14808680D01*
X26491879Y-14813717D01*
X26491880Y-14813723D01*
X26520286Y-14939771D01*
X26543470Y-15042646D01*
X26633702Y-15264859D01*
X26759014Y-15469351D01*
X26916043Y-15650630D01*
X27071109Y-15779368D01*
X27110742Y-15838268D01*
X27112240Y-15909249D01*
X27075126Y-15969772D01*
X27066276Y-15977069D01*
X26968345Y-16050598D01*
X26964773Y-16054336D01*
X26818851Y-16207035D01*
X26802648Y-16223990D01*
X26799734Y-16228262D01*
X26799733Y-16228263D01*
X26786134Y-16248199D01*
X26667495Y-16422117D01*
X26566516Y-16639656D01*
X26502424Y-16870768D01*
X26500536Y-16888435D01*
X26494256Y-16947198D01*
X26467128Y-17012808D01*
X26408836Y-17053336D01*
X26337886Y-17055915D01*
X26279874Y-17022904D01*
X26145405Y-16888435D01*
X26111379Y-16826123D01*
X26108500Y-16799340D01*
X26108500Y-9494412D01*
X44257737Y-9494412D01*
X44270944Y-9723451D01*
X44272377Y-9733653D01*
X44322810Y-9957442D01*
X44325898Y-9967295D01*
X44412204Y-10179840D01*
X44416852Y-10189041D01*
X44513736Y-10347143D01*
X44524192Y-10356604D01*
X44532970Y-10352820D01*
X45347978Y-9537812D01*
X45354356Y-9526132D01*
X46084408Y-9526132D01*
X46084539Y-9527965D01*
X46088790Y-9534580D01*
X46902130Y-10347920D01*
X46914141Y-10354479D01*
X46925880Y-10345511D01*
X46971012Y-10282702D01*
X46976327Y-10273857D01*
X47077966Y-10068206D01*
X47081765Y-10058611D01*
X47148453Y-9839120D01*
X47150632Y-9829039D01*
X47180813Y-9599789D01*
X47181332Y-9593114D01*
X47182915Y-9528364D01*
X47182721Y-9521647D01*
X47163776Y-9291206D01*
X47162093Y-9281044D01*
X47106204Y-9058539D01*
X47102883Y-9048784D01*
X47011409Y-8838410D01*
X47006531Y-8829312D01*
X46925384Y-8703876D01*
X46914698Y-8694674D01*
X46905133Y-8699077D01*
X46092022Y-9512188D01*
X46084408Y-9526132D01*
X45354356Y-9526132D01*
X45355592Y-9523868D01*
X45355461Y-9522035D01*
X45351210Y-9515420D01*
X44537884Y-8702094D01*
X44526348Y-8695794D01*
X44514065Y-8705418D01*
X44450849Y-8798089D01*
X44445756Y-8807053D01*
X44349163Y-9015145D01*
X44345606Y-9024813D01*
X44284299Y-9245879D01*
X44282368Y-9255999D01*
X44257989Y-9484123D01*
X44257737Y-9494412D01*
X26108500Y-9494412D01*
X26108500Y-8274716D01*
X26128502Y-8206595D01*
X26161332Y-8172137D01*
X26166449Y-8168487D01*
X26312243Y-8064494D01*
X26357309Y-8019585D01*
X26419681Y-7985669D01*
X26490487Y-7990857D01*
X26547249Y-8033503D01*
X26564231Y-8064607D01*
X26582113Y-8112306D01*
X26589385Y-8131705D01*
X26676739Y-8248261D01*
X26793295Y-8335615D01*
X26929684Y-8386745D01*
X26991866Y-8393500D01*
X28888134Y-8393500D01*
X28950316Y-8386745D01*
X29086705Y-8335615D01*
X29203261Y-8248261D01*
X29290615Y-8131705D01*
X29341745Y-7995316D01*
X29348500Y-7933134D01*
X29348500Y-7819500D01*
X29368502Y-7751379D01*
X29422158Y-7704886D01*
X29474500Y-7693500D01*
X31385752Y-7693500D01*
X31453873Y-7713502D01*
X31496743Y-7759861D01*
X31531003Y-7823622D01*
X31572666Y-7901160D01*
X31575025Y-7905551D01*
X31577820Y-7909294D01*
X31577822Y-7909297D01*
X31724171Y-8105282D01*
X31724176Y-8105288D01*
X31726963Y-8109020D01*
X31730272Y-8112300D01*
X31730277Y-8112306D01*
X31899851Y-8280406D01*
X31907307Y-8287797D01*
X31911069Y-8290555D01*
X31911072Y-8290558D01*
X32079257Y-8413876D01*
X32112094Y-8437953D01*
X32116229Y-8440129D01*
X32116233Y-8440131D01*
X32211334Y-8490166D01*
X32336827Y-8556191D01*
X32463002Y-8600253D01*
X32570764Y-8637885D01*
X32576568Y-8639912D01*
X32826050Y-8687278D01*
X32946532Y-8692011D01*
X33075125Y-8697064D01*
X33075130Y-8697064D01*
X33079793Y-8697247D01*
X33170821Y-8687278D01*
X33327569Y-8670112D01*
X33327575Y-8670111D01*
X33332222Y-8669602D01*
X33338615Y-8667919D01*
X33573273Y-8606138D01*
X33577793Y-8604948D01*
X33721000Y-8543422D01*
X33806807Y-8506557D01*
X33806810Y-8506555D01*
X33811110Y-8504708D01*
X33815090Y-8502245D01*
X33815094Y-8502243D01*
X34023064Y-8373547D01*
X34023066Y-8373545D01*
X34027047Y-8371082D01*
X34037068Y-8362599D01*
X34217289Y-8210031D01*
X34217291Y-8210029D01*
X34220862Y-8207006D01*
X34388295Y-8016084D01*
X34396895Y-8002715D01*
X34500921Y-7840987D01*
X34525669Y-7802512D01*
X34629967Y-7570980D01*
X34631288Y-7566298D01*
X34664004Y-7450294D01*
X34698896Y-7326575D01*
X34707561Y-7258460D01*
X38952852Y-7258460D01*
X38988593Y-7438143D01*
X38991082Y-7447118D01*
X39073708Y-7677250D01*
X39077505Y-7685778D01*
X39193234Y-7901160D01*
X39198245Y-7909027D01*
X39344550Y-8104953D01*
X39350656Y-8111977D01*
X39524316Y-8284127D01*
X39531398Y-8290176D01*
X39728586Y-8434760D01*
X39736505Y-8439708D01*
X39952877Y-8553547D01*
X39961451Y-8557275D01*
X40192282Y-8637885D01*
X40201291Y-8640299D01*
X40368201Y-8671988D01*
X40381261Y-8670704D01*
X40385506Y-8657360D01*
X40894000Y-8657360D01*
X40898171Y-8671565D01*
X40910933Y-8673620D01*
X40947487Y-8669617D01*
X40956649Y-8667919D01*
X41193107Y-8605665D01*
X41201926Y-8602628D01*
X41426584Y-8506107D01*
X41434856Y-8501800D01*
X41642777Y-8373135D01*
X41650317Y-8367657D01*
X41694801Y-8329999D01*
X44889795Y-8329999D01*
X44896540Y-8342330D01*
X45707188Y-9152978D01*
X45721132Y-9160592D01*
X45722965Y-9160461D01*
X45729580Y-9156210D01*
X46544590Y-8341200D01*
X46551611Y-8328343D01*
X46543838Y-8317676D01*
X46533667Y-8309643D01*
X46525083Y-8303940D01*
X46324250Y-8193074D01*
X46314838Y-8188844D01*
X46098591Y-8112266D01*
X46088620Y-8109632D01*
X45862769Y-8069402D01*
X45852516Y-8068433D01*
X45623116Y-8065630D01*
X45612832Y-8066350D01*
X45386067Y-8101050D01*
X45376039Y-8103439D01*
X45157984Y-8174710D01*
X45148475Y-8178707D01*
X44944993Y-8284633D01*
X44936268Y-8290127D01*
X44898248Y-8318674D01*
X44889795Y-8329999D01*
X41694801Y-8329999D01*
X41836943Y-8209668D01*
X41843593Y-8203132D01*
X42004813Y-8019295D01*
X42010420Y-8011854D01*
X42142700Y-7806202D01*
X42147147Y-7798011D01*
X42247572Y-7575076D01*
X42250767Y-7566298D01*
X42317135Y-7330973D01*
X42318993Y-7321844D01*
X42327246Y-7256969D01*
X42324958Y-7242708D01*
X42311938Y-7239000D01*
X40912115Y-7239000D01*
X40896876Y-7243475D01*
X40895671Y-7244865D01*
X40894000Y-7252548D01*
X40894000Y-8657360D01*
X40385506Y-8657360D01*
X40386000Y-8655808D01*
X40386000Y-7257115D01*
X40381525Y-7241876D01*
X40380135Y-7240671D01*
X40372452Y-7239000D01*
X38967096Y-7239000D01*
X38954695Y-7242641D01*
X38952852Y-7258460D01*
X34707561Y-7258460D01*
X34717327Y-7181697D01*
X34730545Y-7077798D01*
X34730545Y-7077792D01*
X34730943Y-7074667D01*
X34733291Y-6985000D01*
X34730396Y-6946045D01*
X34714818Y-6736411D01*
X34714817Y-6736407D01*
X34714472Y-6731759D01*
X34713402Y-6727027D01*
X34710223Y-6712976D01*
X38950675Y-6712976D01*
X38953435Y-6727703D01*
X38965614Y-6731000D01*
X40367885Y-6731000D01*
X40383124Y-6726525D01*
X40384329Y-6725135D01*
X40386000Y-6717452D01*
X40386000Y-6712885D01*
X40894000Y-6712885D01*
X40898475Y-6728124D01*
X40899865Y-6729329D01*
X40907548Y-6731000D01*
X42315671Y-6731000D01*
X42329202Y-6727027D01*
X42330634Y-6717068D01*
X42278979Y-6488786D01*
X42276255Y-6479875D01*
X42187633Y-6251983D01*
X42183619Y-6243567D01*
X42172378Y-6223900D01*
X44886358Y-6223900D01*
X44889661Y-6228560D01*
X45083399Y-6341771D01*
X45092686Y-6346221D01*
X45307006Y-6428062D01*
X45316908Y-6430939D01*
X45541699Y-6476673D01*
X45551951Y-6477896D01*
X45781202Y-6486302D01*
X45791488Y-6485835D01*
X46019043Y-6456684D01*
X46029129Y-6454541D01*
X46248864Y-6388617D01*
X46258459Y-6384856D01*
X46464466Y-6283935D01*
X46473332Y-6278650D01*
X46540945Y-6230421D01*
X46549346Y-6219721D01*
X46542358Y-6206568D01*
X45732812Y-5397022D01*
X45718868Y-5389408D01*
X45717035Y-5389539D01*
X45710420Y-5393790D01*
X44893635Y-6210575D01*
X44886358Y-6223900D01*
X42172378Y-6223900D01*
X42062286Y-6031281D01*
X42057070Y-6023548D01*
X41905692Y-5831525D01*
X41899399Y-5824657D01*
X41721294Y-5657112D01*
X41714060Y-5651254D01*
X41513141Y-5511872D01*
X41505115Y-5507144D01*
X41285810Y-5398995D01*
X41277177Y-5395507D01*
X41044288Y-5320958D01*
X41035238Y-5318785D01*
X40911880Y-5298696D01*
X40898286Y-5300393D01*
X40894000Y-5314500D01*
X40894000Y-6712885D01*
X40386000Y-6712885D01*
X40386000Y-5313859D01*
X40381982Y-5300175D01*
X40368290Y-5298154D01*
X40288521Y-5309010D01*
X40279403Y-5310948D01*
X40044668Y-5379367D01*
X40035915Y-5382639D01*
X39813869Y-5485004D01*
X39805714Y-5489524D01*
X39601233Y-5623587D01*
X39593828Y-5629270D01*
X39411413Y-5792082D01*
X39404935Y-5798790D01*
X39248584Y-5986781D01*
X39243163Y-5994381D01*
X39116322Y-6203409D01*
X39112084Y-6211726D01*
X39017529Y-6437214D01*
X39014572Y-6446052D01*
X38954382Y-6683048D01*
X38952764Y-6692228D01*
X38950675Y-6712976D01*
X34710223Y-6712976D01*
X34659459Y-6488639D01*
X34658428Y-6484082D01*
X34656735Y-6479728D01*
X34568084Y-6251762D01*
X34568083Y-6251760D01*
X34566391Y-6247409D01*
X34552955Y-6223900D01*
X34442702Y-6030997D01*
X34442700Y-6030995D01*
X34440383Y-6026940D01*
X34283171Y-5827517D01*
X34141397Y-5694150D01*
X34101610Y-5656722D01*
X34101608Y-5656720D01*
X34098209Y-5653523D01*
X34046504Y-5617654D01*
X33893393Y-5511437D01*
X33893390Y-5511435D01*
X33889561Y-5508779D01*
X33885384Y-5506719D01*
X33885377Y-5506715D01*
X33665996Y-5398528D01*
X33665992Y-5398527D01*
X33661810Y-5396464D01*
X33419960Y-5319047D01*
X33388104Y-5313859D01*
X33173935Y-5278980D01*
X33173934Y-5278980D01*
X33169323Y-5278229D01*
X33042364Y-5276567D01*
X32920083Y-5274966D01*
X32920080Y-5274966D01*
X32915406Y-5274905D01*
X32663787Y-5309149D01*
X32659301Y-5310457D01*
X32659299Y-5310457D01*
X32645428Y-5314500D01*
X32419993Y-5380208D01*
X32415740Y-5382168D01*
X32415739Y-5382169D01*
X32387818Y-5395041D01*
X32189380Y-5486522D01*
X32161996Y-5504476D01*
X31980928Y-5623189D01*
X31980923Y-5623193D01*
X31977015Y-5625755D01*
X31908204Y-5687171D01*
X31796733Y-5786663D01*
X31787562Y-5794848D01*
X31625183Y-5990087D01*
X31568643Y-6083263D01*
X31496081Y-6202842D01*
X31493447Y-6207182D01*
X31492956Y-6208354D01*
X31444825Y-6259317D01*
X31381304Y-6276500D01*
X29474500Y-6276500D01*
X29406379Y-6256498D01*
X29359886Y-6202842D01*
X29348500Y-6150500D01*
X29348500Y-6036866D01*
X29341745Y-5974684D01*
X29290615Y-5838295D01*
X29203261Y-5721739D01*
X29086705Y-5634385D01*
X28950316Y-5583255D01*
X28888134Y-5576500D01*
X26991866Y-5576500D01*
X26929684Y-5583255D01*
X26793295Y-5634385D01*
X26676739Y-5721739D01*
X26589385Y-5838295D01*
X26586233Y-5846703D01*
X26586232Y-5846705D01*
X26565538Y-5901906D01*
X26522897Y-5958671D01*
X26456335Y-5983371D01*
X26386986Y-5968164D01*
X26364167Y-5951666D01*
X26363887Y-5951358D01*
X26345537Y-5936866D01*
X26186177Y-5811011D01*
X26186172Y-5811008D01*
X26182123Y-5807810D01*
X26177607Y-5805317D01*
X26177604Y-5805315D01*
X25983879Y-5698373D01*
X25983875Y-5698371D01*
X25979355Y-5695876D01*
X25974486Y-5694152D01*
X25974482Y-5694150D01*
X25765903Y-5620288D01*
X25765899Y-5620287D01*
X25761028Y-5618562D01*
X25755935Y-5617655D01*
X25755932Y-5617654D01*
X25538095Y-5578851D01*
X25538089Y-5578850D01*
X25533006Y-5577945D01*
X25460096Y-5577054D01*
X25306581Y-5575179D01*
X25306579Y-5575179D01*
X25301411Y-5575116D01*
X25072464Y-5610150D01*
X24852314Y-5682106D01*
X24847726Y-5684494D01*
X24847722Y-5684496D01*
X24651461Y-5786663D01*
X24646872Y-5789052D01*
X24642739Y-5792155D01*
X24642736Y-5792157D01*
X24471700Y-5920575D01*
X24461655Y-5928117D01*
X24398332Y-5994381D01*
X24310649Y-6086136D01*
X24301639Y-6095564D01*
X24298725Y-6099836D01*
X24298724Y-6099837D01*
X24267361Y-6145813D01*
X24171119Y-6286899D01*
X24073602Y-6496981D01*
X24011707Y-6720169D01*
X23987095Y-6950469D01*
X23987392Y-6955622D01*
X23987392Y-6955625D01*
X23994831Y-7084643D01*
X24000427Y-7181697D01*
X24001564Y-7186743D01*
X24001565Y-7186749D01*
X24032011Y-7321844D01*
X24051346Y-7407642D01*
X24053288Y-7412424D01*
X24053289Y-7412428D01*
X24119334Y-7575076D01*
X24138484Y-7622237D01*
X24259501Y-7819719D01*
X24411147Y-7994784D01*
X24589349Y-8142730D01*
X24621405Y-8161462D01*
X24629070Y-8165941D01*
X24677794Y-8217579D01*
X24691500Y-8274729D01*
X24691500Y-17116088D01*
X24691208Y-17124658D01*
X24687275Y-17182352D01*
X24688580Y-17189829D01*
X24688580Y-17189830D01*
X24698261Y-17245299D01*
X24699223Y-17251821D01*
X24706898Y-17315242D01*
X24709581Y-17322343D01*
X24710222Y-17324952D01*
X24714685Y-17341262D01*
X24715450Y-17343798D01*
X24716757Y-17351284D01*
X24719811Y-17358241D01*
X24742442Y-17409795D01*
X24744935Y-17415904D01*
X24759434Y-17454274D01*
X24767513Y-17475656D01*
X24771817Y-17481919D01*
X24773054Y-17484285D01*
X24781299Y-17499097D01*
X24782632Y-17501351D01*
X24785685Y-17508305D01*
X24790307Y-17514328D01*
X24824579Y-17558991D01*
X24828459Y-17564332D01*
X24860339Y-17610720D01*
X24860344Y-17610725D01*
X24864643Y-17616981D01*
X24870313Y-17622032D01*
X24870314Y-17622034D01*
X24911170Y-17658435D01*
X24916446Y-17663416D01*
X26485501Y-19232472D01*
X26519527Y-19294784D01*
X26517823Y-19355240D01*
X26503804Y-19405788D01*
X26503802Y-19405800D01*
X26502424Y-19410768D01*
X26500262Y-19431000D01*
X26494256Y-19487197D01*
X26467128Y-19552807D01*
X26408835Y-19593335D01*
X26337886Y-19595914D01*
X26279874Y-19562903D01*
X22970405Y-16253435D01*
X22936379Y-16191123D01*
X22933500Y-16164340D01*
X22933500Y-8283927D01*
X22933792Y-8275358D01*
X22937210Y-8225225D01*
X22937210Y-8225221D01*
X22937726Y-8217648D01*
X22926736Y-8154681D01*
X22925775Y-8148165D01*
X22924653Y-8138891D01*
X22918102Y-8084758D01*
X22915419Y-8077657D01*
X22914778Y-8075048D01*
X22910313Y-8058728D01*
X22909548Y-8056195D01*
X22908243Y-8048717D01*
X22882552Y-7990190D01*
X22880067Y-7984102D01*
X22860172Y-7931449D01*
X22860171Y-7931447D01*
X22857487Y-7924344D01*
X22853186Y-7918085D01*
X22851949Y-7915720D01*
X22843727Y-7900948D01*
X22842372Y-7898656D01*
X22839316Y-7891695D01*
X22834691Y-7885668D01*
X22834689Y-7885664D01*
X22800407Y-7840987D01*
X22796529Y-7835650D01*
X22795499Y-7834150D01*
X22776290Y-7806202D01*
X22764659Y-7789278D01*
X22764658Y-7789277D01*
X22760357Y-7783019D01*
X22713837Y-7741571D01*
X22708562Y-7736591D01*
X22524665Y-7552694D01*
X22490639Y-7490382D01*
X22488450Y-7476769D01*
X22484232Y-7436637D01*
X22484232Y-7436635D01*
X22483542Y-7430072D01*
X22424527Y-7248444D01*
X22419075Y-7239000D01*
X22332341Y-7088774D01*
X22329040Y-7083056D01*
X22315612Y-7068142D01*
X22205675Y-6946045D01*
X22205674Y-6946044D01*
X22201253Y-6941134D01*
X22046752Y-6828882D01*
X22040724Y-6826198D01*
X22040722Y-6826197D01*
X21878319Y-6753891D01*
X21878318Y-6753891D01*
X21872288Y-6751206D01*
X21776756Y-6730900D01*
X21691944Y-6712872D01*
X21691939Y-6712872D01*
X21685487Y-6711500D01*
X21494513Y-6711500D01*
X21488061Y-6712872D01*
X21488056Y-6712872D01*
X21403244Y-6730900D01*
X21307712Y-6751206D01*
X21301682Y-6753891D01*
X21301681Y-6753891D01*
X21139278Y-6826197D01*
X21139276Y-6826198D01*
X21133248Y-6828882D01*
X20978747Y-6941134D01*
X20974326Y-6946044D01*
X20974325Y-6946045D01*
X20864389Y-7068142D01*
X20850960Y-7083056D01*
X20847659Y-7088774D01*
X20760926Y-7239000D01*
X20755473Y-7248444D01*
X20696458Y-7430072D01*
X20695768Y-7436633D01*
X20695768Y-7436635D01*
X20693770Y-7455646D01*
X20676496Y-7620000D01*
X20677186Y-7626565D01*
X20695679Y-7802512D01*
X20696458Y-7809928D01*
X20755473Y-7991556D01*
X20758776Y-7997278D01*
X20758777Y-7997279D01*
X20783442Y-8039999D01*
X20850960Y-8156944D01*
X20855378Y-8161851D01*
X20855379Y-8161852D01*
X20967156Y-8285993D01*
X20978747Y-8298866D01*
X21070330Y-8365405D01*
X21127663Y-8407060D01*
X21133248Y-8411118D01*
X21139276Y-8413802D01*
X21139278Y-8413803D01*
X21301681Y-8486109D01*
X21307712Y-8488794D01*
X21314173Y-8490167D01*
X21314178Y-8490169D01*
X21416697Y-8511961D01*
X21479171Y-8545689D01*
X21513492Y-8607839D01*
X21516500Y-8635207D01*
X21516500Y-10961306D01*
X21496498Y-11029427D01*
X21442842Y-11075920D01*
X21372568Y-11086024D01*
X21307988Y-11056530D01*
X21297307Y-11046106D01*
X21293274Y-11041674D01*
X21283887Y-11031358D01*
X21279836Y-11028159D01*
X21279832Y-11028155D01*
X21106177Y-10891011D01*
X21106172Y-10891008D01*
X21102123Y-10887810D01*
X21097607Y-10885317D01*
X21097604Y-10885315D01*
X20903879Y-10778373D01*
X20903875Y-10778371D01*
X20899355Y-10775876D01*
X20894486Y-10774152D01*
X20894482Y-10774150D01*
X20685903Y-10700288D01*
X20685899Y-10700287D01*
X20681028Y-10698562D01*
X20675935Y-10697655D01*
X20675932Y-10697654D01*
X20458095Y-10658851D01*
X20458089Y-10658850D01*
X20453006Y-10657945D01*
X20380096Y-10657054D01*
X20226581Y-10655179D01*
X20226579Y-10655179D01*
X20221411Y-10655116D01*
X19992464Y-10690150D01*
X19772314Y-10762106D01*
X19767726Y-10764494D01*
X19767722Y-10764496D01*
X19576748Y-10863911D01*
X19566872Y-10869052D01*
X19562739Y-10872155D01*
X19562736Y-10872157D01*
X19385790Y-11005012D01*
X19381655Y-11008117D01*
X19318170Y-11074550D01*
X19281212Y-11113225D01*
X19221639Y-11175564D01*
X19218728Y-11179832D01*
X19154002Y-11274716D01*
X19099090Y-11319718D01*
X19028565Y-11327889D01*
X18964819Y-11296634D01*
X18954979Y-11284994D01*
X18938538Y-11270835D01*
X18928973Y-11275238D01*
X18152021Y-12052189D01*
X18144408Y-12066132D01*
X18144539Y-12067966D01*
X18148790Y-12074580D01*
X18926307Y-12852096D01*
X18938313Y-12858652D01*
X18964948Y-12838304D01*
X18965827Y-12839454D01*
X19002672Y-12810734D01*
X19073376Y-12804289D01*
X19136340Y-12837092D01*
X19156432Y-12862074D01*
X19176800Y-12895313D01*
X19176804Y-12895318D01*
X19179501Y-12899719D01*
X19182882Y-12903622D01*
X19182887Y-12903629D01*
X19280737Y-13016590D01*
X19310220Y-13081175D01*
X19311500Y-13099087D01*
X19311500Y-19623157D01*
X19310763Y-19636764D01*
X19306676Y-19674388D01*
X19308179Y-19691565D01*
X19311050Y-19724388D01*
X19311379Y-19729214D01*
X19311500Y-19731686D01*
X19311500Y-19734769D01*
X19311801Y-19737837D01*
X19315690Y-19777506D01*
X19315812Y-19778819D01*
X19323913Y-19871413D01*
X19325400Y-19876532D01*
X19325920Y-19881833D01*
X19352791Y-19970834D01*
X19353126Y-19971967D01*
X19379091Y-20061336D01*
X19381544Y-20066068D01*
X19383084Y-20071169D01*
X19385978Y-20076612D01*
X19426731Y-20153260D01*
X19427343Y-20154426D01*
X19443085Y-20184795D01*
X19470108Y-20236926D01*
X19473431Y-20241089D01*
X19475934Y-20245796D01*
X19534755Y-20317918D01*
X19535446Y-20318774D01*
X19566738Y-20357973D01*
X19569242Y-20360477D01*
X19569884Y-20361195D01*
X19573585Y-20365528D01*
X19600935Y-20399062D01*
X19605682Y-20402989D01*
X19605684Y-20402991D01*
X19636262Y-20428287D01*
X19645042Y-20436277D01*
X22738145Y-23529379D01*
X22747246Y-23539522D01*
X22768691Y-23566194D01*
X22795788Y-23631816D01*
X22783105Y-23701670D01*
X22773159Y-23717195D01*
X22780644Y-23731434D01*
X24569287Y-25520077D01*
X24581062Y-25526507D01*
X24593077Y-25517211D01*
X24628931Y-25466006D01*
X24634414Y-25456511D01*
X24726490Y-25259053D01*
X24730236Y-25248761D01*
X24786625Y-25038312D01*
X24788528Y-25027519D01*
X24807517Y-24810475D01*
X24807517Y-24799525D01*
X24788528Y-24582481D01*
X24786625Y-24571688D01*
X24730236Y-24361239D01*
X24726490Y-24350947D01*
X24634414Y-24153489D01*
X24628931Y-24143994D01*
X24574859Y-24066771D01*
X24552171Y-23999497D01*
X24569456Y-23930637D01*
X24621225Y-23882052D01*
X24678072Y-23868500D01*
X25640680Y-23868500D01*
X25708801Y-23888502D01*
X25729775Y-23905405D01*
X27535170Y-25710800D01*
X27569196Y-25773112D01*
X27564131Y-25843927D01*
X27521584Y-25900763D01*
X27485220Y-25919660D01*
X27377984Y-25954710D01*
X27368475Y-25958707D01*
X27164993Y-26064633D01*
X27156268Y-26070127D01*
X27118248Y-26098674D01*
X27109795Y-26109999D01*
X27116540Y-26122330D01*
X29122130Y-28127920D01*
X29134141Y-28134479D01*
X29145880Y-28125511D01*
X29191012Y-28062702D01*
X29196327Y-28053857D01*
X29297966Y-27848206D01*
X29301762Y-27838619D01*
X29324856Y-27762607D01*
X29363797Y-27703243D01*
X29428651Y-27674355D01*
X29498828Y-27685116D01*
X29534509Y-27710139D01*
X30433759Y-28609388D01*
X30442852Y-28619522D01*
X30466573Y-28649025D01*
X30485654Y-28665036D01*
X30505026Y-28681291D01*
X30508674Y-28684472D01*
X30510486Y-28686115D01*
X30512680Y-28688309D01*
X30545954Y-28715642D01*
X30546752Y-28716304D01*
X30618079Y-28776154D01*
X30622749Y-28778722D01*
X30626866Y-28782103D01*
X30645052Y-28791854D01*
X30708691Y-28825977D01*
X30709850Y-28826606D01*
X30785986Y-28868462D01*
X30785994Y-28868465D01*
X30791392Y-28871433D01*
X30796474Y-28873045D01*
X30801168Y-28875562D01*
X30807059Y-28877363D01*
X30890082Y-28902747D01*
X30891340Y-28903139D01*
X30979911Y-28931235D01*
X30985202Y-28931829D01*
X30990303Y-28933388D01*
X31082868Y-28942790D01*
X31084055Y-28942916D01*
X31113443Y-28946213D01*
X31130335Y-28948108D01*
X31130340Y-28948108D01*
X31133832Y-28948500D01*
X31137357Y-28948500D01*
X31138342Y-28948555D01*
X31144037Y-28949003D01*
X31155947Y-28950213D01*
X31180939Y-28952752D01*
X31180944Y-28952752D01*
X31187067Y-28953374D01*
X31232713Y-28949059D01*
X31244572Y-28948500D01*
X34171237Y-28948500D01*
X34239358Y-28968502D01*
X34285851Y-29022158D01*
X34295955Y-29092432D01*
X34285524Y-29127551D01*
X34189166Y-29335135D01*
X34185606Y-29344813D01*
X34124299Y-29565879D01*
X34122368Y-29575999D01*
X34097989Y-29804123D01*
X34097737Y-29814412D01*
X34110944Y-30043451D01*
X34112377Y-30053653D01*
X34162810Y-30277442D01*
X34165898Y-30287295D01*
X34252204Y-30499840D01*
X34256852Y-30509041D01*
X34353736Y-30667143D01*
X34364192Y-30676604D01*
X34372970Y-30672820D01*
X35470905Y-29574885D01*
X35533217Y-29540859D01*
X35604032Y-29545924D01*
X35649095Y-29574885D01*
X36742130Y-30667920D01*
X36754141Y-30674479D01*
X36765880Y-30665511D01*
X36811012Y-30602702D01*
X36816327Y-30593857D01*
X36917966Y-30388206D01*
X36921765Y-30378611D01*
X36988453Y-30159120D01*
X36990632Y-30149039D01*
X37020813Y-29919789D01*
X37021332Y-29913114D01*
X37022915Y-29848364D01*
X37022721Y-29841647D01*
X37003776Y-29611206D01*
X37002093Y-29601044D01*
X36946204Y-29378539D01*
X36942883Y-29368784D01*
X36851409Y-29158410D01*
X36846528Y-29149306D01*
X36842409Y-29142939D01*
X36822202Y-29074879D01*
X36841999Y-29006699D01*
X36895514Y-28960044D01*
X36948201Y-28948500D01*
X40561237Y-28948500D01*
X40629358Y-28968502D01*
X40675851Y-29022158D01*
X40685955Y-29092432D01*
X40675524Y-29127551D01*
X40579166Y-29335135D01*
X40575606Y-29344813D01*
X40514299Y-29565879D01*
X40512368Y-29575999D01*
X40487989Y-29804123D01*
X40487737Y-29814412D01*
X40500944Y-30043451D01*
X40502377Y-30053653D01*
X40552810Y-30277442D01*
X40555898Y-30287295D01*
X40642204Y-30499840D01*
X40646852Y-30509041D01*
X40743736Y-30667143D01*
X40754192Y-30676604D01*
X40762970Y-30672820D01*
X41860905Y-29574885D01*
X41923217Y-29540859D01*
X41994032Y-29545924D01*
X42039095Y-29574885D01*
X42220115Y-29755905D01*
X42254141Y-29818217D01*
X42249076Y-29889032D01*
X42220115Y-29934095D01*
X41123635Y-31030575D01*
X41116358Y-31043900D01*
X41119661Y-31048560D01*
X41313399Y-31161771D01*
X41322686Y-31166221D01*
X41537006Y-31248062D01*
X41546908Y-31250939D01*
X41771699Y-31296673D01*
X41781951Y-31297896D01*
X42011202Y-31306302D01*
X42021488Y-31305835D01*
X42249043Y-31276684D01*
X42259129Y-31274541D01*
X42478864Y-31208617D01*
X42488459Y-31204856D01*
X42694468Y-31103933D01*
X42703326Y-31098654D01*
X42860125Y-30986810D01*
X42927199Y-30963537D01*
X42996207Y-30980220D01*
X43043813Y-31028879D01*
X43046235Y-31033303D01*
X43049385Y-31041705D01*
X43136739Y-31158261D01*
X43253295Y-31245615D01*
X43389684Y-31296745D01*
X43451866Y-31303500D01*
X45448134Y-31303500D01*
X45510316Y-31296745D01*
X45646705Y-31245615D01*
X45763261Y-31158261D01*
X45850615Y-31041705D01*
X45858990Y-31019365D01*
X45890516Y-30935270D01*
X45933158Y-30878506D01*
X45999719Y-30853806D01*
X46008498Y-30853500D01*
X57384114Y-30853500D01*
X57452235Y-30873502D01*
X57464595Y-30882553D01*
X57609349Y-31002730D01*
X57613819Y-31005342D01*
X57617511Y-31007500D01*
X57666232Y-31059140D01*
X57679301Y-31128924D01*
X57652566Y-31194694D01*
X57629589Y-31217045D01*
X57510710Y-31306302D01*
X57481655Y-31328117D01*
X57321639Y-31495564D01*
X57318725Y-31499836D01*
X57318724Y-31499837D01*
X57303152Y-31522665D01*
X57191119Y-31686899D01*
X57093602Y-31896981D01*
X57031707Y-32120169D01*
X57007095Y-32350469D01*
X57007392Y-32355622D01*
X57007392Y-32355625D01*
X57009086Y-32385000D01*
X57020427Y-32581697D01*
X57033955Y-32641726D01*
X57042116Y-32677941D01*
X57037580Y-32748793D01*
X57008294Y-32794736D01*
X54900814Y-34902216D01*
X54838502Y-34936242D01*
X54811719Y-34939121D01*
X54289500Y-34939121D01*
X54221379Y-34919119D01*
X54174886Y-34865463D01*
X54163500Y-34813121D01*
X54163500Y-34649487D01*
X54156745Y-34587305D01*
X54105615Y-34450916D01*
X54018261Y-34334360D01*
X53901705Y-34247006D01*
X53765316Y-34195876D01*
X53703134Y-34189121D01*
X51706866Y-34189121D01*
X51644684Y-34195876D01*
X51508295Y-34247006D01*
X51391739Y-34334360D01*
X51304385Y-34450916D01*
X51253255Y-34587305D01*
X51246500Y-34649487D01*
X51246500Y-34813121D01*
X51226498Y-34881242D01*
X51172842Y-34927735D01*
X51120500Y-34939121D01*
X42978281Y-34939121D01*
X42910160Y-34919119D01*
X42889186Y-34902216D01*
X39891450Y-31904480D01*
X39885596Y-31898215D01*
X39880437Y-31892301D01*
X39847561Y-31854615D01*
X39795280Y-31817871D01*
X39789986Y-31813939D01*
X39745693Y-31779209D01*
X39739718Y-31774524D01*
X39732802Y-31771401D01*
X39730516Y-31770017D01*
X39715835Y-31761643D01*
X39713475Y-31760378D01*
X39707261Y-31756010D01*
X39700182Y-31753250D01*
X39700180Y-31753249D01*
X39647725Y-31732798D01*
X39641656Y-31730247D01*
X39583427Y-31703955D01*
X39575960Y-31702571D01*
X39573405Y-31701770D01*
X39557152Y-31697141D01*
X39554572Y-31696478D01*
X39547491Y-31693718D01*
X39539960Y-31692727D01*
X39539958Y-31692726D01*
X39510339Y-31688827D01*
X39484139Y-31685378D01*
X39477641Y-31684348D01*
X39414814Y-31672704D01*
X39407234Y-31673141D01*
X39407233Y-31673141D01*
X39352608Y-31676291D01*
X39345354Y-31676500D01*
X30825660Y-31676500D01*
X30757539Y-31656498D01*
X30736565Y-31639595D01*
X30140870Y-31043900D01*
X34726358Y-31043900D01*
X34729661Y-31048560D01*
X34923399Y-31161771D01*
X34932686Y-31166221D01*
X35147006Y-31248062D01*
X35156908Y-31250939D01*
X35381699Y-31296673D01*
X35391951Y-31297896D01*
X35621202Y-31306302D01*
X35631488Y-31305835D01*
X35859043Y-31276684D01*
X35869129Y-31274541D01*
X36088864Y-31208617D01*
X36098459Y-31204856D01*
X36304466Y-31103935D01*
X36313332Y-31098650D01*
X36380945Y-31050421D01*
X36389346Y-31039721D01*
X36382358Y-31026568D01*
X35572812Y-30217022D01*
X35558868Y-30209408D01*
X35557035Y-30209539D01*
X35550420Y-30213790D01*
X34733635Y-31030575D01*
X34726358Y-31043900D01*
X30140870Y-31043900D01*
X29396098Y-30299128D01*
X29362072Y-30236816D01*
X29364635Y-30173404D01*
X29370447Y-30154274D01*
X29401752Y-29916492D01*
X29403499Y-29845000D01*
X29390983Y-29692763D01*
X29384271Y-29611124D01*
X29384270Y-29611118D01*
X29383847Y-29605973D01*
X29343271Y-29444431D01*
X29326679Y-29378375D01*
X29326678Y-29378371D01*
X29325420Y-29373364D01*
X29323364Y-29368634D01*
X29323361Y-29368627D01*
X29231847Y-29158159D01*
X29231845Y-29158156D01*
X29229787Y-29153422D01*
X29223006Y-29142939D01*
X29102325Y-28956396D01*
X29102323Y-28956393D01*
X29099515Y-28952053D01*
X29095926Y-28948108D01*
X28941582Y-28778487D01*
X28941580Y-28778486D01*
X28938104Y-28774665D01*
X28934053Y-28771466D01*
X28934049Y-28771462D01*
X28799290Y-28665036D01*
X28758227Y-28607119D01*
X28754995Y-28536196D01*
X28770061Y-28505231D01*
X28770395Y-28501698D01*
X28762358Y-28486568D01*
X26757884Y-26482094D01*
X26746348Y-26475794D01*
X26734065Y-26485418D01*
X26670849Y-26578089D01*
X26665756Y-26587053D01*
X26569163Y-26795145D01*
X26565606Y-26804813D01*
X26504299Y-27025879D01*
X26502366Y-27036010D01*
X26494709Y-27107653D01*
X26467581Y-27173262D01*
X26409289Y-27213790D01*
X26338339Y-27216369D01*
X26280328Y-27183358D01*
X25881450Y-26784480D01*
X25875596Y-26778215D01*
X25875201Y-26777762D01*
X25837561Y-26734615D01*
X25785280Y-26697871D01*
X25779986Y-26693939D01*
X25735693Y-26659209D01*
X25729718Y-26654524D01*
X25722802Y-26651401D01*
X25720516Y-26650017D01*
X25705835Y-26641643D01*
X25703475Y-26640378D01*
X25697261Y-26636010D01*
X25690182Y-26633250D01*
X25690180Y-26633249D01*
X25637725Y-26612798D01*
X25631656Y-26610247D01*
X25573427Y-26583955D01*
X25565960Y-26582571D01*
X25563405Y-26581770D01*
X25547152Y-26577141D01*
X25544572Y-26576478D01*
X25537491Y-26573718D01*
X25529960Y-26572727D01*
X25529958Y-26572726D01*
X25500339Y-26568827D01*
X25474139Y-26565378D01*
X25467641Y-26564348D01*
X25404814Y-26552704D01*
X25397234Y-26553141D01*
X25397233Y-26553141D01*
X25342608Y-26556291D01*
X25335354Y-26556500D01*
X24633869Y-26556500D01*
X24565748Y-26536498D01*
X24530657Y-26502772D01*
X24501198Y-26460700D01*
X24339300Y-26298802D01*
X24334792Y-26295645D01*
X24334789Y-26295643D01*
X24156253Y-26170631D01*
X24151749Y-26167477D01*
X24146765Y-26165153D01*
X24144472Y-26163829D01*
X24095479Y-26112447D01*
X24082043Y-26042733D01*
X24108429Y-25976822D01*
X24144472Y-25945591D01*
X24156002Y-25938934D01*
X24208048Y-25902491D01*
X24216424Y-25892012D01*
X24209356Y-25878566D01*
X23507812Y-25177022D01*
X23493868Y-25169408D01*
X23492035Y-25169539D01*
X23485420Y-25173790D01*
X22779923Y-25879287D01*
X22773493Y-25891062D01*
X22782789Y-25903077D01*
X22833998Y-25938934D01*
X22845528Y-25945591D01*
X22894521Y-25996973D01*
X22907958Y-26066687D01*
X22881571Y-26132598D01*
X22845528Y-26163829D01*
X22843235Y-26165153D01*
X22838251Y-26167477D01*
X22833747Y-26170631D01*
X22655211Y-26295643D01*
X22655208Y-26295645D01*
X22650700Y-26298802D01*
X22488802Y-26460700D01*
X22459343Y-26502771D01*
X22403888Y-26547099D01*
X22356131Y-26556500D01*
X19990660Y-26556500D01*
X19922539Y-26536498D01*
X19901565Y-26519595D01*
X18192445Y-24810475D01*
X22182483Y-24810475D01*
X22201472Y-25027519D01*
X22203375Y-25038312D01*
X22259764Y-25248761D01*
X22263510Y-25259053D01*
X22355586Y-25456511D01*
X22361069Y-25466006D01*
X22397509Y-25518048D01*
X22407988Y-25526424D01*
X22421434Y-25519356D01*
X23122978Y-24817812D01*
X23130592Y-24803868D01*
X23130461Y-24802035D01*
X23126210Y-24795420D01*
X22420713Y-24089923D01*
X22408938Y-24083493D01*
X22396923Y-24092789D01*
X22361069Y-24143994D01*
X22355586Y-24153489D01*
X22263510Y-24350947D01*
X22259764Y-24361239D01*
X22203375Y-24571688D01*
X22201472Y-24582481D01*
X22182483Y-24799525D01*
X22182483Y-24810475D01*
X18192445Y-24810475D01*
X14944916Y-21562946D01*
X14910890Y-21500634D01*
X14908011Y-21473851D01*
X14908011Y-13226406D01*
X16983423Y-13226406D01*
X16988704Y-13233461D01*
X17165080Y-13336527D01*
X17174363Y-13340974D01*
X17381003Y-13419883D01*
X17390901Y-13422759D01*
X17607653Y-13466857D01*
X17617883Y-13468076D01*
X17838914Y-13476182D01*
X17849223Y-13475714D01*
X18068623Y-13447608D01*
X18078688Y-13445468D01*
X18290557Y-13381905D01*
X18300152Y-13378144D01*
X18498778Y-13280838D01*
X18507636Y-13275559D01*
X18565097Y-13234572D01*
X18573497Y-13223874D01*
X18566510Y-13210721D01*
X17792811Y-12437021D01*
X17778868Y-12429408D01*
X17777034Y-12429539D01*
X17770420Y-12433790D01*
X16990180Y-13214031D01*
X16983423Y-13226406D01*
X14908011Y-13226406D01*
X14908011Y-12035638D01*
X16367893Y-12035638D01*
X16380627Y-12256468D01*
X16382061Y-12266670D01*
X16430685Y-12482439D01*
X16433773Y-12492292D01*
X16516986Y-12697220D01*
X16521634Y-12706421D01*
X16610097Y-12850781D01*
X16620553Y-12860242D01*
X16629331Y-12856458D01*
X17407979Y-12077811D01*
X17415592Y-12063868D01*
X17415461Y-12062034D01*
X17411210Y-12055420D01*
X16633862Y-11278073D01*
X16622330Y-11271776D01*
X16610048Y-11281399D01*
X16554467Y-11362877D01*
X16549379Y-11371833D01*
X16456252Y-11572459D01*
X16452689Y-11582146D01*
X16393581Y-11795278D01*
X16391650Y-11805400D01*
X16368145Y-12025349D01*
X16367893Y-12035638D01*
X14908011Y-12035638D01*
X14908011Y-11472808D01*
X14908303Y-11464239D01*
X14911721Y-11414106D01*
X14911721Y-11414102D01*
X14912237Y-11406529D01*
X14901247Y-11343562D01*
X14900286Y-11337046D01*
X14897121Y-11310894D01*
X14892613Y-11273639D01*
X14889930Y-11266538D01*
X14889289Y-11263929D01*
X14884820Y-11247596D01*
X14884059Y-11245076D01*
X14882754Y-11237598D01*
X14867420Y-11202665D01*
X14857070Y-11179085D01*
X14854579Y-11172980D01*
X14834686Y-11120337D01*
X14834684Y-11120333D01*
X14831998Y-11113225D01*
X14827695Y-11106964D01*
X14826458Y-11104598D01*
X14818231Y-11089818D01*
X14816880Y-11087533D01*
X14813826Y-11080576D01*
X14809206Y-11074556D01*
X14809203Y-11074550D01*
X14774932Y-11029890D01*
X14771052Y-11024549D01*
X14739172Y-10978161D01*
X14739167Y-10978156D01*
X14734868Y-10971900D01*
X14688340Y-10930445D01*
X14683065Y-10925465D01*
X14663311Y-10905711D01*
X16985508Y-10905711D01*
X16992251Y-10918040D01*
X17767189Y-11692979D01*
X17781132Y-11700592D01*
X17782966Y-11700461D01*
X17789580Y-11696210D01*
X18568994Y-10916795D01*
X18576011Y-10903944D01*
X18568237Y-10893274D01*
X18565902Y-10891430D01*
X18557320Y-10885729D01*
X18363678Y-10778833D01*
X18354272Y-10774606D01*
X18145772Y-10700772D01*
X18135809Y-10698140D01*
X17918047Y-10659350D01*
X17907796Y-10658381D01*
X17686616Y-10655679D01*
X17676332Y-10656399D01*
X17457693Y-10689855D01*
X17447666Y-10692244D01*
X17237426Y-10760961D01*
X17227916Y-10764958D01*
X17031725Y-10867089D01*
X17023007Y-10872578D01*
X16993961Y-10894386D01*
X16985508Y-10905711D01*
X14663311Y-10905711D01*
X13842569Y-10084969D01*
X13836715Y-10078704D01*
X13826159Y-10066604D01*
X13798680Y-10035104D01*
X13746399Y-9998360D01*
X13741105Y-9994428D01*
X13696812Y-9959698D01*
X13690837Y-9955013D01*
X13683921Y-9951890D01*
X13681635Y-9950506D01*
X13666954Y-9942132D01*
X13664594Y-9940867D01*
X13658380Y-9936499D01*
X13651301Y-9933739D01*
X13651299Y-9933738D01*
X13598844Y-9913287D01*
X13592775Y-9910736D01*
X13534546Y-9884444D01*
X13527079Y-9883060D01*
X13524524Y-9882259D01*
X13508271Y-9877630D01*
X13505691Y-9876967D01*
X13498610Y-9874207D01*
X13491079Y-9873216D01*
X13491077Y-9873215D01*
X13461458Y-9869316D01*
X13435258Y-9865867D01*
X13428760Y-9864837D01*
X13365933Y-9853193D01*
X13358353Y-9853630D01*
X13358352Y-9853630D01*
X13303727Y-9856780D01*
X13296473Y-9856989D01*
X9148438Y-9856989D01*
X9139869Y-9856697D01*
X9089736Y-9853279D01*
X9089732Y-9853279D01*
X9082159Y-9852763D01*
X9019192Y-9863753D01*
X9012680Y-9864713D01*
X8949269Y-9872387D01*
X8942168Y-9875070D01*
X8939559Y-9875711D01*
X8923226Y-9880180D01*
X8920706Y-9880941D01*
X8913228Y-9882246D01*
X8906276Y-9885298D01*
X8906275Y-9885298D01*
X8854715Y-9907930D01*
X8848610Y-9910421D01*
X8795967Y-9930314D01*
X8795963Y-9930316D01*
X8788855Y-9933002D01*
X8782594Y-9937305D01*
X8780228Y-9938542D01*
X8765448Y-9946769D01*
X8763163Y-9948120D01*
X8756206Y-9951174D01*
X8750186Y-9955794D01*
X8750180Y-9955797D01*
X8721708Y-9977646D01*
X8705509Y-9990076D01*
X8700179Y-9993948D01*
X8653791Y-10025828D01*
X8653786Y-10025833D01*
X8647530Y-10030132D01*
X8642479Y-10035802D01*
X8642477Y-10035803D01*
X8606076Y-10076659D01*
X8601095Y-10081935D01*
X8030427Y-10652603D01*
X7968115Y-10686629D01*
X7919236Y-10687555D01*
X7766723Y-10660388D01*
X7703165Y-10628750D01*
X7666802Y-10567773D01*
X7669179Y-10496816D01*
X7699724Y-10447246D01*
X8652559Y-9494412D01*
X9781566Y-8365405D01*
X9843878Y-8331379D01*
X9870661Y-8328500D01*
X14628595Y-8328500D01*
X14696716Y-8348502D01*
X14702656Y-8352564D01*
X14777663Y-8407060D01*
X14783248Y-8411118D01*
X14789276Y-8413802D01*
X14789278Y-8413803D01*
X14951681Y-8486109D01*
X14957712Y-8488794D01*
X15048487Y-8508089D01*
X15138056Y-8527128D01*
X15138061Y-8527128D01*
X15144513Y-8528500D01*
X15335487Y-8528500D01*
X15341939Y-8527128D01*
X15341944Y-8527128D01*
X15431513Y-8508089D01*
X15522288Y-8488794D01*
X15528319Y-8486109D01*
X15690722Y-8413803D01*
X15690724Y-8413802D01*
X15696752Y-8411118D01*
X15702338Y-8407060D01*
X15759670Y-8365405D01*
X15851253Y-8298866D01*
X15862844Y-8285993D01*
X15974621Y-8161852D01*
X15974622Y-8161851D01*
X15979040Y-8156944D01*
X16046558Y-8039999D01*
X16071223Y-7997279D01*
X16071224Y-7997278D01*
X16074527Y-7991556D01*
X16133542Y-7809928D01*
X16134322Y-7802512D01*
X16152814Y-7626565D01*
X16153504Y-7620000D01*
X16136230Y-7455646D01*
X16134232Y-7436635D01*
X16134232Y-7436633D01*
X16133542Y-7430072D01*
X16074527Y-7248444D01*
X16069075Y-7239000D01*
X15982341Y-7088774D01*
X15979040Y-7083056D01*
X15965612Y-7068142D01*
X15855675Y-6946045D01*
X15855674Y-6946044D01*
X15851253Y-6941134D01*
X15696752Y-6828882D01*
X15690724Y-6826198D01*
X15690722Y-6826197D01*
X15528319Y-6753891D01*
X15528318Y-6753891D01*
X15522288Y-6751206D01*
X15426756Y-6730900D01*
X15341944Y-6712872D01*
X15341939Y-6712872D01*
X15335487Y-6711500D01*
X15144513Y-6711500D01*
X15138061Y-6712872D01*
X15138056Y-6712872D01*
X15053244Y-6730900D01*
X14957712Y-6751206D01*
X14951682Y-6753891D01*
X14951681Y-6753891D01*
X14789278Y-6826197D01*
X14789276Y-6826198D01*
X14783248Y-6828882D01*
X14777907Y-6832762D01*
X14777906Y-6832763D01*
X14702656Y-6887436D01*
X14635789Y-6911294D01*
X14628595Y-6911500D01*
X9553912Y-6911500D01*
X9545342Y-6911208D01*
X9495224Y-6907791D01*
X9495220Y-6907791D01*
X9487648Y-6907275D01*
X9480171Y-6908580D01*
X9480170Y-6908580D01*
X9465113Y-6911208D01*
X9424703Y-6918261D01*
X9418186Y-6919222D01*
X9354758Y-6926898D01*
X9347650Y-6929584D01*
X9345056Y-6930221D01*
X9328750Y-6934682D01*
X9326199Y-6935452D01*
X9318716Y-6936758D01*
X9311764Y-6939810D01*
X9311763Y-6939810D01*
X9260212Y-6962439D01*
X9254105Y-6964931D01*
X9209328Y-6981851D01*
X9194344Y-6987513D01*
X9188083Y-6991816D01*
X9185717Y-6993053D01*
X9170937Y-7001280D01*
X9168652Y-7002631D01*
X9161695Y-7005685D01*
X9155675Y-7010305D01*
X9155669Y-7010308D01*
X9124542Y-7034194D01*
X9110998Y-7044587D01*
X9105668Y-7048459D01*
X9059280Y-7080339D01*
X9059275Y-7080344D01*
X9053019Y-7084643D01*
X9047968Y-7090313D01*
X9047966Y-7090314D01*
X9011565Y-7131170D01*
X9006584Y-7136446D01*
X5490427Y-10652603D01*
X5428115Y-10686629D01*
X5379236Y-10687555D01*
X5226723Y-10660388D01*
X5163165Y-10628750D01*
X5126802Y-10567773D01*
X5129179Y-10496816D01*
X5159724Y-10447246D01*
X8194543Y-7412428D01*
X11386077Y-4220894D01*
X11448389Y-4186868D01*
X11475172Y-4183989D01*
X44305480Y-4183989D01*
X44373601Y-4203991D01*
X44420094Y-4257647D01*
X44430198Y-4327921D01*
X44419767Y-4363040D01*
X44349166Y-4515135D01*
X44345606Y-4524813D01*
X44284299Y-4745879D01*
X44282368Y-4755999D01*
X44257989Y-4984123D01*
X44257737Y-4994412D01*
X44270944Y-5223451D01*
X44272377Y-5233653D01*
X44322810Y-5457442D01*
X44325898Y-5467295D01*
X44412204Y-5679840D01*
X44416852Y-5689041D01*
X44513736Y-5847143D01*
X44524192Y-5856604D01*
X44532970Y-5852820D01*
X45630905Y-4754885D01*
X45693217Y-4720859D01*
X45764032Y-4725924D01*
X45809095Y-4754885D01*
X46902130Y-5847920D01*
X46914141Y-5854479D01*
X46925880Y-5845511D01*
X46971012Y-5782702D01*
X46976327Y-5773857D01*
X47077966Y-5568206D01*
X47081765Y-5558611D01*
X47148453Y-5339120D01*
X47150632Y-5329039D01*
X47180813Y-5099789D01*
X47181332Y-5093114D01*
X47182915Y-5028364D01*
X47182721Y-5021647D01*
X47163776Y-4791206D01*
X47162093Y-4781044D01*
X47106204Y-4558539D01*
X47102883Y-4548784D01*
X47020898Y-4360232D01*
X47012077Y-4289785D01*
X47042744Y-4225753D01*
X47103160Y-4188465D01*
X47136447Y-4183989D01*
X50324829Y-4183989D01*
X50392950Y-4203991D01*
X50413924Y-4220894D01*
X50765501Y-4572471D01*
X50799527Y-4634783D01*
X50797823Y-4695238D01*
X50783806Y-4745783D01*
X50782424Y-4750768D01*
X50756938Y-4989244D01*
X50757235Y-4994396D01*
X50757235Y-4994400D01*
X50759194Y-5028365D01*
X50770744Y-5228680D01*
X50771879Y-5233717D01*
X50771880Y-5233723D01*
X50809126Y-5398995D01*
X50823470Y-5462646D01*
X50870236Y-5577815D01*
X50895394Y-5639771D01*
X50913702Y-5684859D01*
X51039014Y-5889351D01*
X51042398Y-5893257D01*
X51042399Y-5893259D01*
X51057093Y-5910222D01*
X51196043Y-6070630D01*
X51380571Y-6223828D01*
X51385028Y-6226432D01*
X51385033Y-6226436D01*
X51449070Y-6263856D01*
X51497794Y-6315494D01*
X51511500Y-6372644D01*
X51511500Y-8172989D01*
X51491498Y-8241110D01*
X51448439Y-8280406D01*
X51449099Y-8281454D01*
X51444729Y-8284206D01*
X51440136Y-8286597D01*
X51430336Y-8293955D01*
X51258510Y-8422966D01*
X51248345Y-8430598D01*
X51239639Y-8439708D01*
X51124001Y-8560717D01*
X51082648Y-8603990D01*
X51079734Y-8608262D01*
X51079733Y-8608263D01*
X51009825Y-8710745D01*
X50947495Y-8802117D01*
X50932964Y-8833422D01*
X50876121Y-8955879D01*
X50846516Y-9019656D01*
X50835733Y-9058539D01*
X50785975Y-9237965D01*
X50782424Y-9250768D01*
X50756938Y-9489244D01*
X50757235Y-9494396D01*
X50757235Y-9494400D01*
X50760111Y-9544274D01*
X50770744Y-9728680D01*
X50771879Y-9733717D01*
X50771880Y-9733723D01*
X50822297Y-9957442D01*
X50823470Y-9962646D01*
X50913702Y-10184859D01*
X51039014Y-10389351D01*
X51042398Y-10393257D01*
X51042399Y-10393259D01*
X51055395Y-10408262D01*
X51196043Y-10570630D01*
X51380571Y-10723828D01*
X51587643Y-10844831D01*
X51592468Y-10846673D01*
X51592469Y-10846674D01*
X51638310Y-10864179D01*
X51811697Y-10930389D01*
X51816763Y-10931420D01*
X51816764Y-10931420D01*
X51873039Y-10942869D01*
X52046716Y-10978204D01*
X52182264Y-10983174D01*
X52281225Y-10986803D01*
X52281229Y-10986803D01*
X52286389Y-10986992D01*
X52291509Y-10986336D01*
X52291511Y-10986336D01*
X52519151Y-10957175D01*
X52519152Y-10957175D01*
X52524279Y-10956518D01*
X52530869Y-10954541D01*
X52749042Y-10889086D01*
X52749047Y-10889084D01*
X52753997Y-10887599D01*
X52969374Y-10782087D01*
X52973579Y-10779087D01*
X52973585Y-10779084D01*
X53089593Y-10696336D01*
X53164627Y-10642815D01*
X53334511Y-10473523D01*
X53357799Y-10441115D01*
X53362983Y-10433900D01*
X56876358Y-10433900D01*
X56879661Y-10438560D01*
X57073399Y-10551771D01*
X57082686Y-10556221D01*
X57297006Y-10638062D01*
X57306908Y-10640939D01*
X57531699Y-10686673D01*
X57541951Y-10687896D01*
X57771202Y-10696302D01*
X57781488Y-10695835D01*
X58009043Y-10666684D01*
X58019129Y-10664541D01*
X58238864Y-10598617D01*
X58248459Y-10594856D01*
X58454466Y-10493935D01*
X58463332Y-10488650D01*
X58530945Y-10440421D01*
X58539346Y-10429721D01*
X58532358Y-10416568D01*
X57722812Y-9607022D01*
X57708868Y-9599408D01*
X57707035Y-9599539D01*
X57700420Y-9603790D01*
X56883635Y-10420575D01*
X56876358Y-10433900D01*
X53362983Y-10433900D01*
X53471445Y-10282958D01*
X53474463Y-10278758D01*
X53496631Y-10233906D01*
X53578433Y-10068392D01*
X53578434Y-10068390D01*
X53580727Y-10063750D01*
X53650447Y-9834274D01*
X53681752Y-9596492D01*
X53681835Y-9593114D01*
X53683417Y-9528365D01*
X53683417Y-9528361D01*
X53683499Y-9525000D01*
X53665807Y-9309810D01*
X53664271Y-9291124D01*
X53664270Y-9291118D01*
X53663847Y-9285973D01*
X53643360Y-9204412D01*
X56247737Y-9204412D01*
X56260944Y-9433451D01*
X56262377Y-9443653D01*
X56312810Y-9667442D01*
X56315898Y-9677295D01*
X56402204Y-9889840D01*
X56406852Y-9899041D01*
X56503736Y-10057143D01*
X56514192Y-10066604D01*
X56522970Y-10062820D01*
X57337978Y-9247812D01*
X57344356Y-9236132D01*
X58074408Y-9236132D01*
X58074539Y-9237965D01*
X58078790Y-9244580D01*
X58892130Y-10057920D01*
X58904141Y-10064479D01*
X58915880Y-10055511D01*
X58961012Y-9992702D01*
X58966327Y-9983857D01*
X59067966Y-9778206D01*
X59071765Y-9768611D01*
X59138453Y-9549120D01*
X59140632Y-9539039D01*
X59170813Y-9309789D01*
X59171332Y-9303114D01*
X59172915Y-9238364D01*
X59172721Y-9231647D01*
X59153776Y-9001206D01*
X59152093Y-8991044D01*
X59096204Y-8768539D01*
X59092883Y-8758784D01*
X59001409Y-8548410D01*
X58996531Y-8539312D01*
X58915384Y-8413876D01*
X58904698Y-8404674D01*
X58895133Y-8409077D01*
X58082022Y-9222188D01*
X58074408Y-9236132D01*
X57344356Y-9236132D01*
X57345592Y-9233868D01*
X57345461Y-9232035D01*
X57341210Y-9225420D01*
X56527884Y-8412094D01*
X56516348Y-8405794D01*
X56504065Y-8415418D01*
X56440849Y-8508089D01*
X56435756Y-8517053D01*
X56339163Y-8725145D01*
X56335606Y-8734813D01*
X56274299Y-8955879D01*
X56272368Y-8965999D01*
X56247989Y-9194123D01*
X56247737Y-9204412D01*
X53643360Y-9204412D01*
X53605420Y-9053364D01*
X53603364Y-9048634D01*
X53603361Y-9048627D01*
X53511847Y-8838159D01*
X53511845Y-8838156D01*
X53509787Y-8833422D01*
X53492574Y-8806814D01*
X53382325Y-8636396D01*
X53382323Y-8636393D01*
X53379515Y-8632053D01*
X53371513Y-8623258D01*
X53221582Y-8458487D01*
X53221580Y-8458486D01*
X53218104Y-8454665D01*
X53214053Y-8451466D01*
X53214049Y-8451462D01*
X53033943Y-8309223D01*
X53033939Y-8309221D01*
X53029888Y-8306021D01*
X52993607Y-8285993D01*
X52943636Y-8235560D01*
X52928500Y-8175684D01*
X52928500Y-8039999D01*
X56879795Y-8039999D01*
X56886540Y-8052330D01*
X57697188Y-8862978D01*
X57711132Y-8870592D01*
X57712965Y-8870461D01*
X57719580Y-8866210D01*
X58534590Y-8051200D01*
X58541611Y-8038343D01*
X58533838Y-8027676D01*
X58523667Y-8019643D01*
X58515083Y-8013940D01*
X58314250Y-7903074D01*
X58304838Y-7898844D01*
X58088591Y-7822266D01*
X58078620Y-7819632D01*
X57852769Y-7779402D01*
X57842516Y-7778433D01*
X57613116Y-7775630D01*
X57602832Y-7776350D01*
X57376067Y-7811050D01*
X57366039Y-7813439D01*
X57147984Y-7884710D01*
X57138475Y-7888707D01*
X56934993Y-7994633D01*
X56926268Y-8000127D01*
X56888248Y-8028674D01*
X56879795Y-8039999D01*
X52928500Y-8039999D01*
X52928500Y-6376136D01*
X52948502Y-6308015D01*
X52981331Y-6273558D01*
X53164627Y-6142815D01*
X53334511Y-5973523D01*
X53338994Y-5967285D01*
X53362983Y-5933900D01*
X56876358Y-5933900D01*
X56879661Y-5938560D01*
X57073399Y-6051771D01*
X57082686Y-6056221D01*
X57297006Y-6138062D01*
X57306908Y-6140939D01*
X57531699Y-6186673D01*
X57541951Y-6187896D01*
X57771202Y-6196302D01*
X57781488Y-6195835D01*
X58009043Y-6166684D01*
X58019129Y-6164541D01*
X58238864Y-6098617D01*
X58248459Y-6094856D01*
X58454466Y-5993935D01*
X58463332Y-5988650D01*
X58530945Y-5940421D01*
X58539346Y-5929721D01*
X58532358Y-5916568D01*
X57722812Y-5107022D01*
X57708868Y-5099408D01*
X57707035Y-5099539D01*
X57700420Y-5103790D01*
X56883635Y-5920575D01*
X56876358Y-5933900D01*
X53362983Y-5933900D01*
X53471445Y-5782958D01*
X53474463Y-5778758D01*
X53478377Y-5770840D01*
X53578433Y-5568392D01*
X53578434Y-5568390D01*
X53580727Y-5563750D01*
X53650447Y-5334274D01*
X53681752Y-5096492D01*
X53683028Y-5044274D01*
X53683417Y-5028365D01*
X53683417Y-5028361D01*
X53683499Y-5025000D01*
X53668258Y-4839619D01*
X53664271Y-4791124D01*
X53664270Y-4791118D01*
X53663847Y-4785973D01*
X53634633Y-4669668D01*
X53606679Y-4558375D01*
X53606678Y-4558371D01*
X53605420Y-4553364D01*
X53603364Y-4548634D01*
X53603361Y-4548627D01*
X53511847Y-4338159D01*
X53511845Y-4338156D01*
X53509787Y-4333422D01*
X53506229Y-4327921D01*
X53382325Y-4136396D01*
X53382323Y-4136393D01*
X53379515Y-4132053D01*
X53320594Y-4067299D01*
X53221582Y-3958487D01*
X53221580Y-3958486D01*
X53218104Y-3954665D01*
X53214053Y-3951466D01*
X53214049Y-3951462D01*
X53033946Y-3809226D01*
X53029888Y-3806021D01*
X52819922Y-3690113D01*
X52697458Y-3646746D01*
X52598720Y-3611781D01*
X52598716Y-3611780D01*
X52593845Y-3610055D01*
X52588752Y-3609148D01*
X52588749Y-3609147D01*
X52362816Y-3568902D01*
X52362810Y-3568901D01*
X52357727Y-3567996D01*
X52270460Y-3566930D01*
X52123081Y-3565129D01*
X52123079Y-3565129D01*
X52117911Y-3565066D01*
X51881830Y-3601191D01*
X51881828Y-3601191D01*
X51880837Y-3601343D01*
X51880806Y-3601138D01*
X51812136Y-3597580D01*
X51764748Y-3567778D01*
X51660565Y-3463595D01*
X51626539Y-3401283D01*
X51631604Y-3330468D01*
X51674151Y-3273632D01*
X51740671Y-3248821D01*
X51749660Y-3248500D01*
X54149348Y-3248500D01*
X54217469Y-3268502D01*
G37*
%TD.AperFunction*%
%TA.AperFunction,Conductor*%
G36*
X68624032Y-27005924D02*
G01*
X68669095Y-27034885D01*
X69739595Y-28105385D01*
X69773621Y-28167697D01*
X69776500Y-28194480D01*
X69776500Y-28671285D01*
X69756498Y-28739406D01*
X69702842Y-28785899D01*
X69632568Y-28796003D01*
X69572409Y-28770168D01*
X69471235Y-28690265D01*
X69439290Y-28665036D01*
X69398227Y-28607118D01*
X69394995Y-28536195D01*
X69410061Y-28505230D01*
X69410395Y-28501698D01*
X69402358Y-28486568D01*
X68309885Y-27394095D01*
X68275859Y-27331783D01*
X68280924Y-27260968D01*
X68309885Y-27215905D01*
X68490905Y-27034885D01*
X68553217Y-27000859D01*
X68624032Y-27005924D01*
G37*
%TD.AperFunction*%
%TD*%
M02*
