M48
; DRILL file {KiCad 6.0.2-378541a8eb~116~ubuntu20.04.1} date Fri 25 Feb 2022 09:41:27 PM PST
; FORMAT={-:-/ absolute / metric / decimal}
; #@! TF.CreationDate,2022-02-25T21:41:27-08:00
; #@! TF.GenerationSoftware,Kicad,Pcbnew,6.0.2-378541a8eb~116~ubuntu20.04.1
; #@! TF.FileFunction,Plated,1,2,PTH
FMAT,2
METRIC
; #@! TA.AperFunction,Plated,PTH,ViaDrill
T1C0.400
; #@! TA.AperFunction,Plated,PTH,ComponentDrill
T2C0.762
; #@! TA.AperFunction,Plated,PTH,ComponentDrill
T3C0.800
; #@! TA.AperFunction,Plated,PTH,ComponentDrill
T4C0.900
; #@! TA.AperFunction,Plated,PTH,ComponentDrill
T5C1.000
; #@! TA.AperFunction,Plated,PTH,ComponentDrill
T6C1.200
%
G90
G05
T1
X12.7Y-19.685
X12.7Y-30.48
X15.24Y-7.62
X21.59Y-7.62
X39.37Y-30.48
X39.37Y-34.925
X43.18Y-19.685
X48.26Y-15.24
X48.26Y-29.845
X55.245Y-1.876
X58.42Y-22.225
X67.31Y-4.445
X67.31Y-12.7
X74.295Y-19.685
T2
X5.08Y-12.065
X7.62Y-12.065
X12.7Y-12.065
X17.78Y-12.065
X20.32Y-12.065
X58.42Y-29.845
X58.42Y-32.385
X58.42Y-34.925
X58.42Y-37.465
X58.42Y-40.005
T3
X23.495Y-24.805
X23.495Y-27.305
X27.94Y-12.065
X27.94Y-14.605
X27.94Y-17.145
X27.94Y-19.685
X27.94Y-27.305
X27.94Y-29.845
X27.94Y-32.385
X27.94Y-34.925
X27.94Y-40.005
X27.94Y-42.545
X27.94Y-45.085
X35.56Y-12.065
X35.56Y-14.605
X35.56Y-17.145
X35.56Y-19.685
X35.56Y-22.225
X35.56Y-29.845
X35.56Y-42.545
X35.56Y-45.085
X41.95Y-29.845
X44.45Y-29.845
X52.705Y-35.648
X52.705Y-38.148
T4
X25.4Y-6.985
X27.94Y-6.985
T5
X39.37Y-37.465
X39.37Y-40.005
X45.72Y-5.025
X45.72Y-9.525
X52.22Y-5.025
X52.22Y-9.525
X57.71Y-4.735
X57.71Y-9.235
X64.21Y-4.735
X64.21Y-9.235
X68.58Y-17.145
X68.58Y-19.685
X68.58Y-24.765
X68.58Y-27.305
X68.58Y-29.845
X68.58Y-32.385
X68.58Y-34.925
X68.58Y-37.465
X68.58Y-40.005
X68.58Y-42.545
X69.85Y-4.46
X69.85Y-7.0
X69.85Y-9.54
X72.39Y-4.46
X72.39Y-7.0
X72.39Y-9.54
T6
X33.02Y-6.985
X40.64Y-6.985
T0
M30
