  0
SECTION
  2
BLOCKS
  0
ENDSEC
  0
SECTION
  2
ENTITIES
  0
LINE
  8
0
 10
-15.6472
 20
-6.74859
 11
-15.6247
 21
-7.24527
  0
LINE
  8
0
 10
-15.6247
 20
-7.24527
 11
-15.5798
 21
-7.74043
  0
LINE
  8
0
 10
-15.5798
 20
-7.74043
 11
-15.5126
 21
-8.23306
  0
LINE
  8
0
 10
-15.5126
 20
-8.23306
 11
-15.4232
 21
-8.72214
  0
LINE
  8
0
 10
-15.4232
 20
-8.72214
 11
-15.3118
 21
-9.20668
  0
LINE
  8
0
 10
-15.3118
 20
-9.20668
 11
-15.1786
 21
-9.6857
  0
LINE
  8
0
 10
-15.1786
 20
-9.6857
 11
-15.0239
 21
-10.1582
  0
LINE
  8
0
 10
-15.0239
 20
-10.1582
 11
-14.848
 21
-10.6232
  0
LINE
  8
0
 10
-14.848
 20
-10.6232
 11
-14.6513
 21
-11.0798
  0
LINE
  8
0
 10
-14.6513
 20
-11.0798
 11
-14.4341
 21
-11.5271
  0
LINE
  8
0
 10
-14.4341
 20
-11.5271
 11
-14.1969
 21
-11.9641
  0
LINE
  8
0
 10
-14.1969
 20
-11.9641
 11
-13.9403
 21
-12.3899
  0
LINE
  8
0
 10
-13.9403
 20
-12.3899
 11
-13.6646
 21
-12.8037
  0
LINE
  8
0
 10
-13.6646
 20
-12.8037
 11
-13.3706
 21
-13.2046
  0
LINE
  8
0
 10
-13.3706
 20
-13.2046
 11
-13.0587
 21
-13.5918
  0
LINE
  8
0
 10
-13.0587
 20
-13.5918
 11
-12.7297
 21
-13.9645
  0
LINE
  8
0
 10
-12.7297
 20
-13.9645
 11
-12.3841
 21
-14.322
  0
LINE
  8
0
 10
-12.3841
 20
-14.322
 11
-12.0227
 21
-14.6635
  0
LINE
  8
0
 10
-12.0227
 20
-14.6635
 11
-11.6463
 21
-14.9883
  0
LINE
  8
0
 10
-11.6463
 20
-14.9883
 11
-11.2556
 21
-15.2958
  0
LINE
  8
0
 10
-11.2556
 20
-15.2958
 11
-10.8514
 21
-15.5853
  0
LINE
  8
0
 10
-10.8514
 20
-15.5853
 11
-10.4345
 21
-15.8562
  0
LINE
  8
0
 10
-10.4345
 20
-15.8562
 11
-10.0058
 21
-16.1081
  0
LINE
  8
0
 10
-10.0058
 20
-16.1081
 11
-9.56621
 21
-16.3403
  0
LINE
  8
0
 10
-9.56621
 20
-16.3403
 11
-9.11653
 21
-16.5524
  0
LINE
  8
0
 10
-9.11653
 20
-16.5524
 11
-8.65773
 21
-16.7439
  0
LINE
  8
0
 10
-8.65773
 20
-16.7439
 11
-8.19074
 21
-16.9146
  0
LINE
  8
0
 10
-8.19074
 20
-16.9146
 11
-7.71651
 21
-17.0639
  0
LINE
  8
0
 10
-7.71651
 20
-17.0639
 11
-7.23603
 21
-17.1917
  0
LINE
  8
0
 10
-7.23603
 20
-17.1917
 11
-6.75025
 21
-17.2976
  0
LINE
  8
0
 10
-6.75025
 20
-17.2976
 11
-6.26019
 21
-17.3815
  0
LINE
  8
0
 10
-6.26019
 20
-17.3815
 11
-5.76684
 21
-17.4432
  0
LINE
  8
0
 10
-5.76684
 20
-17.4432
 11
-5.27121
 21
-17.4824
  0
LINE
  8
0
 10
-5.27121
 20
-17.4824
 11
-4.7743
 21
-17.4993
  0
LINE
  8
0
 10
-4.7743
 20
-17.4993
 11
83.2257
 21
-17.4993
  0
LINE
  8
0
 10
83.2257
 20
-17.4993
 11
83.7229
 21
-17.4937
  0
LINE
  8
0
 10
83.7229
 20
-17.4937
 11
84.2192
 21
-17.4656
  0
LINE
  8
0
 10
84.2192
 20
-17.4656
 11
84.7139
 21
-17.4151
  0
LINE
  8
0
 10
84.7139
 20
-17.4151
 11
85.2057
 21
-17.3423
  0
LINE
  8
0
 10
85.2057
 20
-17.3423
 11
85.6937
 21
-17.2474
  0
LINE
  8
0
 10
85.6937
 20
-17.2474
 11
86.177
 21
-17.1305
  0
LINE
  8
0
 10
86.177
 20
-17.1305
 11
86.6545
 21
-16.9919
  0
LINE
  8
0
 10
86.6545
 20
-16.9919
 11
87.1252
 21
-16.8319
  0
LINE
  8
0
 10
87.1252
 20
-16.8319
 11
87.5882
 21
-16.6507
  0
LINE
  8
0
 10
87.5882
 20
-16.6507
 11
88.0426
 21
-16.4489
  0
LINE
  8
0
 10
88.0426
 20
-16.4489
 11
88.4873
 21
-16.2267
  0
LINE
  8
0
 10
88.4873
 20
-16.2267
 11
88.9216
 21
-15.9846
  0
LINE
  8
0
 10
88.9216
 20
-15.9846
 11
89.3445
 21
-15.7231
  0
LINE
  8
0
 10
89.3445
 20
-15.7231
 11
89.7551
 21
-15.4428
  0
LINE
  8
0
 10
89.7551
 20
-15.4428
 11
90.1527
 21
-15.1443
  0
LINE
  8
0
 10
90.1527
 20
-15.1443
 11
90.5364
 21
-14.828
  0
LINE
  8
0
 10
90.5364
 20
-14.828
 11
90.9054
 21
-14.4948
  0
LINE
  8
0
 10
90.9054
 20
-14.4948
 11
91.2589
 21
-14.1452
  0
LINE
  8
0
 10
91.2589
 20
-14.1452
 11
91.5963
 21
-13.78
  0
LINE
  8
0
 10
91.5963
 20
-13.78
 11
91.9168
 21
-13.4
  0
LINE
  8
0
 10
91.9168
 20
-13.4
 11
92.2199
 21
-13.0058
  0
LINE
  8
0
 10
92.2199
 20
-13.0058
 11
92.5048
 21
-12.5983
  0
LINE
  8
0
 10
92.5048
 20
-12.5983
 11
92.771
 21
-12.1784
  0
LINE
  8
0
 10
92.771
 20
-12.1784
 11
93.018
 21
-11.7469
  0
LINE
  8
0
 10
93.018
 20
-11.7469
 11
93.2452
 21
-11.3047
  0
LINE
  8
0
 10
93.2452
 20
-11.3047
 11
93.4522
 21
-10.8526
  0
LINE
  8
0
 10
93.4522
 20
-10.8526
 11
93.6386
 21
-10.3917
  0
LINE
  8
0
 10
93.6386
 20
-10.3917
 11
93.8039
 21
-9.92282
  0
LINE
  8
0
 10
93.8039
 20
-9.92282
 11
93.9479
 21
-9.44694
  0
LINE
  8
0
 10
93.9479
 20
-9.44694
 11
94.0702
 21
-8.96504
  0
LINE
  8
0
 10
94.0702
 20
-8.96504
 11
94.1707
 21
-8.4781
  0
LINE
  8
0
 10
94.1707
 20
-8.4781
 11
94.249
 21
-7.98712
  0
LINE
  8
0
 10
94.249
 20
-7.98712
 11
94.3051
 21
-7.49311
  0
LINE
  8
0
 10
94.3051
 20
-7.49311
 11
94.3388
 21
-6.99706
  0
LINE
  8
0
 10
94.3388
 20
-6.99706
 11
94.35
 21
-6.5
  0
LINE
  8
0
 10
94.35
 20
-6.5
 11
94.35
 21
39.5
  0
LINE
  8
0
 10
94.35
 20
39.5
 11
94.3388
 21
39.9971
  0
LINE
  8
0
 10
94.3388
 20
39.9971
 11
94.3051
 21
40.4931
  0
LINE
  8
0
 10
94.3051
 20
40.4931
 11
94.249
 21
40.9871
  0
LINE
  8
0
 10
94.249
 20
40.9871
 11
94.1707
 21
41.4781
  0
LINE
  8
0
 10
94.1707
 20
41.4781
 11
94.0702
 21
41.965
  0
LINE
  8
0
 10
94.0702
 20
41.965
 11
93.9479
 21
42.4469
  0
LINE
  8
0
 10
93.9479
 20
42.4469
 11
93.8039
 21
42.9228
  0
LINE
  8
0
 10
93.8039
 20
42.9228
 11
93.6386
 21
43.3917
  0
LINE
  8
0
 10
93.6386
 20
43.3917
 11
93.4522
 21
43.8526
  0
LINE
  8
0
 10
93.4522
 20
43.8526
 11
93.2452
 21
44.3047
  0
LINE
  8
0
 10
93.2452
 20
44.3047
 11
93.018
 21
44.7469
  0
LINE
  8
0
 10
93.018
 20
44.7469
 11
92.771
 21
45.1784
  0
LINE
  8
0
 10
92.771
 20
45.1784
 11
92.5048
 21
45.5983
  0
LINE
  8
0
 10
92.5048
 20
45.5983
 11
92.2199
 21
46.0058
  0
LINE
  8
0
 10
92.2199
 20
46.0058
 11
91.9168
 21
46.4
  0
LINE
  8
0
 10
91.9168
 20
46.4
 11
91.5963
 21
46.78
  0
LINE
  8
0
 10
91.5963
 20
46.78
 11
91.2589
 21
47.1452
  0
LINE
  8
0
 10
91.2589
 20
47.1452
 11
90.9054
 21
47.4948
  0
LINE
  8
0
 10
90.9054
 20
47.4948
 11
90.5364
 21
47.828
  0
LINE
  8
0
 10
90.5364
 20
47.828
 11
90.1527
 21
48.1443
  0
LINE
  8
0
 10
90.1527
 20
48.1443
 11
89.7551
 21
48.4428
  0
LINE
  8
0
 10
89.7551
 20
48.4428
 11
89.3445
 21
48.7231
  0
LINE
  8
0
 10
89.3445
 20
48.7231
 11
88.9216
 21
48.9846
  0
LINE
  8
0
 10
88.9216
 20
48.9846
 11
88.4873
 21
49.2267
  0
LINE
  8
0
 10
88.4873
 20
49.2267
 11
88.0426
 21
49.4489
  0
LINE
  8
0
 10
88.0426
 20
49.4489
 11
87.5882
 21
49.6507
  0
LINE
  8
0
 10
87.5882
 20
49.6507
 11
87.1252
 21
49.8319
  0
LINE
  8
0
 10
87.1252
 20
49.8319
 11
86.6545
 21
49.9919
  0
LINE
  8
0
 10
86.6545
 20
49.9919
 11
86.177
 21
50.1305
  0
LINE
  8
0
 10
86.177
 20
50.1305
 11
85.6937
 21
50.2474
  0
LINE
  8
0
 10
85.6937
 20
50.2474
 11
85.2057
 21
50.3423
  0
LINE
  8
0
 10
85.2057
 20
50.3423
 11
84.7139
 21
50.4151
  0
LINE
  8
0
 10
84.7139
 20
50.4151
 11
84.2192
 21
50.4656
  0
LINE
  8
0
 10
84.2192
 20
50.4656
 11
83.7229
 21
50.4937
  0
LINE
  8
0
 10
83.7229
 20
50.4937
 11
83.2257
 21
50.4993
  0
LINE
  8
0
 10
83.2257
 20
50.4993
 11
-4.7743
 21
50.4993
  0
LINE
  8
0
 10
-4.7743
 20
50.4993
 11
-5.27121
 21
50.4824
  0
LINE
  8
0
 10
-5.27121
 20
50.4824
 11
-5.76684
 21
50.4432
  0
LINE
  8
0
 10
-5.76684
 20
50.4432
 11
-6.26019
 21
50.3815
  0
LINE
  8
0
 10
-6.26019
 20
50.3815
 11
-6.75025
 21
50.2976
  0
LINE
  8
0
 10
-6.75025
 20
50.2976
 11
-7.23603
 21
50.1917
  0
LINE
  8
0
 10
-7.23603
 20
50.1917
 11
-7.71651
 21
50.0639
  0
LINE
  8
0
 10
-7.71651
 20
50.0639
 11
-8.19074
 21
49.9146
  0
LINE
  8
0
 10
-8.19074
 20
49.9146
 11
-8.65773
 21
49.7439
  0
LINE
  8
0
 10
-8.65773
 20
49.7439
 11
-9.11653
 21
49.5524
  0
LINE
  8
0
 10
-9.11653
 20
49.5524
 11
-9.56621
 21
49.3403
  0
LINE
  8
0
 10
-9.56621
 20
49.3403
 11
-10.0058
 21
49.1081
  0
LINE
  8
0
 10
-10.0058
 20
49.1081
 11
-10.4345
 21
48.8562
  0
LINE
  8
0
 10
-10.4345
 20
48.8562
 11
-10.8514
 21
48.5853
  0
LINE
  8
0
 10
-10.8514
 20
48.5853
 11
-11.2556
 21
48.2958
  0
LINE
  8
0
 10
-11.2556
 20
48.2958
 11
-11.6463
 21
47.9883
  0
LINE
  8
0
 10
-11.6463
 20
47.9883
 11
-12.0227
 21
47.6635
  0
LINE
  8
0
 10
-12.0227
 20
47.6635
 11
-12.3841
 21
47.322
  0
LINE
  8
0
 10
-12.3841
 20
47.322
 11
-12.7297
 21
46.9645
  0
LINE
  8
0
 10
-12.7297
 20
46.9645
 11
-13.0587
 21
46.5918
  0
LINE
  8
0
 10
-13.0587
 20
46.5918
 11
-13.3706
 21
46.2046
  0
LINE
  8
0
 10
-13.3706
 20
46.2046
 11
-13.6646
 21
45.8037
  0
LINE
  8
0
 10
-13.6646
 20
45.8037
 11
-13.9403
 21
45.3899
  0
LINE
  8
0
 10
-13.9403
 20
45.3899
 11
-14.1969
 21
44.9641
  0
LINE
  8
0
 10
-14.1969
 20
44.9641
 11
-14.4341
 21
44.5271
  0
LINE
  8
0
 10
-14.4341
 20
44.5271
 11
-14.6513
 21
44.0798
  0
LINE
  8
0
 10
-14.6513
 20
44.0798
 11
-14.848
 21
43.6232
  0
LINE
  8
0
 10
-14.848
 20
43.6232
 11
-15.0239
 21
43.1582
  0
LINE
  8
0
 10
-15.0239
 20
43.1582
 11
-15.1786
 21
42.6857
  0
LINE
  8
0
 10
-15.1786
 20
42.6857
 11
-15.3118
 21
42.2067
  0
LINE
  8
0
 10
-15.3118
 20
42.2067
 11
-15.4232
 21
41.7221
  0
LINE
  8
0
 10
-15.4232
 20
41.7221
 11
-15.5126
 21
41.2331
  0
LINE
  8
0
 10
-15.5126
 20
41.2331
 11
-15.5798
 21
40.7404
  0
LINE
  8
0
 10
-15.5798
 20
40.7404
 11
-15.6247
 21
40.2453
  0
LINE
  8
0
 10
-15.6247
 20
40.2453
 11
-15.6472
 21
39.7486
  0
LINE
  8
0
 10
-15.6472
 20
39.7486
 11
-15.6472
 21
-6.74859
  0
LINE
  8
0
 10
-6.925
 20
1.6
 11
-6.83906
 21
2.08738
  0
LINE
  8
0
 10
-6.83906
 20
2.08738
 11
-6.59161
 21
2.51597
  0
LINE
  8
0
 10
-6.59161
 20
2.51597
 11
-6.2125
 21
2.83409
  0
LINE
  8
0
 10
-6.2125
 20
2.83409
 11
-5.74745
 21
3.00335
  0
LINE
  8
0
 10
-5.74745
 20
3.00335
 11
-5.25255
 21
3.00335
  0
LINE
  8
0
 10
-5.25255
 20
3.00335
 11
-4.7875
 21
2.83409
  0
LINE
  8
0
 10
-4.7875
 20
2.83409
 11
-4.40839
 21
2.51597
  0
LINE
  8
0
 10
-4.40839
 20
2.51597
 11
-4.16094
 21
2.08738
  0
LINE
  8
0
 10
-4.16094
 20
2.08738
 11
-4.075
 21
1.6
  0
LINE
  8
0
 10
-4.075
 20
1.6
 11
-4.16094
 21
1.11262
  0
LINE
  8
0
 10
-4.16094
 20
1.11262
 11
-4.40839
 21
0.684027
  0
LINE
  8
0
 10
-4.40839
 20
0.684027
 11
-4.7875
 21
0.365913
  0
LINE
  8
0
 10
-4.7875
 20
0.365913
 11
-5.25255
 21
0.196649
  0
LINE
  8
0
 10
-5.25255
 20
0.196649
 11
-5.74745
 21
0.196649
  0
LINE
  8
0
 10
-5.74745
 20
0.196649
 11
-6.2125
 21
0.365913
  0
LINE
  8
0
 10
-6.2125
 20
0.365913
 11
-6.59161
 21
0.684027
  0
LINE
  8
0
 10
-6.59161
 20
0.684027
 11
-6.83906
 21
1.11262
  0
LINE
  8
0
 10
-6.83906
 20
1.11262
 11
-6.925
 21
1.6
  0
LINE
  8
0
 10
-6.925
 20
31.6
 11
-6.83906
 21
32.0874
  0
LINE
  8
0
 10
-6.83906
 20
32.0874
 11
-6.59161
 21
32.516
  0
LINE
  8
0
 10
-6.59161
 20
32.516
 11
-6.2125
 21
32.8341
  0
LINE
  8
0
 10
-6.2125
 20
32.8341
 11
-5.74745
 21
33.0034
  0
LINE
  8
0
 10
-5.74745
 20
33.0034
 11
-5.25255
 21
33.0034
  0
LINE
  8
0
 10
-5.25255
 20
33.0034
 11
-4.7875
 21
32.8341
  0
LINE
  8
0
 10
-4.7875
 20
32.8341
 11
-4.40839
 21
32.516
  0
LINE
  8
0
 10
-4.40839
 20
32.516
 11
-4.16094
 21
32.0874
  0
LINE
  8
0
 10
-4.16094
 20
32.0874
 11
-4.075
 21
31.6
  0
LINE
  8
0
 10
-4.075
 20
31.6
 11
-4.16094
 21
31.1126
  0
LINE
  8
0
 10
-4.16094
 20
31.1126
 11
-4.40839
 21
30.684
  0
LINE
  8
0
 10
-4.40839
 20
30.684
 11
-4.7875
 21
30.3659
  0
LINE
  8
0
 10
-4.7875
 20
30.3659
 11
-5.25255
 21
30.1966
  0
LINE
  8
0
 10
-5.25255
 20
30.1966
 11
-5.74745
 21
30.1966
  0
LINE
  8
0
 10
-5.74745
 20
30.1966
 11
-6.2125
 21
30.3659
  0
LINE
  8
0
 10
-6.2125
 20
30.3659
 11
-6.59161
 21
30.684
  0
LINE
  8
0
 10
-6.59161
 20
30.684
 11
-6.83906
 21
31.1126
  0
LINE
  8
0
 10
-6.83906
 20
31.1126
 11
-6.925
 21
31.6
  0
LINE
  8
0
 10
4.1
 20
-9.14881e-07
 11
4.1
 21
33
  0
LINE
  8
0
 10
4.1
 20
33
 11
74.6
 21
33
  0
LINE
  8
0
 10
74.6
 20
33
 11
74.6
 21
-9.14881e-07
  0
LINE
  8
0
 10
74.6
 20
-9.14881e-07
 11
4.1
 21
-9.14881e-07
  0
LINE
  8
0
 10
88.575
 20
1.6
 11
88.6609
 21
2.08738
  0
LINE
  8
0
 10
88.6609
 20
2.08738
 11
88.9084
 21
2.51597
  0
LINE
  8
0
 10
88.9084
 20
2.51597
 11
89.2875
 21
2.83409
  0
LINE
  8
0
 10
89.2875
 20
2.83409
 11
89.7526
 21
3.00335
  0
LINE
  8
0
 10
89.7526
 20
3.00335
 11
90.2474
 21
3.00335
  0
LINE
  8
0
 10
90.2474
 20
3.00335
 11
90.7125
 21
2.83409
  0
LINE
  8
0
 10
90.7125
 20
2.83409
 11
91.0916
 21
2.51597
  0
LINE
  8
0
 10
91.0916
 20
2.51597
 11
91.3391
 21
2.08738
  0
LINE
  8
0
 10
91.3391
 20
2.08738
 11
91.425
 21
1.6
  0
LINE
  8
0
 10
91.425
 20
1.6
 11
91.3391
 21
1.11262
  0
LINE
  8
0
 10
91.3391
 20
1.11262
 11
91.0916
 21
0.684027
  0
LINE
  8
0
 10
91.0916
 20
0.684027
 11
90.7125
 21
0.365913
  0
LINE
  8
0
 10
90.7125
 20
0.365913
 11
90.2474
 21
0.196649
  0
LINE
  8
0
 10
90.2474
 20
0.196649
 11
89.7526
 21
0.196649
  0
LINE
  8
0
 10
89.7526
 20
0.196649
 11
89.2875
 21
0.365913
  0
LINE
  8
0
 10
89.2875
 20
0.365913
 11
88.9084
 21
0.684027
  0
LINE
  8
0
 10
88.9084
 20
0.684027
 11
88.6609
 21
1.11262
  0
LINE
  8
0
 10
88.6609
 20
1.11262
 11
88.575
 21
1.6
  0
LINE
  8
0
 10
88.575
 20
31.6
 11
88.6609
 21
32.0874
  0
LINE
  8
0
 10
88.6609
 20
32.0874
 11
88.9084
 21
32.516
  0
LINE
  8
0
 10
88.9084
 20
32.516
 11
89.2875
 21
32.8341
  0
LINE
  8
0
 10
89.2875
 20
32.8341
 11
89.7526
 21
33.0034
  0
LINE
  8
0
 10
89.7526
 20
33.0034
 11
90.2474
 21
33.0034
  0
LINE
  8
0
 10
90.2474
 20
33.0034
 11
90.7125
 21
32.8341
  0
LINE
  8
0
 10
90.7125
 20
32.8341
 11
91.0916
 21
32.516
  0
LINE
  8
0
 10
91.0916
 20
32.516
 11
91.3391
 21
32.0874
  0
LINE
  8
0
 10
91.3391
 20
32.0874
 11
91.425
 21
31.6
  0
LINE
  8
0
 10
91.425
 20
31.6
 11
91.3391
 21
31.1126
  0
LINE
  8
0
 10
91.3391
 20
31.1126
 11
91.0916
 21
30.684
  0
LINE
  8
0
 10
91.0916
 20
30.684
 11
90.7125
 21
30.3659
  0
LINE
  8
0
 10
90.7125
 20
30.3659
 11
90.2474
 21
30.1966
  0
LINE
  8
0
 10
90.2474
 20
30.1966
 11
89.7526
 21
30.1966
  0
LINE
  8
0
 10
89.7526
 20
30.1966
 11
89.2875
 21
30.3659
  0
LINE
  8
0
 10
89.2875
 20
30.3659
 11
88.9084
 21
30.684
  0
LINE
  8
0
 10
88.9084
 20
30.684
 11
88.6609
 21
31.1126
  0
LINE
  8
0
 10
88.6609
 20
31.1126
 11
88.575
 21
31.6
  0
ENDSEC
  0
SECTION
  2
OBJECTS
  0
DICTIONARY
  0
ENDSEC
  0
EOF
