  0
SECTION
  2
BLOCKS
  0
ENDSEC
  0
SECTION
  2
ENTITIES
  0
LINE
  8
0
 10
85.1
 20
49.8
 11
85.0697
 21
50.2915
  0
LINE
  8
0
 10
85.0697
 20
50.2915
 11
84.9792
 21
50.7757
  0
LINE
  8
0
 10
84.9792
 20
50.7757
 11
84.8299
 21
51.245
  0
LINE
  8
0
 10
84.8299
 20
51.245
 11
84.624
 21
51.6924
  0
LINE
  8
0
 10
84.624
 20
51.6924
 11
84.3648
 21
52.1111
  0
LINE
  8
0
 10
84.3648
 20
52.1111
 11
84.056
 21
52.4948
  0
LINE
  8
0
 10
84.056
 20
52.4948
 11
83.7025
 21
52.8376
  0
LINE
  8
0
 10
83.7025
 20
52.8376
 11
83.3095
 21
53.1344
  0
LINE
  8
0
 10
83.3095
 20
53.1344
 11
82.8829
 21
53.3806
  0
LINE
  8
0
 10
82.8829
 20
53.3806
 11
82.4294
 21
53.5726
  0
LINE
  8
0
 10
82.4294
 20
53.5726
 11
81.9557
 21
53.7074
  0
LINE
  8
0
 10
81.9557
 20
53.7074
 11
81.4691
 21
53.7829
  0
LINE
  8
0
 10
81.4691
 20
53.7829
 11
80.9768
 21
53.7981
  0
LINE
  8
0
 10
80.9768
 20
53.7981
 11
4.97681
 21
53.7981
  0
LINE
  8
0
 10
4.97681
 20
53.7981
 11
4.48642
 21
53.7527
  0
LINE
  8
0
 10
4.48642
 20
53.7527
 11
4.00534
 21
53.6473
  0
LINE
  8
0
 10
4.00534
 20
53.6473
 11
3.54085
 21
53.4836
  0
LINE
  8
0
 10
3.54085
 20
53.4836
 11
3.09999
 21
53.2641
  0
LINE
  8
0
 10
3.09999
 20
53.2641
 11
2.68945
 21
52.9921
  0
LINE
  8
0
 10
2.68945
 20
52.9921
 11
2.31546
 21
52.6716
  0
LINE
  8
0
 10
2.31546
 20
52.6716
 11
1.98367
 21
52.3077
  0
LINE
  8
0
 10
1.98367
 20
52.3077
 11
1.69913
 21
51.9057
  0
LINE
  8
0
 10
1.69913
 20
51.9057
 11
1.46613
 21
51.4718
  0
LINE
  8
0
 10
1.46613
 20
51.4718
 11
1.28822
 21
51.0126
  0
LINE
  8
0
 10
1.28822
 20
51.0126
 11
1.16811
 21
50.535
  0
LINE
  8
0
 10
1.16811
 20
50.535
 11
1.10757
 21
50.0462
  0
LINE
  8
0
 10
1.10757
 20
50.0462
 11
1.10757
 21
5.39999
  0
LINE
  8
0
 10
1.10757
 20
5.39999
 11
85.1
 21
5.39999
  0
LINE
  8
0
 10
85.1
 20
5.39999
 11
85.1
 21
49.8
  0
LINE
  8
0
 10
19.8864
 20
41.0473
 11
19.4053
 21
41.1527
  0
LINE
  8
0
 10
19.4053
 20
41.1527
 11
18.9409
 21
41.3164
  0
LINE
  8
0
 10
18.9409
 20
41.3164
 11
18.5
 21
41.5359
  0
LINE
  8
0
 10
18.5
 20
41.5359
 11
18.0895
 21
41.8079
  0
LINE
  8
0
 10
18.0895
 20
41.8079
 11
17.7155
 21
42.1283
  0
LINE
  8
0
 10
17.7155
 20
42.1283
 11
17.3837
 21
42.4923
  0
LINE
  8
0
 10
17.3837
 20
42.4923
 11
17.0991
 21
42.8943
  0
LINE
  8
0
 10
17.0991
 20
42.8943
 11
16.8661
 21
43.3282
  0
LINE
  8
0
 10
16.8661
 20
43.3282
 11
16.6882
 21
43.7874
  0
LINE
  8
0
 10
16.6882
 20
43.7874
 11
16.5681
 21
44.265
  0
LINE
  8
0
 10
16.5681
 20
44.265
 11
16.5076
 21
44.7538
  0
LINE
  8
0
 10
16.5076
 20
44.7538
 11
16.5076
 21
45.2462
  0
LINE
  8
0
 10
16.5076
 20
45.2462
 11
16.5681
 21
45.735
  0
LINE
  8
0
 10
16.5681
 20
45.735
 11
16.6882
 21
46.2126
  0
LINE
  8
0
 10
16.6882
 20
46.2126
 11
16.8661
 21
46.6718
  0
LINE
  8
0
 10
16.8661
 20
46.6718
 11
17.0991
 21
47.1057
  0
LINE
  8
0
 10
17.0991
 20
47.1057
 11
17.3837
 21
47.5077
  0
LINE
  8
0
 10
17.3837
 20
47.5077
 11
17.7155
 21
47.8716
  0
LINE
  8
0
 10
17.7155
 20
47.8716
 11
18.0895
 21
48.1921
  0
LINE
  8
0
 10
18.0895
 20
48.1921
 11
18.5
 21
48.4641
  0
LINE
  8
0
 10
18.5
 20
48.4641
 11
18.9409
 21
48.6836
  0
LINE
  8
0
 10
18.9409
 20
48.6836
 11
19.4053
 21
48.8473
  0
LINE
  8
0
 10
19.4053
 20
48.8473
 11
19.8864
 21
48.9527
  0
LINE
  8
0
 10
19.8864
 20
48.9527
 11
20.3768
 21
48.9981
  0
LINE
  8
0
 10
20.3768
 20
48.9981
 11
20.8691
 21
48.9829
  0
LINE
  8
0
 10
20.8691
 20
48.9829
 11
21.3557
 21
48.9074
  0
LINE
  8
0
 10
21.3557
 20
48.9074
 11
21.8294
 21
48.7726
  0
LINE
  8
0
 10
21.8294
 20
48.7726
 11
22.2829
 21
48.5806
  0
LINE
  8
0
 10
22.2829
 20
48.5806
 11
22.7095
 21
48.3344
  0
LINE
  8
0
 10
22.7095
 20
48.3344
 11
23.1025
 21
48.0376
  0
LINE
  8
0
 10
23.1025
 20
48.0376
 11
23.456
 21
47.6948
  0
LINE
  8
0
 10
23.456
 20
47.6948
 11
23.7648
 21
47.3111
  0
LINE
  8
0
 10
23.7648
 20
47.3111
 11
24.024
 21
46.8924
  0
LINE
  8
0
 10
24.024
 20
46.8924
 11
24.2299
 21
46.445
  0
LINE
  8
0
 10
24.2299
 20
46.445
 11
24.3792
 21
45.9756
  0
LINE
  8
0
 10
24.3792
 20
45.9756
 11
24.4697
 21
45.4915
  0
LINE
  8
0
 10
24.4697
 20
45.4915
 11
24.5
 21
45
  0
LINE
  8
0
 10
24.5
 20
45
 11
24.4697
 21
44.5084
  0
LINE
  8
0
 10
24.4697
 20
44.5084
 11
24.3792
 21
44.0243
  0
LINE
  8
0
 10
24.3792
 20
44.0243
 11
24.2299
 21
43.555
  0
LINE
  8
0
 10
24.2299
 20
43.555
 11
24.024
 21
43.1076
  0
LINE
  8
0
 10
24.024
 20
43.1076
 11
23.7648
 21
42.6889
  0
LINE
  8
0
 10
23.7648
 20
42.6889
 11
23.456
 21
42.3052
  0
LINE
  8
0
 10
23.456
 20
42.3052
 11
23.1025
 21
41.9624
  0
LINE
  8
0
 10
23.1025
 20
41.9624
 11
22.7095
 21
41.6656
  0
LINE
  8
0
 10
22.7095
 20
41.6656
 11
22.2829
 21
41.4193
  0
LINE
  8
0
 10
22.2829
 20
41.4193
 11
21.8294
 21
41.2274
  0
LINE
  8
0
 10
21.8294
 20
41.2274
 11
21.3557
 21
41.0926
  0
LINE
  8
0
 10
21.3557
 20
41.0926
 11
20.8691
 21
41.0171
  0
LINE
  8
0
 10
20.8691
 20
41.0171
 11
20.3768
 21
41.0019
  0
LINE
  8
0
 10
20.3768
 20
41.0019
 11
19.8864
 21
41.0473
  0
LINE
  8
0
 10
31.8864
 20
41.0473
 11
31.4053
 21
41.1527
  0
LINE
  8
0
 10
31.4053
 20
41.1527
 11
30.9409
 21
41.3164
  0
LINE
  8
0
 10
30.9409
 20
41.3164
 11
30.5
 21
41.5359
  0
LINE
  8
0
 10
30.5
 20
41.5359
 11
30.0895
 21
41.8079
  0
LINE
  8
0
 10
30.0895
 20
41.8079
 11
29.7155
 21
42.1283
  0
LINE
  8
0
 10
29.7155
 20
42.1283
 11
29.3837
 21
42.4923
  0
LINE
  8
0
 10
29.3837
 20
42.4923
 11
29.0991
 21
42.8943
  0
LINE
  8
0
 10
29.0991
 20
42.8943
 11
28.8661
 21
43.3282
  0
LINE
  8
0
 10
28.8661
 20
43.3282
 11
28.6882
 21
43.7874
  0
LINE
  8
0
 10
28.6882
 20
43.7874
 11
28.5681
 21
44.265
  0
LINE
  8
0
 10
28.5681
 20
44.265
 11
28.5076
 21
44.7538
  0
LINE
  8
0
 10
28.5076
 20
44.7538
 11
28.5076
 21
45.2462
  0
LINE
  8
0
 10
28.5076
 20
45.2462
 11
28.5681
 21
45.735
  0
LINE
  8
0
 10
28.5681
 20
45.735
 11
28.6882
 21
46.2126
  0
LINE
  8
0
 10
28.6882
 20
46.2126
 11
28.8661
 21
46.6718
  0
LINE
  8
0
 10
28.8661
 20
46.6718
 11
29.0991
 21
47.1057
  0
LINE
  8
0
 10
29.0991
 20
47.1057
 11
29.3837
 21
47.5077
  0
LINE
  8
0
 10
29.3837
 20
47.5077
 11
29.7155
 21
47.8716
  0
LINE
  8
0
 10
29.7155
 20
47.8716
 11
30.0895
 21
48.1921
  0
LINE
  8
0
 10
30.0895
 20
48.1921
 11
30.5
 21
48.4641
  0
LINE
  8
0
 10
30.5
 20
48.4641
 11
30.9409
 21
48.6836
  0
LINE
  8
0
 10
30.9409
 20
48.6836
 11
31.4053
 21
48.8473
  0
LINE
  8
0
 10
31.4053
 20
48.8473
 11
31.8864
 21
48.9527
  0
LINE
  8
0
 10
31.8864
 20
48.9527
 11
32.3768
 21
48.9981
  0
LINE
  8
0
 10
32.3768
 20
48.9981
 11
32.8691
 21
48.9829
  0
LINE
  8
0
 10
32.8691
 20
48.9829
 11
33.3557
 21
48.9074
  0
LINE
  8
0
 10
33.3557
 20
48.9074
 11
33.8294
 21
48.7726
  0
LINE
  8
0
 10
33.8294
 20
48.7726
 11
34.2829
 21
48.5806
  0
LINE
  8
0
 10
34.2829
 20
48.5806
 11
34.7095
 21
48.3344
  0
LINE
  8
0
 10
34.7095
 20
48.3344
 11
35.1025
 21
48.0376
  0
LINE
  8
0
 10
35.1025
 20
48.0376
 11
35.456
 21
47.6948
  0
LINE
  8
0
 10
35.456
 20
47.6948
 11
35.7648
 21
47.3111
  0
LINE
  8
0
 10
35.7648
 20
47.3111
 11
36.024
 21
46.8924
  0
LINE
  8
0
 10
36.024
 20
46.8924
 11
36.2299
 21
46.445
  0
LINE
  8
0
 10
36.2299
 20
46.445
 11
36.3792
 21
45.9756
  0
LINE
  8
0
 10
36.3792
 20
45.9756
 11
36.4697
 21
45.4915
  0
LINE
  8
0
 10
36.4697
 20
45.4915
 11
36.5
 21
45
  0
LINE
  8
0
 10
36.5
 20
45
 11
36.4697
 21
44.5084
  0
LINE
  8
0
 10
36.4697
 20
44.5084
 11
36.3792
 21
44.0243
  0
LINE
  8
0
 10
36.3792
 20
44.0243
 11
36.2299
 21
43.555
  0
LINE
  8
0
 10
36.2299
 20
43.555
 11
36.024
 21
43.1076
  0
LINE
  8
0
 10
36.024
 20
43.1076
 11
35.7648
 21
42.6889
  0
LINE
  8
0
 10
35.7648
 20
42.6889
 11
35.456
 21
42.3052
  0
LINE
  8
0
 10
35.456
 20
42.3052
 11
35.1025
 21
41.9624
  0
LINE
  8
0
 10
35.1025
 20
41.9624
 11
34.7095
 21
41.6656
  0
LINE
  8
0
 10
34.7095
 20
41.6656
 11
34.2829
 21
41.4193
  0
LINE
  8
0
 10
34.2829
 20
41.4193
 11
33.8294
 21
41.2274
  0
LINE
  8
0
 10
33.8294
 20
41.2274
 11
33.3557
 21
41.0926
  0
LINE
  8
0
 10
33.3557
 20
41.0926
 11
32.8691
 21
41.0171
  0
LINE
  8
0
 10
32.8691
 20
41.0171
 11
32.3768
 21
41.0019
  0
LINE
  8
0
 10
32.3768
 20
41.0019
 11
31.8864
 21
41.0473
  0
ENDSEC
  0
SECTION
  2
OBJECTS
  0
DICTIONARY
  0
ENDSEC
  0
EOF
