<?xml version="1.0" encoding="UTF-8" standalone="no"?>
<!-- Created with Inkscape (http://www.inkscape.org/) -->

<svg
   width="216"
   height="24"
   viewBox="0 0 57.149999 6.3500002"
   version="1.1"
   id="svg216"
   inkscape:version="1.1.1 (3bf5ae0d25, 2021-09-20)"
   sodipodi:docname="sun_moon_icons_dark.svg"
   inkscape:export-filename="/usr/local/google/home/mattwach/git/avr/projects/epaper_clock/ui/sun_moon_icons_dark.png"
   inkscape:export-xdpi="96"
   inkscape:export-ydpi="96"
   xmlns:inkscape="http://www.inkscape.org/namespaces/inkscape"
   xmlns:sodipodi="http://sodipodi.sourceforge.net/DTD/sodipodi-0.dtd"
   xmlns="http://www.w3.org/2000/svg"
   xmlns:svg="http://www.w3.org/2000/svg">
  <sodipodi:namedview
     id="namedview218"
     pagecolor="#ffffff"
     bordercolor="#666666"
     borderopacity="1.0"
     inkscape:pageshadow="2"
     inkscape:pageopacity="0.0"
     inkscape:pagecheckerboard="0"
     inkscape:document-units="px"
     showgrid="false"
     units="px"
     inkscape:zoom="10.457324"
     inkscape:cx="7.0285671"
     inkscape:cy="11.092704"
     inkscape:window-width="1920"
     inkscape:window-height="979"
     inkscape:window-x="0"
     inkscape:window-y="32"
     inkscape:window-maximized="1"
     inkscape:current-layer="layer2" />
  <defs
     id="defs213" />
  <g
     inkscape:label="background"
     inkscape:groupmode="layer"
     id="layer1"
     style="display:inline"
     sodipodi:insensitive="true">
    <rect
       style="fill:#ffffff;fill-opacity:1;stroke:#000000;stroke-width:0.0264583;stroke-miterlimit:4;stroke-dasharray:none;stroke-opacity:1"
       id="rect4940"
       width="57.149998"
       height="6.3500004"
       x="6.9388939e-18"
       y="-6.9388939e-18" />
    <rect
       style="fill:#f0f0f0;fill-opacity:1;stroke:none;stroke-width:0.264583;stroke-opacity:1"
       id="rect264"
       width="6.3499999"
       height="6.3499999"
       x="6.9388939e-18"
       y="-6.9388939e-18" />
    <rect
       style="fill:#f0f0f0;fill-opacity:1;stroke:none;stroke-width:0.264583;stroke-opacity:1"
       id="rect264-3"
       width="6.3499999"
       height="6.3499999"
       x="12.7"
       y="0" />
    <rect
       style="fill:#f0f0f0;fill-opacity:1;stroke:none;stroke-width:0.264583;stroke-opacity:1"
       id="rect1315"
       width="6.3499999"
       height="6.3499999"
       x="25.4"
       y="0" />
    <rect
       style="fill:#f0f0f0;fill-opacity:1;stroke:none;stroke-width:0.264583;stroke-opacity:1"
       id="rect1315-6"
       width="6.3499999"
       height="6.3499999"
       x="38.099998"
       y="1.7763568e-15" />
    <rect
       style="fill:#f0f0f0;fill-opacity:1;stroke:none;stroke-width:0.264583;stroke-opacity:1"
       id="rect1339"
       width="6.3499999"
       height="6.3499999"
       x="50.799999"
       y="1.7763568e-15" />
  </g>
  <g
     inkscape:groupmode="layer"
     id="layer2"
     inkscape:label="main"
     sodipodi:insensitive="true">
    <ellipse
       style="fill:none;fill-opacity:1;stroke:#000000;stroke-width:0.249019;stroke-opacity:1"
       id="path1614"
       cx="2.9104168"
       cy="2.9104168"
       rx="1.9921569"
       ry="1.9921571" />
    <path
       style="fill:none;stroke:#000000;stroke-width:0.275452px;stroke-linecap:butt;stroke-linejoin:miter;stroke-opacity:1"
       d="M 0,2.9104167 H 5.8208334"
       id="path1833" />
    <path
       style="fill:none;stroke:#000000;stroke-width:0.275452px;stroke-linecap:butt;stroke-linejoin:miter;stroke-opacity:1"
       d="M 0.3899219,1.4552083 5.4309115,4.365625"
       id="path1927" />
    <path
       style="fill:none;stroke:#000000;stroke-width:0.275452px;stroke-linecap:butt;stroke-linejoin:miter;stroke-opacity:1"
       d="M 1.4552083,0.3899219 4.365625,5.4309115"
       id="path1929" />
    <path
       style="fill:none;stroke:#000000;stroke-width:0.275452px;stroke-linecap:butt;stroke-linejoin:miter;stroke-opacity:1"
       d="M 2.9104167,0 V 5.8208334"
       id="path1931" />
    <path
       style="fill:none;stroke:#000000;stroke-width:0.275452px;stroke-linecap:butt;stroke-linejoin:miter;stroke-opacity:1"
       d="M 4.365625,0.3899219 1.4552084,5.4309115"
       id="path1933" />
    <path
       style="fill:none;stroke:#000000;stroke-width:0.275452px;stroke-linecap:butt;stroke-linejoin:miter;stroke-opacity:1"
       d="M 5.4309115,1.4552084 0.3899219,4.365625"
       id="path1935" />
    <path
       id="ellipse2071"
       style="fill:#000000;fill-opacity:1;stroke:#000000;stroke-width:0.249019"
       d="M 4.9025737,2.9104168 A 1.9921569,1.9921571 0 0 1 2.9104168,4.9025739 1.9921569,1.9921571 0 0 1 0.91825998,2.9104168 1.9921569,1.9921571 0 0 1 2.9104168,0.91825974 1.9921569,1.9921571 0 0 1 4.9025737,2.9104168 Z" />
    <path
       id="ellipse2071-7"
       style="fill:#ffffff;fill-opacity:1;stroke:#000000;stroke-width:0.249019"
       d="M 11.252574,2.9104166 A 1.9921569,1.9921571 0 0 1 9.2604163,4.9025737 1.9921569,1.9921571 0 0 1 7.2682595,2.9104166 1.9921569,1.9921571 0 0 1 9.2604163,0.9182595 1.9921569,1.9921571 0 0 1 11.252574,2.9104166 Z" />
    <path
       id="path3377"
       style="fill:#020000;fill-opacity:1;stroke:#000000;stroke-width:0.249019"
       d="M 17.602574,2.9104166 A 1.9921569,1.9921571 0 0 1 15.610416,4.9025737 1.9921569,1.9921571 0 0 1 13.61826,2.9104166 1.9921569,1.9921571 0 0 1 15.610416,0.9182595 1.9921569,1.9921571 0 0 1 17.602574,2.9104166 Z" />
    <path
       id="path3379"
       style="fill:#000000;fill-opacity:1;stroke:#000000;stroke-width:0.249019"
       d="M 43.002574,2.9104166 A 1.9921569,1.9921571 0 0 1 41.010416,4.9025737 1.9921569,1.9921571 0 0 1 39.01826,2.9104166 1.9921569,1.9921571 0 0 1 41.010416,0.9182595 1.9921569,1.9921571 0 0 1 43.002574,2.9104166 Z" />
    <path
       id="path3381"
       style="fill:#000001;fill-opacity:1;stroke:#000000;stroke-width:0.249019"
       d="M 49.352574,2.9104166 A 1.9921569,1.9921571 0 0 1 47.360416,4.9025737 1.9921569,1.9921571 0 0 1 45.36826,2.9104166 1.9921569,1.9921571 0 0 1 47.360416,0.9182595 1.9921569,1.9921571 0 0 1 49.352574,2.9104166 Z" />
    <path
       id="path3383"
       style="fill:#000000;fill-opacity:1;stroke:#000000;stroke-width:0.249019"
       d="M 55.702574,2.9104166 A 1.9921569,1.9921571 0 0 1 53.710416,4.9025737 1.9921569,1.9921571 0 0 1 51.71826,2.9104166 1.9921569,1.9921571 0 0 1 53.710416,0.9182595 1.9921569,1.9921571 0 0 1 55.702574,2.9104166 Z" />
    <path
       id="path3385"
       style="fill:#000000;fill-opacity:1;stroke:#000000;stroke-width:0.249019"
       d="M 36.652574,2.9104166 A 1.9921569,1.9921571 0 0 1 34.660416,4.9025737 1.9921569,1.9921571 0 0 1 32.66826,2.9104166 1.9921569,1.9921571 0 0 1 34.660416,0.9182595 1.9921569,1.9921571 0 0 1 36.652574,2.9104166 Z" />
    <path
       id="path3387"
       style="fill:#000000;fill-opacity:1;stroke:#000000;stroke-width:0.249019"
       d="M 30.302574,2.9104166 A 1.9921569,1.9921571 0 0 1 28.310416,4.9025737 1.9921569,1.9921571 0 0 1 26.31826,2.9104166 1.9921569,1.9921571 0 0 1 28.310416,0.9182595 1.9921569,1.9921571 0 0 1 30.302574,2.9104166 Z" />
    <path
       id="path3389"
       style="fill:#000000;fill-opacity:1;stroke:#000000;stroke-width:0.249019"
       d="M 23.952574,2.9104166 A 1.9921569,1.9921571 0 0 1 21.960416,4.9025737 1.9921569,1.9921571 0 0 1 19.96826,2.9104166 1.9921569,1.9921571 0 0 1 21.960416,0.9182595 1.9921569,1.9921571 0 0 1 23.952574,2.9104166 Z" />
    <path
       id="path4460"
       style="fill:#ffffff;fill-opacity:1;stroke:none;stroke-width:0.0248596;stroke-miterlimit:4;stroke-dasharray:none"
       d="M 15.577209,0.97381558 A 1.8217037,1.9232326 0 0 0 13.755532,2.8970192 1.8217037,1.9232326 0 0 0 15.577209,4.8202209 1.8217037,1.9232326 0 0 0 16.817649,4.3008818 5.6928234,6.0100998 0 0 1 16.658873,2.8970192 5.6928234,6.0100998 0 0 1 16.818595,1.4896628 1.8217037,1.9232326 0 0 0 15.577209,0.97381558 Z" />
    <path
       id="path4465"
       style="fill:#ffffff;fill-opacity:1;stroke:#000000;stroke-width:0.249019"
       d="M 27.957954,0.95368816 A 1.9921569,1.9921571 0 0 0 26.31826,2.9106762 1.9921569,1.9921571 0 0 0 27.957954,4.8671452 6.2254896,6.2254886 0 0 1 27.641176,2.9106762 6.2254896,6.2254886 0 0 1 27.957954,0.95368816 Z" />
    <path
       id="path4470"
       style="fill:#ffffff;fill-opacity:1;stroke:#000000;stroke-width:0.249019"
       d="m 21.960388,0.91844787 a 1.9921569,1.9921571 0 0 0 -1.992128,1.99212803 1.9921569,1.9921571 0 0 0 1.992128,1.992124 1.9921569,1.9921571 0 0 0 0.132291,-0.0067 V 0.92311787 a 1.9921569,1.9921571 0 0 0 -0.132291,-0.0047 z" />
    <path
       id="path4688"
       style="fill:#ffffff;fill-opacity:1;stroke:#000000;stroke-width:0.0251239;stroke-miterlimit:4;stroke-dasharray:none"
       d="M 53.659533,1.0228367 A 1.9178121,1.8659121 0 0 1 55.577315,2.8887215 1.9178121,1.8659121 0 0 1 53.659533,4.7546025 1.9178121,1.8659121 0 0 1 52.35365,4.250743 5.993162,5.830973 0 0 0 52.520803,2.8887215 5.993162,5.830973 0 0 0 52.352655,1.5233094 1.9178121,1.8659121 0 0 1 53.659533,1.0228367 Z" />
    <path
       id="path4690"
       style="fill:#ffffff;fill-opacity:1;stroke:#000000;stroke-width:0.249019"
       d="M 41.36288,0.95368816 A 1.9921569,1.9921571 0 0 1 43.002574,2.9106762 1.9921569,1.9921571 0 0 1 41.36288,4.8671452 6.2254896,6.2254886 0 0 0 41.679658,2.9106762 6.2254896,6.2254886 0 0 0 41.36288,0.95368816 Z" />
    <path
       id="path4884"
       style="fill:#fffffc;fill-opacity:1;stroke:#000000;stroke-width:0.249019"
       d="m 47.360446,0.91844787 a 1.9921569,1.9921571 0 0 1 1.992128,1.99212803 1.9921569,1.9921571 0 0 1 -1.992128,1.992124 1.9921569,1.9921571 0 0 1 -0.132291,-0.0067 V 0.92311787 a 1.9921569,1.9921571 0 0 1 0.132291,-0.0047 z" />
  </g>
</svg>
